<?xml version="1.0" encoding="utf-8"?>
<!-- Generator: Adobe Illustrator 17.1.0, SVG Export Plug-In . SVG Version: 6.00 Build 0)  -->
<!DOCTYPE svg PUBLIC "-//W3C//DTD SVG 1.1//EN" "http://www.w3.org/Graphics/SVG/1.1/DTD/svg11.dtd">
<svg version="1.1" id="图层_1" xmlns="http://www.w3.org/2000/svg" xmlns:xlink="http://www.w3.org/1999/xlink" x="0px" y="0px"
	 viewBox="0 0 200 200" style="enable-background:new 0 0 200 200;" xml:space="preserve">
<g>
	<g>
		<path d="M104.6,33.6c3.2,0.1,5.7,1.5,7.3,4.4c1.7,3.3,1.3,6.6-1.2,9.3c-4.5,4.9-9.2,9.6-13.8,14.4C85.1,73.9,73.3,86.1,61.3,98.2
			c-2.6,2.6-2.2,3.9,0.2,6.3c16,16.2,31.9,32.7,47.8,49c2,2.1,3.7,4.3,3.6,7.4c-0.2,3.5-1.9,6-5.1,7.4c-3.5,1.5-6.6,0.4-9.1-2.1
			c-7.7-7.8-15.4-15.7-23.1-23.6c-10.9-11.2-21.8-22.5-32.7-33.7c-5.5-5.7-5.5-9.6,0.1-15.4c18.2-18.7,36.5-37.5,54.7-56.2
			C99.6,35.2,101.7,33.6,104.6,33.6z"/>
		<path d="M163,161.2c-0.3,2.9-1.8,5.5-5,6.9c-3.8,1.6-6.9,0.3-9.5-2.3c-6-6-11.9-12.2-17.8-18.3c-12.2-12.5-24.4-25.1-36.6-37.6
			c-7-7.2-7-10.3,0.1-17.5C112.1,74,130,55.7,147.9,37.2c2.3-2.4,4.8-4.2,8.3-3.5c3.3,0.6,5.4,2.6,6.4,5.6c1.2,3.8-0.3,6.8-3,9.5
			c-9.2,9.4-18.4,18.9-27.5,28.3c-7,7.2-13.9,14.4-21,21.4c-2.3,2.3-1.9,3.4,0.2,5.5c15.5,15.8,31,31.7,46.4,47.6
			C160.2,154.1,163.1,156.6,163,161.2z"/>
	</g>
</g>
</svg>
