<?xml version="1.0" encoding="utf-8"?>
<!-- Generator: Adobe Illustrator 17.1.0, SVG Export Plug-In . SVG Version: 6.00 Build 0)  -->
<!DOCTYPE svg PUBLIC "-//W3C//DTD SVG 1.1//EN" "http://www.w3.org/Graphics/SVG/1.1/DTD/svg11.dtd">
<svg version="1.1" id="图层_1" xmlns="http://www.w3.org/2000/svg" xmlns:xlink="http://www.w3.org/1999/xlink" x="0px" y="0px"
	 viewBox="0 0 200 200" style="enable-background:new 0 0 200 200;" xml:space="preserve">
<g>
	<g>
		<path d="M100.4,38.9c3.4-0.1,5.5,1.4,7.5,3.3C127,60.9,146.1,79.4,165.1,98c3.9,3.9,4.4,8.5,1.3,12c-3.3,3.7-8.3,4-12.4,0.1
			c-15.1-14.5-30.2-29.2-45.1-43.9c-7.9-7.7-7.8-7.8-15.8-0.2c-14.6,14.1-29.2,28.3-43.8,42.4c-0.5,0.5-0.9,1-1.4,1.4
			c-4.2,3.8-9,3.9-12.4,0.4c-3.3-3.4-3.2-7.9,0.8-11.9c7.7-7.6,15.5-15.2,23.2-22.7c11.3-11,22.7-22,34-33.1
			C95.6,40.6,97.7,38.7,100.4,38.9z"/>
		<path d="M168.4,155c-0.2,3.5-1.8,6-5.1,7.3c-3.7,1.6-6.9,0.4-9.6-2.2c-5.5-5.3-11-10.7-16.5-16c-11.1-10.8-22.2-21.6-33.2-32.5
			c-2.4-2.4-3.6-2.7-6.2-0.2c-15.5,15.4-31.2,30.5-46.8,45.7c-1.3,1.3-2.6,2.6-4.1,3.7c-4,3.1-8.5,2.8-11.7-0.6
			c-3.1-3.3-2.9-8,0.8-11.6c6.2-6.2,12.6-12.3,19-18.5c12.1-11.7,24.2-23.4,36.2-35.2c8.2-8.1,10.8-8.1,19-0.2
			c18.2,17.7,36.3,35.3,54.4,53C166.7,149.8,168.6,151.8,168.4,155z"/>
	</g>
</g>
</svg>
