<?xml version="1.0" encoding="utf-8"?>
<!-- Generator: Adobe Illustrator 17.1.0, SVG Export Plug-In . SVG Version: 6.00 Build 0)  -->
<!DOCTYPE svg PUBLIC "-//W3C//DTD SVG 1.1//EN" "http://www.w3.org/Graphics/SVG/1.1/DTD/svg11.dtd">
<svg version="1.1" id="图层_1" xmlns="http://www.w3.org/2000/svg" xmlns:xlink="http://www.w3.org/1999/xlink" x="0px" y="0px"
	 viewBox="0 0 200 200" style="enable-background:new 0 0 200 200;" xml:space="preserve">
<g>
	<g>
		<path d="M46.8,168.8c-3-0.3-5.4-1.7-6.9-4.7c-1.6-3.2-1.2-6.3,1.1-8.8c4.4-4.8,8.9-9.5,13.4-14.1c12.1-12.4,24.1-24.9,36.3-37.2
			c2.4-2.4,2.2-3.6-0.1-5.9c-16-16.2-31.9-32.6-47.9-49c-2.9-2.9-4.8-6.1-3.2-10.3c2.2-5.9,9-7.2,13.8-2.4
			c7.8,7.7,15.5,15.7,23.1,23.5C87.2,71.1,98,82.3,108.8,93.4c5.6,5.8,5.8,9.7,0.2,15.4c-18.3,18.9-36.7,37.7-55.1,56.6
			C52,167.3,49.9,168.8,46.8,168.8z"/>
		<path d="M97.1,168.8c-3.2-0.2-5.6-1.8-7-4.7c-1.7-3.5-1-6.9,1.7-9.7c5.7-6,11.5-12,17.4-18c10.6-10.9,21.1-21.8,31.8-32.5
			c2.5-2.5,2-3.7-0.2-5.9C125.7,83,110.9,67.7,96,52.4c-1.4-1.4-2.8-2.8-4.1-4.3c-3.7-4.4-3.7-9.1,0-12.4c3.5-3.1,8.2-2.7,12,1.2
			c6.2,6.3,12.3,12.6,18.5,19c12.1,12.4,24.1,24.8,36.2,37.2c6.1,6.2,6.1,10,0.1,16.1c-18,18.5-36,37-54,55.5
			C102.7,166.8,100.5,168.8,97.1,168.8z"/>
	</g>
</g>
</svg>
