<?xml version="1.0" encoding="utf-8"?>
<!-- Generator: Adobe Illustrator 17.1.0, SVG Export Plug-In . SVG Version: 6.00 Build 0)  -->
<!DOCTYPE svg PUBLIC "-//W3C//DTD SVG 1.1//EN" "http://www.w3.org/Graphics/SVG/1.1/DTD/svg11.dtd">
<svg version="1.1" id="图层_1" xmlns="http://www.w3.org/2000/svg" xmlns:xlink="http://www.w3.org/1999/xlink" x="0px" y="0px"
	 viewBox="0 0 200 200" style="enable-background:new 0 0 200 200;" xml:space="preserve">
<g>
	<path d="M107.3,2.8c5.5,2.5,8.6,5.2,10,11.5c0.4,1.6,2.1,2,3.3,2.7c15.5,8.4,31,16.8,46.4,25.3c2.5,1.4,4.6,1.5,7.3,0.7
		c6.2-1.8,12.2,0.6,15.9,5.8c3.5,5,3.8,11.5,0.1,16.5c-1.9,2.6-2.4,5.1-2.4,8.1c0.1,17.8,0.1,35.6,0,53.4c0,2.9,0.5,5.2,2.3,7.7
		c3.8,5.2,3.5,11.8-0.2,16.9c-3.7,5.1-9.8,7.3-16,5.5c-2.3-0.7-4.2-0.8-6.4,0.5c-15.7,8.7-31.5,17.2-47.3,25.7
		c-2,1.1-3.1,2.5-3.8,4.7c-2.1,6.2-7.9,10.2-14.1,10.1c-6-0.1-11.8-4-13.7-10c-0.8-2.7-2.4-4-4.6-5.2c-16.2-8.8-32.4-17.5-48.5-26.5
		c-2.5-1.4-4.5-1.4-7.1-0.1c-7.2,3.6-15.7,0.6-19.3-6.3c-3.7-7.1-1.6-15.5,5.4-19.6c2.6-1.5,3.1-3.3,3.1-5.9
		c-0.1-16.2-0.1-32.3,0-48.5c0-3-0.9-4.6-3.5-6.2c-6.7-4.1-8.7-13-4.8-19.8c3.7-6.6,12.2-9.4,19.1-5.9c2.9,1.5,4.9,1.1,7.6-0.3
		c16-8.8,32-17.5,48.1-26.2c2.2-1.2,3.8-2.4,4.6-5.2c1.6-5.4,4.9-7.7,9.2-9.4C100.8,1.7,105,2,107.3,2.8z M89.1,25.6
		c-0.6,0.3-1.2,0.6-1.8,0.9c-15.9,8.6-31.8,17.3-47.7,25.9c-2,1.1-2.6,2.3-2.7,4.6c-0.1,5.5-2.4,10.2-7.4,12.9
		c-1.9,1-2.4,2.3-2.4,4.3c0,17.1,0,34.3,0,51.4c0,1.9,0.3,3.3,2.3,4.4c4.9,2.6,7.3,7,7.5,12.4c0.1,3,1.2,4.3,3.6,5.6
		c15.4,8.3,30.7,16.6,46,25c2.2,1.2,3.6,1.6,5.8-0.6c5.9-5.9,14.7-5.8,20.6,0c1.8,1.8,3,2.2,5.3,1c14.3-7.9,28.6-15.6,43-23.4
		c1.9-1,2.8-2,2.3-4.5c-1.4-8.3,3-15,11-17c3-0.7,3.9-2,3.8-5c-0.1-15.7-0.1-31.3,0-47c0-3-1-4.2-3.9-4.9
		c-7.8-1.9-12.4-8.8-11.1-16.5c0.5-2.6,0-3.8-2.2-5c-14.4-7.7-28.7-15.5-43-23.3c-1.9-1.1-3.1-1.1-5,0.7c-6.3,6.3-14.8,6.1-21.4,0
		C90.9,26.7,90.5,25.4,89.1,25.6z M178.7,137.1c-3.7,0-5.6,1.9-5.9,5c-0.2,3.4,2,5.7,5.3,5.7c3.1,0,5.2-1.9,5.3-5.2
		C183.5,139.3,181.6,137.5,178.7,137.1z M102.3,11.8c-3,0.2-4.8,2.2-4.9,5c-0.2,3.3,2,5.3,5.1,5.4c3,0.1,4.9-2.1,5-5
		C107.8,13.9,105.6,12.2,102.3,11.8z M27.3,142.9c-0.5-2.7-1.7-5-4.8-5.2c-3.2-0.1-5.3,1.6-5.5,4.9c-0.2,3.4,2,5.2,5.1,5.3
		C25.2,147.9,26.7,145.7,27.3,142.9z M22.1,62.4c3.1-0.3,5-2.1,5-5c0-3.2-2.1-5.2-5.2-5.1c-3.1,0.1-5.1,2.2-4.8,5.5
		C17.3,60.7,19.2,62.2,22.1,62.4z M102.2,177.9c-3.1,0.5-4.9,2.3-4.7,5.6c0.2,2.9,2,4.9,5,4.8c3.3,0,5.1-2.3,5.1-5.3
		C107.5,179.9,105.5,178,102.2,177.9z M182.5,57.8c-0.1-3.1-1.6-5.1-4.7-5.2c-3.2-0.2-5,1.9-5.1,4.7c-0.1,2.7,1.6,4.7,4.5,4.9
		C180.3,62.5,182,60.8,182.5,57.8z"/>
	<path d="M57.6,100.1c0-6,0.1-12.1,0-18.1c-0.1-4.5,2-7.8,5.8-10c11-6.1,22-12.1,33-18c4-2.2,8.1-2.1,12.2,0.1
		c10.9,5.9,21.7,11.8,32.6,17.8c4.2,2.3,6.4,6,6.4,10.7c0.1,11.7,0,23.5,0,35.2c0,5-2.2,8.7-6.7,11.1c-10.8,5.7-21.6,11.3-32.4,17
		c-4.1,2.1-8.1,2.1-12.1,0c-10.9-5.8-21.9-11.5-32.8-17.3c-4.1-2.2-6.1-5.6-6-10.4C57.7,112.2,57.6,106.2,57.6,100.1z M97.7,117.7
		c0-4.7-0.1-9.5,0-14.2c0-2-0.6-3.4-2.5-4.3c-8.2-4-16.4-8.1-24.5-12.2c-2.5-1.3-3.5-1-3.5,2c0.1,9.3,0.1,18.6,0,27.9
		c0,1.8,0.6,3,2.3,3.9c8.4,4.4,16.8,8.8,25.1,13.2c2.5,1.3,3.1,0.3,3.1-2.1C97.7,127.2,97.8,122.5,97.7,117.7z M107.5,117.2
		c0,4.7,0,9.5,0,14.2c0,2.6,0.1,4.2,3.4,2.4c8-4.4,16.1-8.6,24.2-12.7c2-1,2.9-2.3,2.9-4.6c-0.1-9-0.1-17.9,0-26.9
		c0.1-3.6-1.2-3.8-4-2.3c-7.4,3.8-14.8,7.7-22.3,11.1c-3.4,1.5-4.5,3.6-4.2,7.1C107.7,109.3,107.5,113.2,107.5,117.2z M73.7,77.6
		c9.8,4.9,18.7,9.4,27.5,13.7c0.6,0.3,1.7,0.4,2.3,0.1c9-4.4,17.9-8.9,27.8-13.8c-9.7-5.3-18.4-10.1-27.1-14.9
		c-1.4-0.8-2.8-0.4-4.2,0.3C91.7,67.7,83.2,72.3,73.7,77.6z"/>
</g>
</svg>
