<?xml version="1.0" encoding="utf-8"?>
<!-- Generator: Adobe Illustrator 17.1.0, SVG Export Plug-In . SVG Version: 6.00 Build 0)  -->
<!DOCTYPE svg PUBLIC "-//W3C//DTD SVG 1.1//EN" "http://www.w3.org/Graphics/SVG/1.1/DTD/svg11.dtd">
<svg version="1.1" id="图层_1" xmlns="http://www.w3.org/2000/svg" xmlns:xlink="http://www.w3.org/1999/xlink" x="0px" y="0px"
	 viewBox="0 0 200 200" style="enable-background:new 0 0 200 200;" xml:space="preserve">
<g>
	<g>
		<path d="M201,128c-0.6,1.9-1.1,3.8-1.8,5.7c-3.3,10.1-12.6,16.9-24,17c-32.8,0.1-65.6,0.1-98.4,0c-14.8-0.1-25.5-10.9-25.5-25.6
			c-0.1-32.6-0.1-65.2,0-97.9c0-12.6,7.2-21.7,19.5-25C71.6,1.9,72.3,1.4,73,1c35.3,0,70.7,0,106,0c6.1,2.2,12.1,4.5,16.3,9.9
			c3.1,3.9,4.1,8.6,5.7,13.1C201,58.7,201,93.3,201,128z M126.5,17.2c-15.8,0-31.6,0-47.5,0c-8.9,0-11.8,2.9-11.8,11.6
			c-0.1,31.3-0.1,62.6,0,93.9c0,9.1,3,12,12.1,12c31.1,0.1,62.3,0.1,93.4,0c9.1,0,12-2.9,12.1-12c0.1-31.3,0.1-62.6,0-93.9
			c0-8.8-2.9-11.6-11.8-11.6C157.5,17.2,142,17.2,126.5,17.2z"/>
		<path d="M1,67c1.7-5,2.2-10.3,5.2-14.9c6.2-9.7,14.9-15,26.3-15.7c5.2-0.3,8.7,2.7,9.1,7.2c0.3,4.1-2.8,7.5-7.7,8.2
			c-11.4,1.7-16.7,7.6-16.7,19.2c-0.1,31.6-0.1,63.3,0,94.9c0,12,6.4,18.8,18.4,18.9c32.1,0.2,64.3,0.2,96.4,0
			c10.6-0.1,16.4-5.7,18.1-16.2c0.8-5.3,4.1-8.5,8.3-8.1c4.6,0.4,7.5,4.2,7.2,9.6c-0.7,14.6-12.3,27.5-27,29.8
			c-1.3,0.2-2.7,0.2-3.7,1.2c-34,0-68,0-102,0c-1.3-0.4-2.5-0.9-3.8-1.1c-9.5-1.3-16.6-6.2-22.1-13.8C3.6,181.3,2.8,175.5,1,170
			C1,135.7,1,101.3,1,67z"/>
	</g>
</g>
</svg>
