<?xml version="1.0" encoding="utf-8"?>
<!-- Generator: Adobe Illustrator 17.1.0, SVG Export Plug-In . SVG Version: 6.00 Build 0)  -->
<!DOCTYPE svg PUBLIC "-//W3C//DTD SVG 1.1//EN" "http://www.w3.org/Graphics/SVG/1.1/DTD/svg11.dtd">
<svg version="1.1" id="图层_1" xmlns="http://www.w3.org/2000/svg" xmlns:xlink="http://www.w3.org/1999/xlink" x="0px" y="0px"
	 viewBox="0 0 200 200" style="enable-background:new 0 0 200 200;" xml:space="preserve">
<g>
	<g>
		<path d="M139.6,148.8c-1.9,0-3.6,0-5.4,0c-33.7,0-67.3,0-101,0c-18.2,0-27-8.8-27-27c0-22.8,0-45.6,0-68.5C6.2,35.8,15,27,32.6,27
			c41.3,0,82.6,0,123.9,0c15,0,24.4,9.3,24.4,24.2c0,16.5,0.1,33-0.1,49.5c0,1.4,1.8,4.7-2,4.2c-2.6-0.4-6.6,0.8-6.5-4.5
			c0.2-15.7,0.1-31.3,0.1-47c0-3.5,0-7-1.7-10.2c-2.9-5.5-7.7-7.6-13.6-7.6c-42.3,0-84.6-0.1-126.9,0.1C20.1,35.6,15,41.3,15,51.4
			c0,24.3,0,48.6,0,73c0,10.2,5.5,15.7,15.8,15.7c33.2,0,66.3,0,99.5,0C138.4,140,138.4,140,139.6,148.8z"/>
		<path d="M87,88.2c0,10.3,0,20.6,0,31c0,5.8-2.1,7.8-7.8,7.9c-15,0-30,0-45,0c-5.7,0-8-2-8-7.7c-0.1-21-0.1-42,0-62.9
			c0-5.5,2.2-7.4,7.7-7.5c15.2,0,30.3,0,45.5,0c5.9,0,7.6,1.9,7.7,7.8C87,67.2,87,77.7,87,88.2z M46,89.3
			c-9.1,6.1-13.3,11.9-14,19.8c-0.2,2.2-0.9,5.2,2.4,5.6c3,0.3,3-2.6,3.3-4.6c1.8-10.5,9-17,18.9-17c9.8,0,17.3,6.6,19,17
			c0.4,2.1,0,5,3.2,4.6c3.3-0.3,2.7-3.2,2.4-5.5c-1-9-6.1-15.2-13.8-19.6c6.7-11.1,6.5-19.2-0.8-25c-6.2-5-15.2-4.8-21,0.7
			C39.2,71.3,39.2,79.9,46,89.3z"/>
		<path d="M171.4,110.8c14.8,0,26.6,11.7,26.6,26.5c0,14.7-11.9,26.6-26.6,26.6c-14.8,0-26.6-11.8-26.6-26.6
			C144.8,122.5,156.5,110.8,171.4,110.8z M156.5,133c-2-0.1-3.1,0.6-3.7,2c-0.7,1.6-0.3,3,0.8,4.1c3.5,3.5,7.1,7,10.7,10.4
			c2,1.8,4,1.2,5.7-0.5c6.2-6.1,12.3-12.1,18.5-18.2c1.7-1.7,2.5-3.7,0.6-5.7c-2-2-3.9-1-5.6,0.7c-4.4,4.3-9,8.4-13.1,13
			c-2.8,3.2-4.6,3.1-7.3-0.1C161.2,136.4,159.4,133.6,156.5,133z"/>
		<path d="M131.4,48.8c7.3,0,14.7,0.1,22,0c3.1,0,5.5,0.8,5.5,4.3c0,3.1-2.3,4.1-5.2,4.1c-15,0-30,0-45,0c-2.9,0-5-1.1-4.9-4.3
			c0.1-3.2,2.3-4,5.2-4C116.4,48.9,123.9,48.8,131.4,48.8z"/>
		<path d="M131,78.2c-7.2,0-14.3,0-21.5,0c-2.9,0-5.6-0.5-5.7-4c-0.2-3.9,2.7-4.3,5.8-4.3c14.5,0,29,0,43.5,0c3,0,5.7,0.5,5.8,4
			c0.1,3.8-2.7,4.4-5.9,4.4C145.7,78.1,138.3,78.2,131,78.2z"/>
		<path d="M118.8,90.9c3.2,0,6.3-0.1,9.5,0c2.8,0.1,4.4,1.7,4.3,4.4c-0.1,2.5-1.8,3.8-4.4,3.8c-6.8,0-13.7,0-20.5,0
			c-2.6,0-4.1-1.5-4-4.1c0-2.6,1.6-4,4.1-4.1C111.5,90.8,115.1,90.9,118.8,90.9z"/>
		<path d="M56.5,87.1c-5.5-0.1-10-4.6-10.1-10.2c0-5.7,4.7-10.4,10.5-10.3c5.5,0.1,10.1,4.7,10.1,10.2C67,82.4,62.2,87.1,56.5,87.1z
			"/>
	</g>
</g>
</svg>
