<?xml version="1.0" encoding="utf-8"?>
<!-- Generator: Adobe Illustrator 17.1.0, SVG Export Plug-In . SVG Version: 6.00 Build 0)  -->
<!DOCTYPE svg PUBLIC "-//W3C//DTD SVG 1.1//EN" "http://www.w3.org/Graphics/SVG/1.1/DTD/svg11.dtd">
<svg version="1.1" id="图层_1" xmlns="http://www.w3.org/2000/svg" xmlns:xlink="http://www.w3.org/1999/xlink" x="0px" y="0px"
	 viewBox="0 0 200 200" style="enable-background:new 0 0 200 200;" xml:space="preserve">
<path d="M85.4,20.7c3.9,1.4,7.5,2.2,10.6,4c19.2,11,38.3,22.1,57.4,33.3c9.7,5.7,9.6,14,0,19.6c-19.1,11.2-38.3,22.2-57.4,33.4
	c-7.1,4.2-14.1,4.2-21.2,0c-19-11.1-38-22-56.9-33.1c-10.2-6-10.2-14.1-0.1-20.1c18.7-10.9,37.3-21.8,56.1-32.5
	C77.4,23.2,81.5,22.2,85.4,20.7z M25.7,67.9c19,11.1,37.5,21.9,56.2,32.5c1.8,1,5.2,1,7,0C107.5,89.8,126,79,145,68
	c-1.5-1-2.5-1.8-3.6-2.5c-16.7-9.7-33.4-19.3-50-29.2c-4.3-2.5-7.8-2.5-12,0C63,46,46.6,55.4,30.2,65C28.8,65.8,27.5,66.7,25.7,67.9
	z"/>
<path d="M160.1,179.3c-2.1-1.3-4.1-2.4-5.9-3.8c-5.4-4.4-7.6-4.6-12.5,0c-3.6,3.4-7.1,3.8-11.2,1.1c-1.8-1.2-3.8-2.2-5.7-3.2
	c-3.9-2.1-5.4-4.9-4.1-9.4c1.8-6-0.8-10.2-6.9-11.5c-4.7-1-6.9-3.7-7.2-8.1c-0.2-3.1-0.3-6.3-0.2-9.5c0.3-5.2,2.2-8.6,8.1-9.5
	c5.2-0.8,7.9-5.8,6.3-11.1c-1.5-5.1,0.2-8,4.6-10c2-0.9,3.8-2,5.7-3.1c3.9-2.4,7.3-2.2,10.9,0.9c5.3,4.6,7.2,4.7,12.5,0.1
	c3.6-3.1,7-3.4,10.9-0.9c2.1,1.3,4.4,2.4,6.5,3.6c3.5,2,4.8,4.5,3.6,8.7c-1.9,6.6,0.6,10.4,7.5,12c3.7,0.9,6,2.8,6.3,6.7
	c0.3,3.5,0.6,7,0.5,10.4c-0.1,5.4-2.1,9-8.3,9.9c-5.1,0.8-7.8,5.8-6.1,11.2c1.5,4.9-0.3,7.6-4.4,9.7
	C167.5,175.4,164,177.3,160.1,179.3z M161.8,165.2c0.3-2,0.5-3.1,0.5-4.2c0.5-8.7,4.5-15.1,12.2-19.3c1.2-0.6,2-1.9,2.9-2.9
	c-1-0.9-1.9-2.2-3.1-2.8c-7.5-4.1-11.5-10.3-12.1-18.8c-0.1-1.2-0.3-2.4-0.6-4.5c-9.3,7.1-18.3,6.3-27.6-0.3
	c0.1,11.2-3.4,19-12.3,23.8c-1.2,0.6-2,1.9-3,2.8c1,1,1.8,2.2,3,2.8c7.3,4,11.3,10.1,12.1,18.3c0.1,1.4,0.3,2.8,0.5,4.9
	C143.7,157.7,152.6,158.3,161.8,165.2z"/>
<path d="M86,169.7c-4.1-1.4-7.7-2-10.8-3.8c-19.3-11-38.6-22.3-57.8-33.5c-4.4-2.6-5.7-6-3.9-9.4c1.9-3.5,5.7-4,10.4-1.3
	c18.3,10.6,36.6,21.1,54.7,31.9c4.7,2.8,8.5,3.3,13.3,0.1c6.3-4.2,9.7-3.8,12.1,0.1c2.3,3.8,0.7,7.1-5.8,10.6
	C94.3,166.5,90.1,168,86,169.7z"/>
<path d="M85,143.1c-3.1-1.1-6.8-1.8-9.9-3.6c-19.3-11-38.5-22.3-57.8-33.5c-4.3-2.5-5.7-6.1-3.8-9.4c2-3.4,5.6-4,10-1.5
	c18.5,10.7,37.1,21.5,55.6,32.4c3.3,2,6.5,2.9,10.3,1.5c3.5-1.3,6.3,0.3,7.6,3.7c1.3,3.5-0.1,6.3-3.4,7.8
	C91.1,141.6,88.3,142.1,85,143.1z"/>
</svg>
