<?xml version="1.0" encoding="utf-8"?>
<!-- Generator: Adobe Illustrator 17.1.0, SVG Export Plug-In . SVG Version: 6.00 Build 0)  -->
<!DOCTYPE svg PUBLIC "-//W3C//DTD SVG 1.1//EN" "http://www.w3.org/Graphics/SVG/1.1/DTD/svg11.dtd">
<svg version="1.1" id="图层_1" xmlns="http://www.w3.org/2000/svg" xmlns:xlink="http://www.w3.org/1999/xlink" x="0px" y="0px"
	 viewBox="0 0 200 200" style="enable-background:new 0 0 200 200;" xml:space="preserve">
<g>
	<g>
		<path d="M34,100.9c0-20.5,0-41,0-61.5c0-12.1,6-18.1,18.2-18.2c32.5-0.1,65-0.2,97.5-0.2c13,0,18.3,5.5,18.3,18.7
			c0,40.8,0,81.7,0,122.5c0,11.8-6.6,18.7-18.5,18.7c-32.5,0.1-65,0.1-97.5,0c-11.7,0-18-6.7-18-18.6C34,141.9,34,121.4,34,100.9z
			 M100.9,65.8C74.1,65.8,52,87.7,52,114.3c0,27.6,21.5,49.6,48.6,49.7c27.3,0.1,49.4-21.8,49.4-49C150,87.7,128.2,65.8,100.9,65.8z
			 M61,50c2.3,0,4.7,0.1,7,0c4.6-0.2,6.9-2.9,7-7.9c0.1-4.7-2.1-7.1-6.8-7.2c-4.3-0.1-8.6-0.1-13,0c-6,0-8,1.9-8,7.5
			c0,5.8,1.8,7.6,7.9,7.6C57,50,59,50,61,50z"/>
		<path d="M100.8,78c20.4,0,37,16.5,37,36.7c0,20.3-16.4,36.7-36.9,36.8c-20.4,0.1-36.9-16.2-36.9-36.7C63.9,94.6,80.4,78,100.8,78z
			"/>
	</g>
</g>
</svg>
