<?xml version="1.0" encoding="utf-8"?>
<!-- Generator: Adobe Illustrator 17.1.0, SVG Export Plug-In . SVG Version: 6.00 Build 0)  -->
<!DOCTYPE svg PUBLIC "-//W3C//DTD SVG 1.1//EN" "http://www.w3.org/Graphics/SVG/1.1/DTD/svg11.dtd">
<svg version="1.1" id="图层_1" xmlns="http://www.w3.org/2000/svg" xmlns:xlink="http://www.w3.org/1999/xlink" x="0px" y="0px"
	 viewBox="0 0 200 200" style="enable-background:new 0 0 200 200;" xml:space="preserve">
<g>
	<g>
		<path d="M37.7,77.2C37.8,35.9,70.2,4.3,112,4.6c40.1,0.3,72.2,33.9,72,75.4c-0.3,39.8-33.2,71.5-74.3,71.2
			C70.2,150.9,37.5,117.3,37.7,77.2z M105.7,53.9c-0.7-7.2,2.7-10.2,9.5-8c2.5,0.8,3.6-0.1,5.1-1.5c1.9-1.7,4.2-2,6.4-0.5
			c1.8,1.3,2.4,3,1.7,5.2c-1.6,4.4-7.9,8.3-12.5,7.4c-6.1-1.2-8.7,0.9-9.3,7c-0.4,4.9,1.1,9.2,3.7,13.2c3.5,5.3,6.5,6.2,12.2,3.5
			c8.9-4.3,6.9-4.4,14.2,2.6c5.7,5.4,11.1,11,17.7,15.4c1.1,0.7,2.3,1.7,3.7,1c1.5-0.8,1-2.4,0.7-3.6c-3-10.9-5.2-22-9.6-32.5
			c-0.8-1.9-1.2-5-4.7-2.4c-1.7,1.2-2.5-0.6-2.4-1.9c0.1-1.4,0.7-2.9,1.3-4.2c2.7-6.7,2.7-6.6-3.8-6.4c-2.1,0.1-3.8-1.3-3.9-3.2
			c-0.2-2.4,1.9-1,3-1c2.5-0.1,4.4-1.5,6.5-2.3c3.5-1.3,6.5-0.9,8.9,2.2c0.8,1,1.7,2.1,2.9,2.7c2.1,1.1,3.6,1,3-2.1
			c-0.6-3-1-6,0.4-8.8c0.8-1.6,0-2.5-0.9-3.5c-12.8-13.3-28.4-20.6-47-21.1c-0.9,0-2.3-0.4-2.4,1c-0.2,4.8-2.2,4.2-5.2,2.1
			c-0.6-0.4-2-0.1-2.9,0.2c-6.6,2.1-10.1,11.9-6.6,18c0.9,1.6,1.9,2.7,4,2.1c2.5-0.8,0.7-2.4,0.8-3.7c0.3-3.1-3.1-7.8,0-8.9
			c2.4-0.8,4,4.8,5.7,7.6c1.8,2.9,2,6-0.7,8.7c-5.7,5.6-4.8,12.4-3.7,19.3c0.2,1.1,1,2.2,2.5,1.9c1.1-0.2,1.6-1.1,1.8-2.2
			C105.8,55.9,105.7,54.9,105.7,53.9z M86.7,114.5c-0.1,3.8,3.5,11,5.8,10.8c9.9-0.9,15.5,5.3,20.9,12.1c1.8,2.2,3.6,4.4,5.3,6.6
			c1,1.3,2.4,1.3,3.5,0.5c1.6-1.1-0.2-1.9-0.5-2.8c-1.3-3.2-1.5-6.2-1.2-9.8c0.3-4.5,3.4-9.2,0.2-13.8c-0.5-0.7-0.5-1.6,0-2.3
			c2.7-4.8,0.2-8.9-1.5-13.2c-1.2-2.8-2.6-2.9-4.9-1.3c-2.3,1.6-4.3,3.9-7.4,3.8c-6.7-0.3-12,3-17.5,5.9
			C87.9,111.6,86.5,112.6,86.7,114.5z M80.7,116c-6-3.7-11.2-5.6-15.9,0.9c-1.7,2.4-4.1,2.8-6.5,0.9c-2.9-2.3-3.9-5.3-2.7-8.9
			c1.1-3.2,3.6-2.5,5.8-1.9c3.9,1,5.1-0.2,4.5-4.1c-1-6.7-0.8-13.3,3.5-19.1c0.5-0.7,0.9-1.3,0.4-2.2c-1.9-4.3-1.9-4.3,3.3-5.2
			c1.3-0.2,2.3-0.8,2.3-2.1c0-1.3-1.4-1.4-2.3-1.3c-7.8,0.1-15.7,0.2-21.1,7.4c-1.2,1.7-2.9,3.1-5,1.4c-1.1-0.9-2-2.1-3.4-1.3
			c-1.5,0.8-0.7,2.4-0.6,3.6c1.1,12.9,5.5,24.6,13.4,34.9c1.1,1.5,2.2,3,4.3,3C68,121.9,74.4,119.9,80.7,116z M66.1,57.1
			c4.5,0.1,5.9-1.8,4.9-5.5c-0.8-3-1.8-6.4-0.3-9.2c1.5-2.8,1.3-3.7-1.8-4.1c-1.2-0.2-2.3-1.4-3.5-1.8c-3.1-1-6.6-0.7-8.8,1.4
			c-2.5,2.5-4,6.1-5.9,9.2c-0.9,1.4-0.8,2.1,1,2.9c4.2,1.8,9.2,2.2,12.1,6.6C64.1,57,65.5,56.9,66.1,57.1z M44.5,69.6
			c3.9-1.3,4.7,4.2,8,3.6c5-0.9-0.4-5.3,2.5-7C51.3,66.7,47.7,67.1,44.5,69.6z"/>
		<path d="M19.4,78.4c1-30,12.6-54.3,36.4-72.6c1.7-1.3,3.4-2.8,5.8-2.5c2.5,0.3,4.4,1.7,5.2,4.1c1,2.9-0.3,5.2-2.5,7
			C59,18.5,53.9,22.8,49.6,28c-25.5,30.8-23.9,76.6,3.7,104.9c28.8,29.5,73.8,32.5,105.8,7.1c2.1-1.7,4-3.6,6-5.3
			c3.1-2.6,6.4-3.2,9.2,0.1c2.8,3.2,1.4,6.2-1.3,8.8c-13.6,13.1-29.7,21.5-48.3,24.3C73.8,175.7,28.2,142,20.5,91.1
			C19.8,86.8,19.7,82.5,19.4,78.4z"/>
		<path d="M109,198.7c-19.5,0-39,0-58.5,0c-1.3,0-2.7,0.1-4-0.1c-1.4-0.1-2.7-0.7-3.2-2.1c-0.6-1.5,0.5-2.5,1.5-3.4
			c3-2.7,6.5-4.7,10.2-6.2c21.1-8.7,43.1-11,65.6-9.5c14.7,1,29.1,3.5,42.7,9.4c3.8,1.7,7.5,3.7,10.7,6.4c2.8,2.3,1.8,4-1.1,5
			c-1.5,0.5-3.3,0.4-4.9,0.4C148.3,198.7,128.6,198.7,109,198.7z"/>
	</g>
</g>
</svg>
