<?xml version="1.0" encoding="utf-8"?>
<!-- Generator: Adobe Illustrator 17.1.0, SVG Export Plug-In . SVG Version: 6.00 Build 0)  -->
<!DOCTYPE svg PUBLIC "-//W3C//DTD SVG 1.1//EN" "http://www.w3.org/Graphics/SVG/1.1/DTD/svg11.dtd">
<svg version="1.1" id="图层_1" xmlns="http://www.w3.org/2000/svg" xmlns:xlink="http://www.w3.org/1999/xlink" x="0px" y="0px"
	 viewBox="0 0 200 200" style="enable-background:new 0 0 200 200;" xml:space="preserve">
<g>
	<path d="M108.8,3c8.3,2.2,16.9,3.1,25,6.1c36.8,13.4,62.4,47.7,64.3,86.8c3,59-45.1,106.5-103.9,102.9
		c-45.4-2.8-83.3-38.1-90.2-83.9c-0.2-1.4-0.8-8.4-0.8-14.9c0-3.2,0.5-10.5,0.6-11.5C10,50.1,31,23.5,67.2,9.1
		c8-3.2,16.7-3.9,24.9-6.1C97.7,3,103.3,3,108.8,3z M101,189.3c48.8,0,88.5-39.9,88.3-88.5c-0.2-48.7-39.5-88-88.2-88.2
		c-48.7-0.2-88.5,39.5-88.6,88.3C12.5,149.6,52.3,189.4,101,189.3z"/>
	<path d="M100.9,133.5c-16.7,0-33.3,0-50,0c-8.2,0-10.7-2.6-10.7-10.9c0-22.9,0-45.7,0-68.6c0-7.7,2.8-10.6,10.6-10.6
		c33.5-0.1,66.9-0.1,100.4,0c7.7,0,10.5,3,10.5,10.8c0,22.9,0,45.7,0,68.6c0,8.2-2.6,10.7-10.9,10.7
		C134.2,133.5,117.5,133.5,100.9,133.5z M101,125.5c15.8,0,31.7-0.1,47.5,0.1c4.4,0.1,5.6-1.5,5.5-5.7c-0.2-20.9-0.2-41.8,0-62.7
		c0-4.7-1.7-5.8-6-5.8c-31.3,0.1-62.7,0.1-94,0c-4.3,0-6.1,1.1-6,5.8c0.2,20.9,0.2,41.8,0,62.7c-0.1,4.7,1.7,5.8,6,5.7
		C69.6,125.4,85.3,125.5,101,125.5z"/>
	<path d="M101.2,158.6c-12.9,0-25.8-0.1-38.6,0.1c-3.5,0.1-4-1.3-4-4.3c0-2.9,0.6-4.1,3.8-4c5.2,0.2,10.4-0.1,15.6,0.1
		c3.1,0.1,4.3-0.9,4.2-4.1c-0.3-10.2-0.6-9.1,9.2-9.1c7.7,0,15.3,0.2,23-0.1c4.1-0.1,5.5,1.3,5.4,5.3c-0.1,8,0.1,8,8,8
		c3.1,0,6.2-0.1,9.3,0c2.7,0.2,6.2-1.6,6.3,3.9c0.1,5.3-3.2,4.2-6.1,4.2C125.3,158.7,113.3,158.6,101.2,158.6z"/>
	<path d="M101.5,57.9c8.2,0,16.3,0.1,24.5,0c3.9-0.1,5.7,1.4,5.6,5.4c-0.1,7.2-0.1,14.4,0,21.5c0,2.5-0.3,4.9-3.4,4.9
		c-2.9,0-3.1-2.4-3.1-4.6c-0.1-5.2-0.1-10.4,0-15.7c0.1-3.6-1.4-4.9-5-4.8c-12.7,0.1-25.5,0.1-38.2,0c-3.6,0-4.9,1.4-4.9,4.9
		c0.1,12.7,0.1,25.5,0,38.2c0,3.9,1.7,5.1,5.4,5c5.5-0.2,11.1,0,16.6,0c2.1,0,4,0.2,4.1,3c0.1,3-1.7,3.6-4.1,3.6
		c-7.8,0-15.7,0-23.5,0c-3.4,0-5.1-1.3-5.1-5c0.1-17.1,0.1-34.3,0-51.4c0-3.6,1.7-4.9,5.1-4.9C84.2,57.9,92.8,57.9,101.5,57.9z"/>
	<path d="M100.5,75.5c-5.4,0-10.7,0-16.1,0c-2.1,0-4-0.3-4.1-3c-0.1-2.7,1.7-3.3,3.8-3.3c11.2,0,22.4,0,33.6,0
		c2.1,0,3.9,0.7,3.8,3.3c-0.1,2.7-2,3-4.1,3C111.9,75.5,106.2,75.5,100.5,75.5z"/>
	<path d="M97.8,85.3c-4.6,0-9.1,0-13.7,0c-2.2,0-3.9-0.8-3.8-3.4C80.4,79.5,82,79,84,79c9.1,0,18.3,0,27.4,0c2.2,0,4.1,0.7,3.9,3.3
		c-0.2,2.3-2,3.1-4.3,3.1C106.6,85.3,102.2,85.3,97.8,85.3z"/>
	<path d="M94.5,94.9c-3.3,0-6.5,0-9.8,0c-2.3,0-4.4-0.4-4.3-3.3c0-2.6,1.9-3.2,4-3.2c6.9,0,13.7,0,20.6,0c2.1,0,3.9,0.7,3.9,3.3
		c-0.1,2.6-1.9,3.1-4,3.2C101.3,95,97.9,94.9,94.5,94.9z"/>
	<path d="M109.6,98c0-3.9,1.6-6.4,4.7-7.9c3.4-1.6,6.6-1.4,9.5,1.1c2.6,2.1,3.7,4.9,2.7,8.2c-1.2,4.3-4,7.7-6.5,11.3
		c-0.9,1.2-2.2,1.8-3.2,0.4C113.8,106.9,110.3,102.9,109.6,98z M118,91.1c-3.7,0.1-7,3.7-6.3,7.2c0.8,3.7,3.1,6.7,5.3,9.8
		c0.7,1,1.6,1.2,2.3,0.1c2.1-3.1,4.6-6,5.3-9.8C125.3,94.4,122,91,118,91.1z"/>
	<path d="M111.5,111.3c-0.6,2.2-3.1,0.6-3.6,3.1c6.8,2.4,13.6,1.8,20.4,0.4c0.2-3-3.1-1.3-3.2-3.7c2.5-1,4.9-0.4,5.8,2.1
		c0.9,2.8-1.9,3.4-3.8,3.9c-5.7,1.4-11.6,1.2-17.4,0.1c-2-0.4-4.4-1-4.2-3.8C105.6,111.4,107.6,110.7,111.5,111.3z"/>
</g>
<circle cx="118.4" cy="97" r="1.8"/>
</svg>
