<?xml version="1.0" encoding="utf-8"?>
<!-- Generator: Adobe Illustrator 17.1.0, SVG Export Plug-In . SVG Version: 6.00 Build 0)  -->
<!DOCTYPE svg PUBLIC "-//W3C//DTD SVG 1.1//EN" "http://www.w3.org/Graphics/SVG/1.1/DTD/svg11.dtd">
<svg version="1.1" id="图层_1" xmlns="http://www.w3.org/2000/svg" xmlns:xlink="http://www.w3.org/1999/xlink" x="0px" y="0px"
	 viewBox="0 0 200 200" style="enable-background:new 0 0 200 200;" xml:space="preserve">
<path d="M140.5,114.4c-22.5-2-41.6,5.7-58.9,22.8c-3.4-2.8-6.7-5.4-10-8.3c-0.7-0.6-1.3-1.7-1.3-2.5c0.1-14.5-1.1-29.2,0.8-43.4
	c3.8-27.5,26.2-45.7,54-45.8c14-0.1,28-0.1,42,0.1c1.9,0,3.7,0.9,5.6,1.4c-0.8,1.9-1.6,3.7-2.5,5.6c-0.2,0.4-0.6,0.8-1,1.1
	c-10.5,8-13.2,18.6-12.2,31.5c1,13.4,0.8,27,0.1,40.5c-1,20.2-8.3,37.3-26.9,47.8c-2,1.1-4.2,2-6.3,2.9c-1.2,0.5-2.4,0.8-4,0.9
	C135.2,153.9,140.6,135.3,140.5,114.4z M141,61.6c-0.1-4.4-3.6-7.7-8-7.7c-4.6,0-8.1,3.7-8,8.3c0.2,4.3,3.8,7.9,8,7.8
	C137.5,70,141.1,66.1,141,61.6z"/>
<path d="M26.9,121.6c25.6-3.7,44.7,9.4,53.5,35.2c11-26.5,26.5-37.1,52.4-35.9c4.5,19.6-10.3,43.3-31,48.9
	c-12.7,3.4-25.8,3.5-38.6,1.7c-14.7-2.1-25-10.8-30.1-24.7C30.2,138.9,29,130.3,26.9,121.6z"/>
</svg>
