<?xml version="1.0" encoding="utf-8"?>
<!-- Generator: Adobe Illustrator 17.1.0, SVG Export Plug-In . SVG Version: 6.00 Build 0)  -->
<!DOCTYPE svg PUBLIC "-//W3C//DTD SVG 1.1//EN" "http://www.w3.org/Graphics/SVG/1.1/DTD/svg11.dtd">
<svg version="1.1" id="图层_1" xmlns="http://www.w3.org/2000/svg" xmlns:xlink="http://www.w3.org/1999/xlink" x="0px" y="0px"
	 viewBox="0 0 200 200" style="enable-background:new 0 0 200 200;" xml:space="preserve">
<g>
	<g>
		<path d="M74.7,77.8c-4.5-10.5-6.3-20-3.9-29.9c4.4-18.1,15.8-29.7,33.9-33.3c18.3-3.7,33.8,2.4,44.5,17.8
			c10.6,15.2,10.7,31.4,1.5,47.5c-3.8,6.6-4,6.5,3,9.2c6.1,2.3,12.1,4.6,18.1,7c2.7,1.1,4.1,1.4,4.1-2.5c-0.2-13.2-0.1-26.3,0-39.5
			c0-2.6-0.8-3.6-3.4-3.4c-1.6,0.1-3.3-0.1-4.9-0.5c-2.7-0.8-4.1-2.8-4.1-5.6c0-3,1.3-5.4,4.3-6c5.4-1,10.9-1.1,16.3,0.1
			c3.5,0.8,4.3,3.8,4.3,7.1c0,6,0,12,0,18c0,29.8,0,59.6,0,89.5c0,8.9-1.3,10.2-10,10.2c-40.1,0-80.3,0.1-120.4-0.1
			c-4.5,0-6.7,0.4-6.7,6c0,11.3-8.4,19.2-18.8,19C21.8,188.2,14,180,14,168.3c-0.1-45-0.1-90,0-134.9c0-11.5,8-19.8,18.7-19.8
			c10.5,0,18.5,7.9,18.6,19.3c0.1,4.4,1.2,5.8,5.6,5.4c4-0.3,6.9,1.9,6.9,6.2c0.1,4.3-2.9,6.6-6.8,6.3c-5.4-0.5-5.3,2.3-5.7,6.4
			c-0.7,7.2,1.5,11.5,8.5,13.7C64.5,72.4,68.9,75,74.7,77.8z M86,150.5c1,0.3,1.5,0.5,1.9,0.5c28.3,0,56.6,0,84.9,0.1
			c2.8,0,3.3-1.1,3.3-3.5c-0.1-10.8-0.2-21.6,0-32.5c0.1-3.3-1.1-4.6-4.1-5.7c-9.5-3.4-19-7.1-28.4-10.9c-3.1-1.3-4.8-1.2-6.8,1.9
			c-5.2,8.1-10.7,16.1-16.2,24c-3.5,5-7.8,5.2-12,0.7c-0.7-0.8-1-2.1-2.8-2.1C99.4,132,92.8,141.1,86,150.5z M82.2,57.2
			c0.3,4.5,0.9,9.3,3.3,13.6c7.8,13.8,18.2,25.8,27.3,38.8c1,1.5,1.9,1.7,2.9,0.1c8.6-13.3,18.7-25.6,26.1-39.6
			c5.9-11.1,3.1-25.1-5.6-34.3c-8.7-9.1-21.9-12.2-33.5-7.7C90.5,32.6,82.3,44.2,82.2,57.2z M52.3,81c-1.1,2.2-0.8,4.1-0.8,5.9
			c0,16.5,0,33,0,49.5c0,16.4,0,16.4,16.5,14.8c1.7-0.2,2.7-0.9,3.6-2.2c8.5-11.7,16.9-23.5,25.5-35.2c1.2-1.6,1.1-2.7,0-4.4
			c-4.3-6.4-9-12-16.6-15C70.9,90.5,61.7,85.5,52.3,81z M38.6,151.8c0.1-0.6,0.3-1.1,0.3-1.5c0-39.1,0-78.2,0-117.3
			c0-4.1-2-6.7-6.2-6.9c-3.8-0.2-6.2,2.8-6.2,8c0,37.9,0,75.9,0,113.8c0,2.6,0,4.6,3.7,3.4C33,150.4,35.8,151.4,38.6,151.8z
			 M39,169.5c-0.1-3.5-3.2-6.3-6.7-5.9c-3.7,0.4-5.7,2.7-5.6,6.4c0.2,3.7,2.4,5.8,6.1,5.9C36.2,176.1,39.1,173,39,169.5z"/>
		<path d="M114.4,77.2c-10.5-0.1-18.6-8.4-18.4-18.9c0.1-10.3,8.6-18.5,19.1-18.3c10.2,0.2,18.1,8.4,18.1,18.7
			C133.1,69.3,125,77.3,114.4,77.2z M120.8,58.8c0.1-3.3-2.5-6.1-5.8-6.3c-3.5-0.2-6.8,2.5-6.6,5.9c0.2,3.6,2.1,5.9,5.8,6.3
			C117.5,65.2,120.7,62.2,120.8,58.8z"/>
	</g>
</g>
</svg>
