<?xml version="1.0" encoding="utf-8"?>
<!-- Generator: Adobe Illustrator 17.1.0, SVG Export Plug-In . SVG Version: 6.00 Build 0)  -->
<!DOCTYPE svg PUBLIC "-//W3C//DTD SVG 1.1//EN" "http://www.w3.org/Graphics/SVG/1.1/DTD/svg11.dtd">
<svg version="1.1" id="图层_1" xmlns="http://www.w3.org/2000/svg" xmlns:xlink="http://www.w3.org/1999/xlink" x="0px" y="0px"
	 viewBox="0 0 200 200" style="enable-background:new 0 0 200 200;" xml:space="preserve">
<path d="M200,107.9c0,24,0,48,0,72c-4.4,11-12.8,14.2-24.1,14.1c-50.8-0.3-101.5-0.3-152.3,0c-11.2,0.1-19.3-3.4-23.6-14.1
	c0-24,0-48,0-72c4-10.3,11.4-14.2,22.5-14.1c51.3,0.3,102.7,0.3,154,0C187.8,93.6,195.9,97,200,107.9z M45.4,148c0-12.2,0-24,0-35.8
	c-9.4,0-18.1,0-26.8,0c0,21.3,0,42.2,0,63c54.6,0,108.8,0,162.9,0c0-21.3,0-42.2,0-63.1c-6,0-11.6,0-17.7,0c0,6,0,11.7,0,17.6
	c-3.3,0-6,0-9.4,0c0-6,0-11.8,0-17.5c-6.3,0-12.1,0-18.3,0c0,12.1,0,23.9,0,35.8c-3.2,0-5.9,0-9.1,0c0-12.2,0-23.9,0-35.8
	c-6.2,0-11.9,0-18.1,0c0,6,0,11.8,0,17.5c-3.2,0-5.9,0-9.1,0c0-6.1,0-11.9,0-17.4c-6.3,0-12,0-18.1,0c0,6,0,11.6,0,17.4
	c-3.1,0-5.8,0-9.1,0c0-6.1,0-11.8,0-17.4c-6.3,0-12,0-18.3,0c0,12.1,0,23.9,0,35.8C51.2,148,48.6,148,45.4,148z"/>
<path d="M200,66.9c-5.8,0-11.6,0-18,0c0-6.2,0-12,0-18.1c-54.8,0-108.9,0-163.6,0c0,5.8,0,11.5,0,18.1c-6.5,0-12.4,0-18.4,0
	c0-18.3,0-36.7,0-55c5.9,0,11.9,0,18.3,0c0,6.4,0,12.1,0,17.8c54.7,0,108.9,0,163.7,0c0-6.1,0-11.8,0-17.8c6.4,0,12.2,0,18,0
	C200,30.2,200,48.5,200,66.9z"/>
</svg>
