<?xml version="1.0" encoding="utf-8"?>
<!-- Generator: Adobe Illustrator 17.1.0, SVG Export Plug-In . SVG Version: 6.00 Build 0)  -->
<!DOCTYPE svg PUBLIC "-//W3C//DTD SVG 1.1//EN" "http://www.w3.org/Graphics/SVG/1.1/DTD/svg11.dtd">
<svg version="1.1" id="图层_1" xmlns="http://www.w3.org/2000/svg" xmlns:xlink="http://www.w3.org/1999/xlink" x="0px" y="0px"
	 viewBox="0 0 200 200" style="enable-background:new 0 0 200 200;" xml:space="preserve">
<g>
	<g>
		<path d="M2,91c0-3.9,1.7-7.1,4.4-9.7C26.6,61,46.8,40.7,67.1,20.5c6.1-6.1,13.2-6.1,19.4-0.1c6,5.8,11.9,11.7,17.6,17.7
			c2.2,2.3,3.5,2.6,5.9,0.1c5.2-5.6,10.7-10.9,16.2-16.3c6.8-6.7,13.7-6.8,20.5,0c16.5,16.4,33,32.9,49.5,49.5
			c6.5,6.6,6.6,13.6-0.1,20c-7.8,7.4-16.6,14.4-23,22.6c-18.8,24.1-42.5,43.4-63.2,65.6c-9.1,9.8-15.2,9.5-24.7-0.1
			c-25.9-25.9-51.8-51.8-77.7-77.7C4.3,98.8,2,95.5,2,91z M99.1,172.9c-0.5,0.1,0.4,0.1,1.2-0.2c3.2-0.9,5.9-3.2,7.1-5.9
			c0.9-2.2-2.4-3.5-3.9-5.1c-11.2-11.4-22.5-22.8-34-33.9c-3.1-3-1.7-4.6,0.6-6.8c2.3-2.2,3.9-4.2,7.2-0.8
			c10.2,10.6,20.7,20.8,31,31.2c7.7,7.7,7.6,7.6,15.3-0.1c2.5-2.4,2.5-3.8,0-6.3c-10.7-10.5-21.2-21.3-31.9-31.7
			c-3.2-3.1-1.9-4.7,0.5-7.2c2.4-2.4,4-3.9,7.2-0.6c8.9,9.3,18.1,18.2,27.1,27.3c7.8,7.8,7.7,7.7,15.7-0.2c2.5-2.5,2-3.7-0.2-5.9
			c-9.3-9.1-18.3-18.4-27.7-27.5c-2.8-2.8-3.4-4.5-0.2-7.6c3-3,4.8-3.4,8-0.1c9.1,9.5,18.5,18.7,27.9,28c0.9,0.9,1.5,3.1,3.9,1.4
			c6-4.3,7.2-11.1,2-16.3C132.2,80.8,108.4,57,84.6,33.3c-5-5-10.3-4.8-15.4,0.2C52.5,50,35.9,66.6,19.4,83.3
			c-5,5-5.1,10.3-0.1,15.3c23.6,23.7,47.3,47.4,71,71.1C92.3,171.7,94.7,173.2,99.1,172.9z M187.1,81.1c0.3-2.8-1.2-5-3.2-7
			c-13.4-13.5-26.8-26.9-40.3-40.3c-4.7-4.6-9.7-4.4-14.5,0.2c-4.1,3.9-7.9,8.1-12.1,11.9c-2,1.9-2.1,3.1-0.1,5.1
			c16.7,16.5,33.3,33.2,49.9,49.8c1.8,1.8,2.9,2.2,4.7,0.1c4.1-4.4,8.4-8.5,12.7-12.8C186.2,86.4,187.3,84.1,187.1,81.1z"/>
	</g>
</g>
</svg>
