<?xml version="1.0" encoding="utf-8"?>
<!-- Generator: Adobe Illustrator 17.1.0, SVG Export Plug-In . SVG Version: 6.00 Build 0)  -->
<!DOCTYPE svg PUBLIC "-//W3C//DTD SVG 1.1//EN" "http://www.w3.org/Graphics/SVG/1.1/DTD/svg11.dtd">
<svg version="1.1" id="图层_1" xmlns="http://www.w3.org/2000/svg" xmlns:xlink="http://www.w3.org/1999/xlink" x="0px" y="0px"
	 viewBox="0 0 200 200" style="enable-background:new 0 0 200 200;" xml:space="preserve">
<g>
	<g>
		<path d="M100.8,172.2c-29.8,0-59.7,0-89.5,0c-7.2,0-9.1-1.8-9.1-9.2c0-35.8,0-71.7,0-107.5c0-7.4,2.1-9.3,9.6-9.3c2.5,0,5,0,7.5,0
			c2.2,0,4.4,0.2,4.4-3.1c0-1.7,1.6-1.9,2.8-2.4c16.6-6.3,33.5-11,51.5-10.9c7.3,0.1,14.2,1.3,20.7,4.8c1.2,0.6,2.2,1.3,3.6,0.5
			c14.5-8,29.7-5.7,44.8-2.9c9.2,1.7,18.1,4.5,26.8,7.9c1.4,0.5,3.7,1.4,3.7,2.1c0.1,5.8,4.3,3.9,7.1,3.9
			c15.2,0.1,15.2,0.1,15.2,15.3c0,33.3,0,66.7,0,100c0,9.4-1.4,10.7-10.6,10.7C159.8,172.2,130.3,172.2,100.8,172.2z M96.3,133.4
			c0.9-1.9,0.5-3.7,0.5-5.5c0-24.7,0-49.3,0-74c0-12.5-1.4-14.1-14-15.7c-1.5-0.2-3-0.2-4.5-0.2c-14.5-0.3-28.3,3.4-42,7.7
			c-3.3,1.1-4.6,2.6-4.6,6.2c0.2,26.7,0.2,53.3,0,80c0,4.7,0.9,5.5,5.5,4.1C56.6,130.4,76.2,125.5,96.3,133.4z M105,133.7
			c5.1-2,9.6-3.5,14.5-4c15.9-1.5,31.1,2,46.1,6.6c3.4,1,4.3,0.6,4.3-3.1c-0.1-27.3-0.1-54.6,0-81.9c0-3-0.9-4.4-3.7-5.4
			c-10.9-3.5-22-6.6-33.5-7.7c-8.2-0.8-16.3-0.8-24,2.8c-2,0.9-3.7,1.7-3.7,4.6C105,74.8,105,103.9,105,133.7z M101.1,160
			c27.2,0,54.3-0.1,81.5,0.1c3.7,0,4.7-0.9,4.7-4.7c-0.2-30.6-0.2-61.3,0-91.9c0-3.9-1-5-5-5.1c-4.3-0.1-4.3,2-4.3,5.2
			c0.1,27.7,0,55.3,0.1,83c0,3.7-0.7,5.1-4.8,5.1c-48.3-0.1-96.6-0.1-144.9,0c-4.1,0-5-1.3-4.9-5.1c0.1-27.7,0-55.3,0.1-83
			c0-3.3-0.3-5.1-4.5-5.2c-4.4,0-4.3,2.2-4.3,5.3c0.1,30.5,0.1,61-0.1,91.4c0,4.4,1.5,5,5.4,5C47.1,159.9,74.1,160,101.1,160z
			 M94.1,143c-7.3-8.6-38.8-5.2-48.6,0C61.5,143,77.5,143,94.1,143z M108.1,142.8c15.9,0,31.8,0,47.7,0
			C140,138.6,124,133.9,108.1,142.8z"/>
	</g>
</g>
</svg>
