<?xml version="1.0" encoding="utf-8"?>
<!-- Generator: Adobe Illustrator 17.1.0, SVG Export Plug-In . SVG Version: 6.00 Build 0)  -->
<!DOCTYPE svg PUBLIC "-//W3C//DTD SVG 1.1//EN" "http://www.w3.org/Graphics/SVG/1.1/DTD/svg11.dtd">
<svg version="1.1" id="图层_1" xmlns="http://www.w3.org/2000/svg" xmlns:xlink="http://www.w3.org/1999/xlink" x="0px" y="0px"
	 viewBox="0 0 200 200" style="enable-background:new 0 0 200 200;" xml:space="preserve">
<g>
	<g>
		<path d="M27,201c-3.6-3.7-8-6.4-11.3-10.4c-10.7-12.5-11.9-27-3-41c6.7-10.5,16.2-18.1,26.7-24.4c21.2-12.6,44.4-19.3,68.5-23.2
			c8.7-1.4,17.4-2.7,25.7-5.8c20.3-7.7,28.7-23.1,23.9-44.3C153.2,32.6,142.7,16.5,131,1c5.7,0,11.3,0,17,0c1.5,1.6,2.9,3.2,4.4,4.8
			c15.1,15.9,28.4,33.1,36.9,53.5c5.6,13.5,8.4,27.4,3.9,41.8c-5.2,16.7-17.8,26.4-32.6,33.8c-8.3,4.2-16.6,8.5-24.2,13.9
			c-5.3,3.7-10.4,7.8-14.3,13.1c-6.7,9.2-5.7,18.2,2.7,25.7c3.4,3,7.1,5.5,11.2,7.4c4.3,2,8.7,3.9,13.1,5.9
			C108.3,201,67.7,201,27,201z"/>
	</g>
</g>
</svg>
