<?xml version="1.0" encoding="utf-8"?>
<!-- Generator: Adobe Illustrator 17.1.0, SVG Export Plug-In . SVG Version: 6.00 Build 0)  -->
<!DOCTYPE svg PUBLIC "-//W3C//DTD SVG 1.1//EN" "http://www.w3.org/Graphics/SVG/1.1/DTD/svg11.dtd">
<svg version="1.1" id="图层_1" xmlns="http://www.w3.org/2000/svg" xmlns:xlink="http://www.w3.org/1999/xlink" x="0px" y="0px"
	 viewBox="0 0 200 200" style="enable-background:new 0 0 200 200;" xml:space="preserve">
<path d="M66.6,166c0-4.3,0-8.1,0-12.5c-5,0-9.8,0-14.6,0c-7.8,0-10.4-3.1-8.6-10.6c8.5-35.4,16.9-70.9,25.4-106.3
	c1-4.2,1.6-8.6,3.2-12.5c0.8-2,3.5-4.1,5.5-4.3c1.4-0.1,3.9,2.8,4.4,4.7c4.3,17.6,8.4,35.3,12.3,53c0.4,1.6,0,4.1-1,5.3
	c-19.2,22.9-17.4,48.5,4.8,68.4c0.5,0.4,0.9,0.9,2,2.1c-4.3,0-7.9,0-11.8,0c0,4.4,0,8.3,0,12.5c9.2,0,18.2,0,27.8,0
	c0-5.2,0.2-10.2-0.2-15.1c-0.1-1.3-1.9-2.8-3.2-3.5c-13.8-6.9-20.7-19-19.7-35.1c0.8-13.1,10.6-25.6,23.7-30
	c16.6-5.6,34.5,2.1,41.8,18c7.8,16.8,2.2,36.1-14,44.9c-5.7,3.1-7.4,6.5-6.7,12.3c0.4,2.6,0.1,5.3,0.1,8.7c4.5,0,8.7,0,13,0
	c8.3,0,16.7,0,25,0c5.7,0,8.2,1.7,8.3,5.7c0.1,4.2-2.4,6.2-8.4,6.2c-36,0-72,0-108,0c-14,0-28,0-42,0c-3.3,0-6.5-0.4-7.7-4.1
	c-1.4-4.2,1.4-7.7,6.4-7.7c12.2-0.1,24.3,0,36.5,0C62.8,166,64.6,166,66.6,166z"/>
</svg>
