<?xml version="1.0" encoding="utf-8"?>
<!-- Generator: Adobe Illustrator 17.1.0, SVG Export Plug-In . SVG Version: 6.00 Build 0)  -->
<!DOCTYPE svg PUBLIC "-//W3C//DTD SVG 1.1//EN" "http://www.w3.org/Graphics/SVG/1.1/DTD/svg11.dtd">
<svg version="1.1" id="图层_1" xmlns="http://www.w3.org/2000/svg" xmlns:xlink="http://www.w3.org/1999/xlink" x="0px" y="0px"
	 viewBox="0 0 200 200" style="enable-background:new 0 0 200 200;" xml:space="preserve">
<g>
	<path d="M78.3,3.4c10.9,3.3,21.8,6.6,32.7,10c7.4,2.3,14.8,5,22,8.1c3.8,1.6,5.7,4.3,6.2,8.3c0.8,7.5,0.6,15,0.7,22.4
		c0,2.5-1.1,3-3.4,3c-22.8-0.1-45.6-0.1-68.4,0c-3,0-3.6-1.1-3.6-3.8c0.1-11.7,0.1-23.3,0-35c0-2,0.7-3.5,1.8-5c2.4-3,5.1-5.6,8-8.1
		c0.7-0.6,1-0.8,1.7-0.8C76.6,2.6,77.2,3,78.3,3.4z M132.1,25.5c-8.4,4.2-16.8,3.8-25.3,1.1c-8.9-2.8-17.6-6-26.3-9.4
		c-0.5-0.2-0.9-0.5-1.4-0.6c-0.5-0.1-1.2-0.6-1.5,0.8c12.6,6.2,25.2,12.8,39.5,14.2C123,32.2,128.4,30.7,132.1,25.5z"/>
	<path d="M155.8,135.2c1.3-0.1,2.7,0.1,4,0c3.5-0.4,4.6,1.2,4.6,4.7c-0.1,17.7-0.2,35.3,0,53c0,4.1-1.5,5.2-5.2,5.1
		c-19.8-0.1-39.6-0.1-59.4-0.1c-19.3,0-38.6-0.2-57.9,0.1c-4.9,0.1-6.1-1.6-6.1-6.3c0.3-16.8,0.3-33.6,0-50.5
		c-0.1-4.8,1.2-6.3,6.1-6c2.5,0.1,2,0,4.5,0L155.8,135.2z M47.2,133.8c-0.3-21.8,0-47.6-0.3-69.4c-0.1-4.6,1.6-5.6,5.7-5.6
		c31.8,0.1,63.6,0.1,95.4,0c4.1,0,5.8,0.9,5.8,5.5c-0.3,22.8-0.1,45.6-0.3,68.4c0,0.4,0,0.8,0,1.1L47.2,133.8z M49.4,166.9
		c0,7.3,0.2,14.6-0.1,21.9c-0.1,3.9,1.5,4.9,5,4.8c3.2-0.1,5.9,0.1,5.8-4.5c-0.2-14.8-0.2-29.6,0-44.4c0.1-4.3-2.1-4.8-5.6-4.9
		c-3.8-0.1-5.4,1.1-5.2,5.1C49.6,152.3,49.4,159.6,49.4,166.9z"/>
</g>
</svg>
