<?xml version="1.0" encoding="utf-8"?>
<!-- Generator: Adobe Illustrator 17.1.0, SVG Export Plug-In . SVG Version: 6.00 Build 0)  -->
<!DOCTYPE svg PUBLIC "-//W3C//DTD SVG 1.1//EN" "http://www.w3.org/Graphics/SVG/1.1/DTD/svg11.dtd">
<svg version="1.1" id="图层_1" xmlns="http://www.w3.org/2000/svg" xmlns:xlink="http://www.w3.org/1999/xlink" x="0px" y="0px"
	 viewBox="0 0 200 200" style="enable-background:new 0 0 200 200;" xml:space="preserve">
<g>
	<g>
		<path d="M56.3,183.9c-10.5,0-21,0-31.5,0c-6.2,0-7.2-1.6-7.9-7.5c-1.1-8.6,1.7-13.9,10.2-16.4c4.1-1.2,7.8-3.7,11.7-5.5
			c2.1-0.9,2.4-2.1,0.9-3.7c-8-9.1-5.3-20-3.8-30c1.7-10.9,12.2-16.8,23.9-15.6c9.7,1.1,17.4,9.3,18.2,19.5
			c0.7,9.2,0.7,9.2,10.1,9.2c8.3,0,16.7,0,25,0c8,0,8,0,8.1-7.8c0.1-9.6,5.8-17.2,15-20.1c13.9-4.4,27.6,5.3,28,19.8
			c0.1,3.3-0.2,6.7,0.1,10c0.3,5.3-0.3,10.3-4.1,14.4c-2,2.1-1.6,3.6,1.1,4.9c5.3,2.5,10.4,5.3,15.7,7.7c3.3,1.5,4.7,3.8,4.8,7.4
			c0.4,13.3,0,13.8-13.2,13.8c-19,0-38,0-57,0c-7,0-7.9-1.5-8.6-8.5c-0.8-7.9,1.8-12.6,9.4-15.1c4.4-1.5,8.4-4,12.6-5.9
			c2.1-0.9,2.2-1.8,1-3.7c-2.7-4.4-5.6-7-11.5-6.6c-11,0.6-22,0.2-33,0.2c-2.9,0-8.7,5.4-8.9,8.1c-0.1,1.9,1.6,2,2.6,2.5
			c5.2,2.7,10.4,5.2,15.6,7.9c4.9,2.5,6.9,15.6,3,19.5c-1.7,1.7-3.8,1.7-6.1,1.7C77.3,183.8,66.8,183.9,56.3,183.9z M170.9,172.9
			c-0.8-2.6-2.7-2.8-4.1-3.5c-5.5-2.8-11-5.5-16.5-8.3c-6.3-3.2-7.4-5.9-2.7-11.1c6.5-7.2,6.8-15.5,6.1-24.2
			c-0.4-6-4.9-10.1-10.8-10.3c-6.1-0.1-10.8,4.1-11.2,10.3c-0.6,8.7-0.5,17,6.3,24.1c5,5.3,3.7,8.1-3,11.3c-6.3,3.1-12.6,6-18.8,9.1
			c-0.9,0.4-2.5,0.5-1.8,2.5C133,172.9,151.7,172.9,170.9,172.9z M84.8,172.7c-0.7-2-2.1-2.3-3.3-2.9c-6.2-3.2-12.5-6.2-18.7-9.4
			c-4.2-2.2-4.9-4.9-2.5-9c0.8-1.3,1.5-2.6,2.6-3.7c6.7-7.1,5.5-15.6,4.3-24c-0.7-5.4-5.8-8.6-11.3-8.3c-5.7,0.4-9.7,4.2-10.1,9.7
			c-0.7,9.1-0.8,18,6.6,24.9c0.4,0.3,0.6,0.8,0.8,1.2c2.5,4.1,1.8,6.8-2.5,9c-4.9,2.5-9.9,4.6-14.8,7.2c-2.7,1.4-5.9,2-8.6,5.2
			C46.9,172.7,65.6,172.7,84.8,172.7z"/>
		<path d="M100.5,18c24.3,0,48.6,0,73,0c10.4,0,14.2,3.8,14.2,14.1c0,32.7,0,65.3,0,98c0,5.7-1.1,10.6-7,13.1
			c-4.2,1.7-5.8,1-5.2-3.5c3.2-22.8,0.9-45.7,1.5-68.6c0.3-12.7-0.1-25.3,0.1-38c0.1-3.8-1.3-4.9-4.9-4.9
			c-47.8,0.1-95.6,0.1-143.4,0c-3.5,0-4.9,1-4.9,4.9C24,65,24,97,24,129c0,4.1,2.4,7.8,1.8,12.1c-0.3,2.5-1.3,3.3-3.5,2.7
			c-4.1-1.1-7.4-3.2-8.3-7.7c-0.4-2.1-0.6-4.3-0.6-6.4c0-32.3,0-64.6,0-97C13.4,21.7,17,18,28,18C52.1,18,76.3,18,100.5,18z"/>
		<path d="M98.5,62.2c-11.5,0-22.9,0-34.4,0c-3.6,0-6.9-0.4-7-5c-0.1-4.6,3.2-5.3,6.8-5.3c23.4,0,46.9,0,70.3,0
			c3.6,0,6.9,0.8,6.8,5.4c-0.1,4.6-3.4,5-7,5C122.1,62.2,110.3,62.2,98.5,62.2z"/>
		<path d="M81.3,90.8c-6,0-12,0-18,0c-3.6,0-6.3-1.3-6.3-5.4c0-3.9,2.6-5.2,6-5.2c12.2-0.1,24.3-0.1,36.5,0c3.4,0,6.1,1.7,6.1,5.2
			c0,3.8-2.6,5.5-6.3,5.5C93.3,90.8,87.3,90.8,81.3,90.8z"/>
	</g>
</g>
</svg>
