<?xml version="1.0" encoding="utf-8"?>
<!-- Generator: Adobe Illustrator 17.1.0, SVG Export Plug-In . SVG Version: 6.00 Build 0)  -->
<!DOCTYPE svg PUBLIC "-//W3C//DTD SVG 1.1//EN" "http://www.w3.org/Graphics/SVG/1.1/DTD/svg11.dtd">
<svg version="1.1" id="图层_1" xmlns="http://www.w3.org/2000/svg" xmlns:xlink="http://www.w3.org/1999/xlink" x="0px" y="0px"
	 viewBox="0 0 200 200" style="enable-background:new 0 0 200 200;" xml:space="preserve">
<path d="M93.5,132c0-13.2-0.1-26.3,0.1-39.5c0-3.3-0.7-4.9-4.1-6.1C78,82.2,71.1,71.9,71.1,59.8c0-11.8,6.9-22.1,18-26.3
	c3.1-1.2,4.5-2.4,4.5-5.9c0-5.3,2.4-7.8,6.5-7.6c5.1,0.2,6.5,3.8,6.3,7.9c-0.1,3.5,1.3,4.8,4.3,6.2c10.9,4.9,16.8,13.6,17,25.4
	c0.2,12.1-5.6,21.1-16.6,26.1c-3.8,1.7-4.6,3.8-4.5,7.5c0.1,25.5,0.1,51,0.1,76.4c0,7.7-2,10.9-6.6,10.9c-4.6,0-6.5-3.3-6.5-10.9
	C93.5,156.9,93.5,144.4,93.5,132z M111.2,59.6c-0.1-6.6-5.6-12-12.2-11.8c-6.5,0.2-11.5,5.5-11.5,12c0,6.8,5.3,12.2,11.9,12.1
	C106.1,71.8,111.3,66.4,111.2,59.6z"/>
<path d="M48.9,56.5c0,9.5,0.1,19-0.1,28.5c-0.1,3.1,0.8,4.7,3.8,5.9c11.8,4.7,18.3,14.5,18.2,26.6c0,11.7-6.8,21.7-18.2,26.1
	c-3,1.2-4,2.7-3.9,5.8c0.2,6.2,0.1,12.3,0.1,18.5c0,9.1-1.4,11.8-6.2,11.9c-4.9,0.1-6.4-2.8-6.5-11.7c0-6.3-0.1-12.7,0-19
	c0.1-2.8-0.6-4.4-3.5-5.5c-11.4-4.3-18.4-14.5-18.5-25.9c-0.1-12,6.5-22.3,18-26.8c3.2-1.3,4.1-2.9,4.1-6.1
	c-0.2-18.5-0.1-37-0.1-55.5c0-1.2-0.1-2.3,0-3.5c0.3-3.9,2.6-6.3,6.4-6.2c3.8,0.1,6.1,2.4,6.2,6.4C48.9,36.2,48.9,46.4,48.9,56.5z
	 M42.5,129.2c6.8,0,12-5.2,11.9-11.9c0-6.7-4.9-11.6-11.5-11.8c-6.9-0.1-12.1,4.8-12.1,11.6C30.7,124,35.7,129.1,42.5,129.2z"/>
<path d="M163.8,68.1c0,13.3,0.1,26.7-0.1,40c0,3.1,0.7,4.6,3.8,5.8c11.3,4.3,18.2,14.5,18.3,26.1c0.1,11.9-6.8,22.2-18.3,26.6
	c-3.1,1.2-3.9,2.8-3.8,5.8c0.1,5-2.5,7.9-6.3,7.9c-3.9,0-6.3-2.9-6.1-8c0.1-3.2-1-4.6-4-5.7c-11.4-4.5-18.1-14.4-18.1-26.2
	c0-11.9,6.5-21.9,17.9-26.3c3.6-1.4,4.2-3.3,4.2-6.6c-0.1-26.3-0.1-52.7,0.1-79c0-2.4,0.9-5.4,2.5-7c1.2-1.2,4.9-1.6,6.3-0.7
	c1.8,1.2,3.5,4.1,3.6,6.4C163.9,40.7,163.8,54.4,163.8,68.1z M157.3,152.2c6.8,0,11.9-5.1,11.9-11.9c0-6.5-5-11.8-11.5-11.9
	c-6.7-0.2-12.1,5-12.2,11.7C145.5,146.8,150.6,152.1,157.3,152.2z"/>
</svg>
