<?xml version="1.0" encoding="utf-8"?>
<!-- Generator: Adobe Illustrator 17.1.0, SVG Export Plug-In . SVG Version: 6.00 Build 0)  -->
<!DOCTYPE svg PUBLIC "-//W3C//DTD SVG 1.1//EN" "http://www.w3.org/Graphics/SVG/1.1/DTD/svg11.dtd">
<svg version="1.1" id="图层_1" xmlns="http://www.w3.org/2000/svg" xmlns:xlink="http://www.w3.org/1999/xlink" x="0px" y="0px"
	 viewBox="0 0 200 200" style="enable-background:new 0 0 200 200;" xml:space="preserve">
<g>
	<path d="M187.3,183.5c-18.7,0-37,0-55.7,0c0-4,0-7.8,0-12.1c13.5,0,26.9,0,41.1,0c-2.3-5.1-6-8.1-10.4-9.2
		c-6.5-1.7-13.3-3.3-20-3.3c-41.2-0.3-82.3-0.1-123.5-0.1c-2,0-3.9,0-5.8,0c-2.7-14.6,6.8-29.3,22.6-34.2c6.6-2,13.7-3.1,20.6-3.2
		c33-0.3,66-0.1,99-0.1c1.8,0,3.6,0,6.5,0c-3.2-13.5-5.7-26.8-9.6-39.5c-4.4-14.2-10-28.1-15.5-42c-1.8-4.5-4.8-10.4-10.2-9.6
		c-3.6,0.6-7.8,5.4-9.4,9.2c-6.4,14.9-12,30.2-17.7,45.5c-4,10.9-7.5,22-11.7,34.4c-2-7.1-3.2-13.1-5.5-18.7
		c-4.4-10.9-8.5-22.1-14.4-32.2c-7.5-12.8-14.4-12.7-21.8,0c-5.4,9.3-9.1,19.6-13.5,29.4c-0.4,0.9-0.7,1.8-1.3,3.2
		c-3.8-1.5-7.5-2.8-11.6-4.4C25,80.9,29.8,65.7,41.2,53.7c9.6-10.1,21-10.4,30.5-0.2c4.9,5.3,8.5,11.9,12.5,17.9
		c1.3,1.9,2.1,4.1,3.6,7c3-8.6,5.2-16.7,8.6-24.3c4.3-9.7,8.6-19.6,14.6-28.2c8.8-12.5,21.2-12.5,30.7-0.4
		c4.8,6.1,8.7,13.1,11.8,20.2c12.1,27.8,17.6,57.4,22.7,88c-2.4,0-4.3,0-6.2,0c-37.5,0-75-0.1-112.5,0.1c-5.9,0-12.1,0.8-17.6,2.6
		c-4.6,1.5-8.6,5.1-12.8,7.7c0.2,0.7,0.5,1.3,0.7,2c1.7,0,3.4,0,5.1,0c37,0,74,0,111,0c9.4,0,18.7,1.3,27,6.1
		C182.5,159,188.3,169.1,187.3,183.5z"/>
</g>
</svg>
