<?xml version="1.0" encoding="utf-8"?>
<!-- Generator: Adobe Illustrator 17.1.0, SVG Export Plug-In . SVG Version: 6.00 Build 0)  -->
<!DOCTYPE svg PUBLIC "-//W3C//DTD SVG 1.1//EN" "http://www.w3.org/Graphics/SVG/1.1/DTD/svg11.dtd">
<svg version="1.1" id="图层_1" xmlns="http://www.w3.org/2000/svg" xmlns:xlink="http://www.w3.org/1999/xlink" x="0px" y="0px"
	 viewBox="0 0 200 200" style="enable-background:new 0 0 200 200;" xml:space="preserve">
<g>
	<g>
		<path d="M137.2,134.3c10-0.1,21.3-5.2,31.6-13.2c1-0.8,2.1-1.7,3.1-2.6c2.6-2.3,5.5-2.7,8-0.2c2.8,2.8,2.1,5.8-0.5,8.3
			c-7.4,6.9-16,12-25.5,15.3c-18.8,6.5-36.8,4-53.7-5.9c-9-5.2-18-10.2-28.3-12c-15.2-2.7-29.1,0.7-41.7,9.6c-3,2.1-6.1,2.3-8.3-0.8
			c-2.2-3.1-1-6,1.9-8.2c1.3-1,2.7-2,4.1-2.8c5.1-3.1,10.6-5.8,16.4-7c4-0.9,4.6-2.5,3.7-6.4c-6.8-30.5,11.2-60.1,41.5-67.5
			c22-5.4,41.1,1,55.8,18.1c14.3,16.6,17.2,35.8,10.3,56.6c-0.7,2.2-1.6,3.4-4.2,2.6c-3.7-1.1-8.6-0.6-10.9-2.8
			c-2.4-2.5,1.5-6.4,2.3-9.8c4.3-17.1-2.5-35.2-17.2-45.1c-14.2-9.6-33-9.2-46.8,0.9C64.4,71.7,58.2,90.2,63.2,107
			c1,3.3,2.4,5.2,6.3,5.6c12.5,1.2,23.7,6.3,34.3,12.8C113,131.1,122.9,134.6,137.2,134.3z"/>
		<path d="M133.5,187c-12.8-0.3-24.2-3.9-34.6-10.2c-9-5.5-18.4-10.2-28.9-11.7c-14.1-2-27.1,1.1-38.9,9.1c-1.8,1.2-3.5,2.8-5.9,2.2
			c-2-0.5-3.7-1.6-4.2-3.8c-0.6-2.8,0.3-4.9,2.5-6.6c9-6.7,19.2-10.6,30.3-12.1c16.4-2.2,31.4,2.1,45.4,10.2
			c8.1,4.7,16.2,9.3,25.6,10.8c17.2,2.9,31.8-3,45-13.4c0.9-0.7,1.7-1.6,2.7-2.3c2.6-1.9,5.3-2,7.6,0.5c2.2,2.5,2,5.3-0.3,7.6
			c-5.4,5.6-11.9,9.5-18.9,12.9C152.1,184.7,142.8,186.8,133.5,187z"/>
		<path d="M134.7,166c-13.8-0.1-25.4-3.9-36.1-10.4c-9.9-6-20.2-10.9-31.9-11.9c-12.9-1.1-24.7,2.1-35.4,9.4c-3.4,2.3-6.7,4-9.5-0.1
			c-2.7-3.9-0.3-6.9,3.1-9.1c21.8-14.2,44.4-15.1,67.8-4.2c3.9,1.8,7.6,4.1,11.4,6.2c22.9,13.3,45.8,11.4,66.1-5.6
			c1-0.9,2-1.8,3.1-2.5c2.5-1.5,4.9-1.1,6.8,1c1.8,1.9,2,4.2,0.6,6.4c-0.6,1-1.4,1.9-2.3,2.6C165.5,159,150.8,165.5,134.7,166z"/>
		<path d="M31.4,88.6c1.8,0,3.6-0.1,5.5,0c3.8,0.2,5.7,2.6,6,6.1c0.3,3.6-1.7,6.3-5.2,6.8c-4.1,0.5-8.3,0.5-12.4,0
			c-3.5-0.4-5.4-3.1-5.2-6.7c0.2-3.6,2.1-5.9,5.9-6.1C27.7,88.5,29.6,88.6,31.4,88.6z"/>
		<path d="M174,101.6c-2,0-4,0.3-5.9-0.1c-3.6-0.6-5.3-3.1-5.2-6.7c0.1-3.7,2-5.9,5.8-6.1c3.6-0.2,7.3-0.1,10.9,0
			c3.8,0.1,5.8,2.5,6,6c0.3,3.8-1.7,6.4-5.6,7C178,101.9,176,101.7,174,101.6C174,101.7,174,101.6,174,101.6z"/>
		<path d="M58.8,50.4c0,3-1,4.9-3,6.1c-2.3,1.3-4.9,1.3-7-0.5c-2.8-2.5-5.6-5.1-8.1-8c-2.2-2.6-2.1-5.6,0.4-8c2.4-2.4,5.5-2.8,8-0.4
			C52.8,42.9,57.5,45.7,58.8,50.4z"/>
		<path d="M152.6,56.4c-4.7-0.2-7.7-5.5-4.7-9.4c2.6-3.4,5.7-6.5,9.1-9.1c3.6-2.7,8.8,0.3,9,4.8C166.3,47,156.9,56.5,152.6,56.4z"/>
		<path d="M108.1,24.8c0,1.8,0.2,3.7,0,5.5c-0.4,3.4-2.5,5.5-6,5.4c-3.4,0-5.7-1.8-6-5.3c-0.3-3.5-0.1-6.9-0.1-10.4
			c0-4,2.3-6.4,6.1-6.4c3.8-0.1,6,2.4,6.1,6.4C108.1,21.5,108.1,23.2,108.1,24.8C108.1,24.8,108.1,24.8,108.1,24.8z"/>
	</g>
</g>
</svg>
