<?xml version="1.0" encoding="utf-8"?>
<!-- Generator: Adobe Illustrator 17.1.0, SVG Export Plug-In . SVG Version: 6.00 Build 0)  -->
<!DOCTYPE svg PUBLIC "-//W3C//DTD SVG 1.1//EN" "http://www.w3.org/Graphics/SVG/1.1/DTD/svg11.dtd">
<svg version="1.1" id="图层_1" xmlns="http://www.w3.org/2000/svg" xmlns:xlink="http://www.w3.org/1999/xlink" x="0px" y="0px"
	 viewBox="0 0 200 200" style="enable-background:new 0 0 200 200;" xml:space="preserve">
<g>
	<g>
		<path d="M101.4,7.4c3.3,1.8,4.6,4.4,4.5,8.2c-0.2,8.1-0.1,16.1-0.1,24.5c-3.7,0-7.1,0-11.4,0c0-8,0.1-16.2,0-24.3
			c-0.1-3.7,1-6.5,4.2-8.5C99.5,7.4,100.5,7.4,101.4,7.4z"/>
		<path d="M156.6,180.5c4.2,0,7.9-0.1,11.5,0c4.7,0.2,7.1,2.3,7.1,6.1c-0.1,3.7-2.5,5.7-7.3,5.7c-45.1,0-90.1,0-135.2,0
			c-5,0-7.7-2.2-7.7-5.9c0-3.7,2.8-5.8,7.8-5.9c3.4-0.1,6.7,0,10.9,0c0-1.8,0-3.4,0-5c0-21.8-0.1-43.5,0-65.3
			C43.7,83.8,58.7,62.7,83,54.7c32.1-10.5,67,10.6,72.4,43.8c0.8,4.7,1.1,9.4,1.1,14.2C156.7,135.1,156.6,157.5,156.6,180.5z
			 M145.1,180.3c0.1-1.1,0.3-1.9,0.3-2.8c0-20.9,0.5-41.7-0.2-62.6c-0.3-7.9-2.1-16.3-5.5-23.4c-8.5-17.8-29.2-27.1-48.7-23
			C71.1,72.6,56.1,89,55.4,109.3c-0.8,23-0.3,46-0.4,69c0,0.6,0.2,1.2,0.3,2C85.2,180.3,115,180.3,145.1,180.3z"/>
		<path d="M151.4,63.9c-2-1.9-4.5-4.4-7.5-7.2c6.3-6.4,12.4-12.8,18.8-18.8c2.3-2.2,5.3-1.8,7.4,0.6c2.4,2.7,2.1,5.9-0.3,8.3
			C163.8,52.5,157.7,58.1,151.4,63.9z"/>
		<path d="M167.6,114.5c-0.1-2.8-0.1-6.9-0.2-11c9,0,17.8-0.3,26.6,0c3.1,0.1,5,2.4,4.8,5.6c-0.2,3.6-2.6,5.6-6.1,5.6
			C184.4,114.6,176.2,114.8,167.6,114.5z"/>
		<path d="M58,54.6c-3.7,3.7-6.2,6.3-8.1,8.1C43.5,56.8,37,51,30.9,44.9c-2.5-2.5-2.2-5.7,0.5-8.2c2.6-2.3,5.3-1.7,7.8,0.6
			C45.4,43.1,51.7,48.9,58,54.6z"/>
		<path d="M33.8,103.4c0,5.2,0,8.9,0,11.5c-8.7,0.3-17.4-0.1-26.1-0.1c-3.5,0-5.6-2.5-5.4-6.1c0.2-3.5,2.6-5,5.9-5.1
			C16.7,103.2,25.3,103.7,33.8,103.4z"/>
		<path d="M106.7,122.6c-6.4,0-11.5,0.1-16.7-0.1c-2.6-0.1-5.2-0.6-7.6-1.3c-4.5-1.4-5.6-5.3-2.5-8.9c2.7-3.2,5.7-6,8.5-9
			c3.8-4.2,7.4-8.5,11.3-12.5c3.5-3.6,6.5-4,9.1-1.5c2.5,2.4,2.6,6.8-0.5,9.9c-3.5,3.6-7.5,6.7-11.2,10c0.4,0.6,0.7,1.2,1.1,1.9
			c5.1,0,10.2,0,15.3,0c3.4,0,7.4-0.3,8.5,3.7c1.1,3.9,1.4,8.1-2.1,11.5c-6.7,6.7-13.2,13.6-19.9,20.4c-3.4,3.5-6.6,3.9-9.3,1.6
			c-2.9-2.5-2.7-6,0.6-9.7c2.4-2.6,4.9-5,7.4-7.6C101.1,128.5,103.4,126,106.7,122.6z"/>
	</g>
</g>
</svg>
