<?xml version="1.0" encoding="utf-8"?>
<!-- Generator: Adobe Illustrator 17.1.0, SVG Export Plug-In . SVG Version: 6.00 Build 0)  -->
<!DOCTYPE svg PUBLIC "-//W3C//DTD SVG 1.1//EN" "http://www.w3.org/Graphics/SVG/1.1/DTD/svg11.dtd">
<svg version="1.1" id="图层_1" xmlns="http://www.w3.org/2000/svg" xmlns:xlink="http://www.w3.org/1999/xlink" x="0px" y="0px"
	 viewBox="0 0 200 200" style="enable-background:new 0 0 200 200;" xml:space="preserve">
<g>
	<g>
		<path d="M26.8,88.1c19-4.5,36.9-2.1,53.9,5.2c16.5,7.1,32.5,7.1,48.8-0.2c3.9-1.8,7.6-1.8,10,2.3c2,3.4,0.4,7.6-3.7,9.4
			c-17.9,7.6-36,10.4-54.7,2.6c-11.1-4.6-22.5-8.2-34.8-8.2c-7.5,0-14.9,1.1-22.1,3.6c-7.3,2.6-11.3-0.2-11.2-8
			c0.3-20,6.7-37.9,19.4-53.4C75.3-11.4,158.3,2,182.5,65.4c2.3,6,1.5,9.3-2.7,10.9c-4.3,1.7-7.3-0.4-9.8-6.5
			c-10.8-26.8-30.5-42.7-58.9-47.4C72.3,16.1,33.6,44.2,27.2,83C27,84.4,27,85.9,26.8,88.1z"/>
		<path d="M46,116c11.3,0,22.4,1.9,32.6,6.6c17.6,8.1,34.6,7.2,52-0.6c14.3-6.3,29.3-7.1,44.4-3c1.3,0.3,2.6,0.7,3.8,1.3
			c3,1.7,4.9,4,3.5,7.8c-1.3,3.5-4,5.3-7.4,4.1c-16.2-5.5-31.4-2.1-46.5,4.2c-16.4,6.8-32.9,6.9-49.5-0.1
			c-14.5-6.1-29.5-9.5-45.3-6.3c-3.1,0.6-6.1,1.5-9.1,2.5c-5,1.6-8.6,0.5-9.9-3.5c-1.2-3.6,0.8-6.9,5.5-8.6
			C28.4,117.3,37.1,116,46,116z"/>
		<path d="M101.5,172.4c-13.2,0.5-25-4.8-36.9-9.4c-3.2-1.2-4.3-4.2-3.3-7.5c1-3.5,3.7-5.3,7.3-4.5c3.1,0.6,6.1,1.7,9,3
			c15.7,7.1,31.3,6.5,46.8-0.3c2-0.9,3.9-1.9,6.2-1.3c3,0.8,5.1,2.6,5.3,5.8c0.3,3.4-1.5,5.7-4.6,6.9
			C121.7,169.1,111.9,172.1,101.5,172.4z"/>
		<path d="M182.8,101.3c-3.8-0.1-6.9-3.4-6.7-7.1c0.2-3.5,3.3-6.4,7-6.4c3.7,0.1,6.7,3.1,6.7,6.6
			C189.8,98.3,186.7,101.4,182.8,101.3z"/>
	</g>
</g>
</svg>
