<?xml version="1.0" encoding="utf-8"?>
<!-- Generator: Adobe Illustrator 17.1.0, SVG Export Plug-In . SVG Version: 6.00 Build 0)  -->
<!DOCTYPE svg PUBLIC "-//W3C//DTD SVG 1.1//EN" "http://www.w3.org/Graphics/SVG/1.1/DTD/svg11.dtd">
<svg version="1.1" id="图层_1" xmlns="http://www.w3.org/2000/svg" xmlns:xlink="http://www.w3.org/1999/xlink" x="0px" y="0px"
	 viewBox="0 0 200 200" style="enable-background:new 0 0 200 200;" xml:space="preserve">
<g>
	<g>
		<path d="M1,184C1,128.3,1,72.7,1,17C4,9.3,9.4,4,17,1c55.7,0,111.3,0,167,0c7.5,2.8,13.2,7.3,15.6,15.3c0.7,2.2-0.2,4.7,1.4,6.7
			c0,52,0,104,0,156c-1.3,10.7-6.6,18.4-17,22c-53.7,0-107.3,0-161,0C12.3,199.7,4.6,194.4,1,184z M14.8,100c0,25.2,0,50.3,0,75.5
			c0,9.2,2.1,11.3,11.6,11.3c31.2,0,62.3,0,93.5,0c19.2,0,38.3,0,57.5,0c7.2,0,9.8-2.7,9.8-9.6c0-51.2,0-102.3,0-153.5
			c0-6.5-2.5-8.8-9.2-8.9c-7.5-0.1-15-0.3-22.5-0.3c-43.3-0.2-86.6-0.4-130-0.5c-8.5,0-10.7,2.2-10.7,10.5
			C14.8,49.7,14.8,74.9,14.8,100z"/>
		<path d="M156.2,74.5c-7.2,8-13.4,14.8-19.6,21.7c-9.6,10.6-19.2,21.2-28.7,31.9c-2.2,2.5-3.4,2.6-5.8,0.2
			c-9.7-9.8-19.7-19.4-29.4-29.2c-2.7-2.8-4.3-3.3-7.2,0.1c-7.9,9.3-16.1,18.2-24.4,27.1c-3.9,4.2-8.5,3.5-11.1-1
			c-2-3.5-0.2-6.1,2-8.5c7.4-8.3,15-16.5,22.5-24.8c3.4-3.7,7-7.2,10-11.1c2.6-3.4,4.3-2.6,6.9-0.1c10.4,9.8,21.1,19.4,31.5,29.2
			c2.5,2.4,3.9,2.9,6.5-0.2c13-14.9,26.3-29.5,40-44.9c-6.1-1-11.5-0.3-16.8-0.5c-2.5-0.1-5,0.1-7.5-0.1c-3.8-0.4-6.2-2.6-6.2-6.5
			c0-4.1,2.3-6.7,6.4-6.8c5.8-0.3,11.7-0.1,17.5-0.1c7,0,14,0.1,21,0c4.1-0.1,6.1,1.4,6.1,5.8c-0.1,14.3,0,28.6-0.1,43
			c0,5.1-2.8,8-7,7.9c-4-0.1-6.5-3-6.6-7.8C156.1,91.8,156.2,84,156.2,74.5z"/>
		<path d="M100.5,136.2c20.6,0,41.3,0,61.9,0c2.9,0,5.7,0.1,7.7,2.7c3.2,4,1.2,9.7-3.9,10.9c-1.6,0.4-3.3,0.3-5,0.3
			c-40.6,0-81.2,0-121.9,0c-0.8,0-1.7,0-2.5,0c-4.6-0.3-7.7-3-7.8-6.8c-0.1-4,3.2-7,8-7C58.2,136.1,79.4,136.2,100.5,136.2z"/>
	</g>
</g>
</svg>
