<?xml version="1.0" encoding="utf-8"?>
<!-- Generator: Adobe Illustrator 17.1.0, SVG Export Plug-In . SVG Version: 6.00 Build 0)  -->
<!DOCTYPE svg PUBLIC "-//W3C//DTD SVG 1.1//EN" "http://www.w3.org/Graphics/SVG/1.1/DTD/svg11.dtd">
<svg version="1.1" id="图层_1" xmlns="http://www.w3.org/2000/svg" xmlns:xlink="http://www.w3.org/1999/xlink" x="0px" y="0px"
	 viewBox="0 0 200 200" style="enable-background:new 0 0 200 200;" xml:space="preserve">
<g>
	<g>
		<path d="M201,122c-2.2,2.2-4.1,5.1-7.9,3.6c-3.9-1.6-3.9-5-3.9-8.4c0-11.2,0-22.3,0-33.5c-0.1-28-22.6-50.3-50.7-50.2
			C110.6,33.6,88,56.2,87.8,84c0,6,0.4,12-0.6,17.9c-2,11.3-12,19.8-23.6,19.9c-11.8,0.1-22-8.5-23.8-20.1c-0.4-2.5-0.6-5-0.6-7.4
			c0-22.7,0-45.3,0-68c0-1-0.1-2,0.1-3c0.4-3.4,2.2-5.6,5.9-5.5c3.6,0.1,5.6,2.2,5.8,5.6c0.3,4.6,0.1,9.3,0.1,14c0,19.7,0,39.3,0,59
			c0,8.5,5.2,14.5,12.4,14.5c7.2,0,12.7-6,12.5-14.4c-0.2-13.6,0.1-26.9,6.4-39.5c12.1-23.9,38.1-38.4,63.2-34.9
			c27.9,3.9,49.2,24,54.4,51.2c0.2,0.9-0.1,2,1,2.6C201,91.3,201,106.7,201,122z"/>
		<path d="M1,21c2.2-2.7,5-4.1,8.3-2.7c3.3,1.4,3.5,4.6,3.5,7.6c0,24,0,48,0,72c0,26.9,19.5,48.9,45.1,51.1
			c27.8,2.4,50.8-14.9,55.6-42c1.2-6.9,0.4-14,0.6-21c0.3-13.6,7.9-23.1,20.2-25.5c12.7-2.4,25.9,6.4,27.7,19.2
			c1.9,13.1,0.7,26.3,0.6,39.4c0,3.5-2.2,6-6.1,5.8c-4.2-0.2-5.6-2.9-5.6-6.8c0-11.2,0.1-22.3,0-33.5c-0.1-7.3-5.8-12.9-12.6-12.8
			c-6.6,0.1-12,5.5-12.3,12.6c-0.1,2.7-0.1,5.3,0,8c0.5,13.5-2.1,26.2-9.2,37.7c-13.7,22.3-39,33.4-65.3,28.7
			c-24.1-4.3-44.7-25-49.4-49.9C1.9,108,2.3,106.7,1,106C1,77.7,1,49.3,1,21z"/>
		<path d="M62.9,184.2c-4.1,0-8.3-0.1-12.4,0c-4,0.1-6.1-2.2-6-5.7c0-3.5,2.2-5.7,6.2-5.6c8.3,0.1,16.6,0.1,24.9,0
			c3.8,0,6.2,1.8,6.3,5.5c0.1,4-2.4,5.9-6.4,5.9C71.2,184.1,67,184.2,62.9,184.2z"/>
	</g>
</g>
</svg>
