<?xml version="1.0" encoding="utf-8"?>
<!-- Generator: Adobe Illustrator 17.1.0, SVG Export Plug-In . SVG Version: 6.00 Build 0)  -->
<!DOCTYPE svg PUBLIC "-//W3C//DTD SVG 1.1//EN" "http://www.w3.org/Graphics/SVG/1.1/DTD/svg11.dtd">
<svg version="1.1" id="图层_1" xmlns="http://www.w3.org/2000/svg" xmlns:xlink="http://www.w3.org/1999/xlink" x="0px" y="0px"
	 viewBox="0 0 200 200" style="enable-background:new 0 0 200 200;" xml:space="preserve">
<g>
	<g>
		<path d="M55,200c-0.7,0-1.3,0-2,0c-17.7-10-35.3-20-53-30c0-20.3,0-40.7,0-61c14.5-8.1,29.1-16.1,43.4-24.4c1.6-0.9,2.9-3.9,2.9-6
			c0.2-14.8,0.2-29.6,0.1-44.4c0-2.9,0.8-4.6,3.4-5.9c5-2.6,9.9-5.4,14.8-8.3C76.1,13.3,87.5,6.7,99,0c0.7,0,1.3,0,2,0
			c1.3,0.9,2.6,2,4,2.8c14.9,8.4,29.8,16.9,44.8,25.2c2.9,1.6,3.9,3.4,3.8,6.7c-0.2,14.6-0.2,29.3,0.1,43.9c0,2.1,1.3,5,2.9,6
			C171,93,185.5,100.9,200,109c0,20.3,0,40.7,0,61c-17.7,10-35.3,20-53,30c-0.7,0-1.3,0-2,0c-0.4-0.5-0.7-1.1-1.2-1.4
			c-13.8-7.9-27.7-15.8-41.6-23.4c-1.3-0.7-3.8-0.3-5.3,0.5c-12.5,6.9-24.9,13.9-37.3,21C58,197.6,56.5,198.9,55,200z M185.8,125.5
			c-8.2,4.6-15.3,9.3-23,12.6c-7.6,3.4-10.4,8.2-9.5,16.4c0.8,8,0.2,16.1,0.2,25.2c10.9-6.2,20.9-11.7,30.7-17.5
			c0.9-0.5,1.5-2.1,1.5-3.2C185.9,148.2,185.8,137.4,185.8,125.5z M92.8,100.7c0-8.9-0.7-16.6,0.2-24.1c1.1-9.1-1.9-14.4-10.4-17.9
			c-7.4-3.1-14.1-7.7-21.8-12c0,11.9,0,22.8,0.1,33.8c0,1,0.5,2.5,1.3,2.9C72.1,89,82,94.6,92.8,100.7z M139.1,46.6
			c-8.2,4.6-15.2,9.2-22.7,12.6c-7.4,3.3-10.3,7.8-9.4,16c0.9,8.1,0.2,16.4,0.2,25.5c10.8-6,20.6-11.5,30.3-17.1
			c0.8-0.5,1.6-1.8,1.6-2.8C139.2,69.7,139.1,58.6,139.1,46.6z M21.6,113.3c10.3,5.8,19.8,11.2,29.4,16.5c1.2,0.7,3.3,0.9,4.5,0.3
			c9.9-5.3,19.6-10.9,30.1-16.8C75,107.3,65,101.6,55,96.1c-0.8-0.4-2.3-0.3-3.2,0.2C42,101.8,32.1,107.4,21.6,113.3z M46.5,179.7
			c0-12.1,0.1-23-0.1-34c0-1.2-1.5-2.9-2.7-3.6c-5-3-10.1-5.8-15.1-8.6c-4.5-2.6-9.1-5.1-14.3-8c0,12,0,22.9,0.1,33.8
			c0,1.1,0.9,2.6,1.8,3.1C25.8,168.1,35.6,173.6,46.5,179.7z M60.9,179.5c6.4-3.6,12-6.6,17.6-9.8c4.7-2.7,11.2-4.5,13.6-8.6
			s0.7-10.7,0.8-16.1c0-6.2,0-12.4,0-19.4c-10.6,6-20.3,11.4-29.9,16.9c-1,0.5-2,1.6-2,2.5C60.8,156.2,60.9,167.4,60.9,179.5z
			 M139.2,179.6c0-11.9,0-22.7-0.1-33.5c0-1.1-0.6-2.8-1.5-3.3c-9.8-5.7-19.8-11.3-30.4-17.3c0,12.1,0,23.2,0.1,34.3
			c0,0.9,0.8,2.2,1.7,2.7C118.7,168.1,128.5,173.6,139.2,179.6z M178.4,113.3c-10.5-5.9-20.5-11.6-30.5-17.1c-0.7-0.4-2-0.5-2.7-0.1
			c-10.1,5.6-20.2,11.3-30.8,17.3c10.5,5.9,20.1,11.4,29.9,16.7c1.1,0.6,3,0.7,4,0.1C158.2,124.8,168,119.2,178.4,113.3z M68,34.3
			C78.4,40.2,88.1,45.7,97.8,51c1.1,0.6,3,0.7,4,0.1c9.9-5.4,19.6-11,30.1-16.8c-10.5-5.9-20.5-11.6-30.5-17.1
			c-0.8-0.5-2.4-0.4-3.2,0.1C88.4,22.8,78.6,28.3,68,34.3z"/>
	</g>
</g>
</svg>
