<?xml version="1.0" encoding="utf-8"?>
<!-- Generator: Adobe Illustrator 17.1.0, SVG Export Plug-In . SVG Version: 6.00 Build 0)  -->
<!DOCTYPE svg PUBLIC "-//W3C//DTD SVG 1.1//EN" "http://www.w3.org/Graphics/SVG/1.1/DTD/svg11.dtd">
<svg version="1.1" id="图层_1" xmlns="http://www.w3.org/2000/svg" xmlns:xlink="http://www.w3.org/1999/xlink" x="0px" y="0px"
	 viewBox="0 0 200 200" style="enable-background:new 0 0 200 200;" xml:space="preserve">
<g>
	<g>
		<path d="M100.9,151c-7.5,0-15,0-22.5,0c-7.9,0-11.1-2.7-10.5-10.3c0.9-10.5-1.8-18-9.9-25.9c-18.2-17.7-20.2-47.3-6.8-69.2
			C65,23.1,91.8,12.8,117.5,20.1c24.1,6.8,41.4,29.7,41.6,55c0.2,19.1-7.3,34.5-22,46.5c-2.1,1.7-3.2,3.4-3.1,6.2
			c0.2,4.6,0.1,9.3,0,14c-0.1,6.1-3.1,9.1-9.2,9.2C116.9,151.1,108.9,151,100.9,151z M101,134.2c4,0,8-0.3,12,0.1
			c4.1,0.4,5.5-1.3,4.8-5.1c-1.6-9.6,1.8-15.7,9.9-21.9c18.7-14.2,19.8-42,3.8-59.4c-16.1-17.5-43.6-18-60.2-1.1
			c-16.5,16.8-16.4,45,1.8,59.5c8.7,6.9,12.9,13.7,11,24.4c-0.4,2.5,0.7,3.6,3.3,3.5C92,134.1,96.5,134.2,101,134.2z"/>
		<path d="M101.2,167.8c7.2,0,14.3,0.1,21.4-0.1c2.6-0.1,3.3,0.9,3.4,3.4c0.3,10.4-2,12.9-12.6,12.9c-9,0-18,0-26.9,0
			c-8.5,0-13.3-7-10.5-14.9c0.8-2.2,2.4-1.4,3.7-1.4C86.9,167.8,94.1,167.8,101.2,167.8z"/>
	</g>
</g>
</svg>
