<?xml version="1.0" encoding="utf-8"?>
<!-- Generator: Adobe Illustrator 17.1.0, SVG Export Plug-In . SVG Version: 6.00 Build 0)  -->
<!DOCTYPE svg PUBLIC "-//W3C//DTD SVG 1.1//EN" "http://www.w3.org/Graphics/SVG/1.1/DTD/svg11.dtd">
<svg version="1.1" id="图层_1" xmlns="http://www.w3.org/2000/svg" xmlns:xlink="http://www.w3.org/1999/xlink" x="0px" y="0px"
	 viewBox="0 0 200 200" style="enable-background:new 0 0 200 200;" xml:space="preserve">
<g>
	<g>
		<path d="M1,115c2.3-4.7,6.4-6.2,11.2-5.4c5.9,1,8.2-1.7,10.1-7C29.2,83.3,36.8,64.2,43.9,45c1.9-5.2,4.8-7.5,10.4-7.1
			c5.5,0.4,11,0.4,16.5,0c5.5-0.4,10.2,0.8,13.8,5.1c2.1,2.5,3.5,2,5.3-0.5c5.3-7.3,10.9-14.3,16.1-21.6c3-4.2,6.3-5.6,11.6-4
			c14.8,4.6,29.6,9,44.5,13.2c4.8,1.3,7.2,4,8,8.9c3.5,21.8,7.4,43.6,10.9,65.5c0.6,3.9,2,5.5,6.1,5c2.4-0.3,5,0,7.5,0.2
			c3.8,0.3,5.6,2.9,6,6.3c0.3,3.6-1.5,6-5,7.1c-1.3,0.4-2.7,0.8-3.9,0.6c-6.2-1.2-8.7,2-10.8,7.3c-3.3,8.5-7.3,16.8-11,25.2
			c-0.5,1.2-1,2.9-2.2,3.2c-4.8,1.1-4.1,4.4-4.2,8.1c-0.2,10.6-9.6,19-20.3,18.4c-10.5-0.6-18.8-9.4-18-20c0.3-4.5-0.9-5.1-4.9-5
			c-13.3,0.2-26.7,0.1-40,0.1c-2.7,0-3.9,0.1-3.5,3.6c1.3,11.4-7.4,21.1-18.7,21.3c-11.5,0.2-20.5-9.4-19.5-21.1
			c0.2-2.6,0-3.9-2.7-4.5c-2.1-0.4-3-2.3-3.9-4.2c-4.1-9.5-8.5-18.8-12.4-28.3c-1.3-3.2-3-4.4-6.3-4C8,124.2,3.4,123.3,1,118
			C1,117,1,116,1,115z M101.2,109.5c20.8,0,41.6-0.1,62.4,0.1c3.4,0,4.2-0.8,3.6-4.2c-3.5-19.5-6.9-39-10.1-58.6
			c-0.5-2.8-1.5-4-4.1-4.7c-11.2-3.2-22.4-6.4-33.5-9.9c-2.9-0.9-4.5-0.2-6.2,2.2c-5.5,7.5-11.2,14.9-16.8,22.4
			c-5.8,7.7-8.9,8.3-15.6,1.7c-5-5-10.2-7.6-17.2-6.5c-1.1,0.2-2.3,0.2-3.5,0c-3.2-0.4-4.6,1-5.7,4c-6,16.4-12.2,32.7-18.6,49
			c-1.5,3.8-0.9,4.7,3.2,4.7C59.9,109.4,80.6,109.5,101.2,109.5z M100.9,123.4c-21.2,0-42.3,0.1-63.5-0.1c-3.7,0-4.9,0.5-2.9,4.3
			c2.7,5.2,5,10.5,7.1,15.9c1,2.6,2.5,3.4,5.3,3.4c36-0.1,72-0.1,107.9,0c2.7,0,4.2-0.7,5.3-3.3c2.2-5.4,4.5-10.8,7.1-15.9
			c1.9-3.8,0.7-4.4-2.9-4.4C143.2,123.4,122,123.4,100.9,123.4z M57.3,161c-3.1,0.6-5.2,2.4-5,5.7c0.2,3,2.1,5,5.2,5
			c3.3-0.1,5.4-2,5.3-5.4C62.7,163,60.6,161.3,57.3,161z M144,160.9c-2.9,0.5-5.1,2.2-5,5.5c0.1,3.3,2.2,5.3,5.5,5.2
			c3.1-0.1,5-2.1,5-5.1C149.5,163.3,147.5,161.4,144,160.9z"/>
		<path d="M142.1,85.9c-0.1,1.7-1.2,3.6-3.5,4.7c-2.4,1.2-5.4,1.5-7-0.6c-5.5-7.1-10.2-7.1-15.9-0.1c-2.3,2.8-6.2,2.1-8.8-0.8
			c-2.5-2.8-2.3-5.9,0.2-8.5c3.9-4.1,8.1-7.9,12.2-11.7c2.3-2.1,5.4-2.7,7.8-0.6c4.8,4.1,9.2,8.6,13.7,13.1
			C141.8,82.3,142.2,83.6,142.1,85.9z"/>
		<path d="M78.8,92.1c0,3.7-3.2,6.9-7,7c-4,0-7.2-3.3-7.1-7.3c0.1-3.8,3.4-6.8,7.2-6.7C75.6,85.1,78.8,88.4,78.8,92.1z"/>
	</g>
</g>
</svg>
