<?xml version="1.0" encoding="utf-8"?>
<!-- Generator: Adobe Illustrator 17.1.0, SVG Export Plug-In . SVG Version: 6.00 Build 0)  -->
<!DOCTYPE svg PUBLIC "-//W3C//DTD SVG 1.1//EN" "http://www.w3.org/Graphics/SVG/1.1/DTD/svg11.dtd">
<svg version="1.1" id="图层_1" xmlns="http://www.w3.org/2000/svg" xmlns:xlink="http://www.w3.org/1999/xlink" x="0px" y="0px"
	 viewBox="0 0 200 200" style="enable-background:new 0 0 200 200;" xml:space="preserve">
<g>
	<path d="M83.5,90.6c-1.2,1.4-1.6,3.2-1.4,5c1.6,13.7,8.2,24,20.5,30.6c1.9,1,3.1,1.3,4.2-1.1c1.6-3.6,4.9-5.8,7.6-8.5
		c8.4-8.5,16.9-17,25.4-25.5c5.2-5.1,10-5.2,15.3-0.2c1.3,1.3,2.7,2.5,3.9,3.9c4.5,5,4.5,10.1-0.3,15c-5.2,5.4-10.6,10.6-15.9,15.9
		c-1.8,1.8-3.8,3-0.8,5.9c2.7,2.7,4,1.5,5.9-0.5c3.9-4.1,8-8,12-12c2.5-2.5,5.2-5.8,8.7-2c3.4,3.6,0.1,6.3-2.4,8.8c-4,4-8,8.1-12,12
		c-1.8,1.7-2.8,3.3-1.8,6c2,5.7-4.1,11.6-10.1,15.8c-3.9,2.7-8,1.6-12.5-2.6c-0.8-0.8-1.6-1.7-2.5-2.4c-2.2-2-4.9-1-7.1-0.4
		c-2.2,0.6-1.9,2.9-1.6,4.4c0.9,4.9,1.1,9.7,7,11.7c3.9,1.3,5.2,8.8,3.4,14.5c-1.4,4.6-4.9,6.6-9.5,6.6c-13.5,0.1-27,0.2-40.5-0.1
		c-5.6-0.1-8.9-3.2-9.8-8.1c-1.3-7.4,0.5-12.3,5.6-14.1c3.2-1.2,3.9-4,4.1-6.8c0.5-6.6,1-13.3,1.8-19.9c0.2-2.1-0.4-3.4-1.8-4.8
		c-9.9-9.3-16.4-20.4-18.7-33.9c-0.3-1.8-1.3-2.8-2.7-3.9c-11.5-8.6-10.9-22.8,1.3-30c2.5-1.5,2.7-2.2,0.7-4.1
		c-4.5-4.4-8.9-9-13.3-13.5c-0.9-1-1.9-1.5-2.8-2.9C42,41,37.6,36.8,33,31.6c-0.5-0.6-0.6-1.6-0.6-2.4c0.9-8.7,8.1-12.6,13.8-17.3
		c3.6-2.9,7.9-1.1,13.1,3.9c1.1,1,1.9,2.7,3.5,2.6c5.8-0.2,8.9,3.9,12.4,7.4c14.6,14.6,29.2,29.2,43.9,43.8
		c2.9,2.9,5.5,5.8,5.5,10.2c0,1.3,0.9,2.1,1.5,3c3.7,5.5,3.5,9.1-0.9,13.8c-2.5,2.7-5.1,5.2-7.8,7.8c-2.9,2.9-6.7,3.7-10.1,1.9
		c-4-3.4-6.2-4.1-9.2-4.9c-3.9-2.3-7.7-5-11.9-9C85.8,91.6,85,90.6,83.5,90.6z M51.6,20.7c-2.2-0.2-9.5,7.1-9.3,8.1
		c0,0.2,0.1,0.4,0.2,0.4c4.9,3.6,7.2,8.7,8.3,14.4c0.1,0.3,0.4,0.5,0.7,0.7c15.7,15.7,31.3,31.3,47,47c0.8,0.8,1.8,2.4,2.8,1.4
		c3.2-3.2,4.7-0.1,6.2,1.7c2.5,2.9,4.6,3.4,7,0.1c0.6-0.8,1.5-1.3,2.1-2.2c1-1.4,3.8-2.1,1.5-4.7c-2.2-2.6-3.5-1.2-5.1,0.5
		c-1.2,1.2-2.7,1.6-4,0.4c-1.6-1.5-1-3,0.3-4.4c0.8-0.9,1.5-1.8,2.5-2.5c2.7-2,2.9-3.6,0.2-6.2C96.6,60.5,81.6,45.4,66.5,30.3
		c-3.5-3.5-6.1-3.6-9.8-0.3c-1.5,1.3-3,3.2-5.1,1.2c-2-2-0.4-3.6,1-5.1c0.8-0.8,1.8-1.6,0.7-2.9C52.6,22.2,51.9,21.1,51.6,20.7z
		 M89.6,145.7c-0.7,8.1-1.3,15.3-1.9,22.6c-0.1,0.8,0.1,2.1,0.5,2.2c1.9,0.8,3.4,2,2.5,4.1c-1,2.3-3.4,1.6-5.3,1.7
		c-1.2,0.1-2.3,0.1-3.5,0c-2.1-0.1-3.5,0.4-3.5,3c0,2.9,1.7,2.7,3.6,2.7c11.5,0,23,0,34.5,0c1.7,0,3.7,0.6,3.8-2.5
		c0.1-2.9-1.5-3.2-3.8-3.2c-5.7,0.1-11.3,0-17,0c-1.9,0-3.9-0.1-3.8-2.8c0.1-2.6,2-2.7,3.9-2.7c2.8,0,5.7-0.1,8.5,0
		c2.1,0.1,3.1-0.6,2.9-2.9c-0.4-4.5-0.8-8.9-1.2-13.4c-0.1-1.8-1.4-2.2-2.7-2.4C101.2,151.1,95.8,148.6,89.6,145.7z M138.3,151.6
		c1.6-1.8,3.2-3.3,4.3-5.1c0.9-1.5-0.9-2.3-1.7-3.1c-3.7-3.8-7.4-7.7-11.3-11.3c-2.6-2.3-2.7-3.8-0.1-6.2c7.4-7,14.3-14.4,21.7-21.4
		c2.6-2.5,0.7-3.6-0.8-5.1c-1.5-1.5-2.6-3.3-5.1-0.7c-9.2,9.5-18.5,18.7-27.9,28c-1.6,1.5-2.1,2.7-0.3,4.5
		c6.3,6.2,12.5,12.5,18.8,18.7C136.4,150.3,137.1,150.8,138.3,151.6z M116.3,144c-2.1-3-4-4.6-7-5.4c-17.9-4.6-29.6-15.8-34.9-33.6
		c-0.5-1.7-0.5-3.9-3.3-3c-2.8,0.9-1.2,2.8-0.9,4.1c4,14.4,12.5,25.1,25.7,32.2C102.1,141.5,108.5,143.6,116.3,144z M66.7,93
		c4.4,0,8-3.5,8.1-7.8c0.1-4.3-4-8.3-8.3-8.2c-4.3,0.1-7.7,3.7-7.7,8.1C58.8,89.6,62.2,93,66.7,93z"/>
</g>
</svg>
