<?xml version="1.0" encoding="utf-8"?>
<!-- Generator: Adobe Illustrator 17.1.0, SVG Export Plug-In . SVG Version: 6.00 Build 0)  -->
<!DOCTYPE svg PUBLIC "-//W3C//DTD SVG 1.1//EN" "http://www.w3.org/Graphics/SVG/1.1/DTD/svg11.dtd">
<svg version="1.1" id="图层_1" xmlns="http://www.w3.org/2000/svg" xmlns:xlink="http://www.w3.org/1999/xlink" x="0px" y="0px"
	 viewBox="0 0 200 200" style="enable-background:new 0 0 200 200;" xml:space="preserve">
<path d="M101.3,79.4c-12-0.1-21.8,9.3-22,21.2c-0.2,11.7,9.7,21.8,21.4,21.9c11.8,0.2,21.8-9.6,21.9-21.4
	C122.9,89.3,113.3,79.5,101.3,79.4z"/>
<g>
	<path d="M183.1,87.3c-3.6-5-8.1-8.9-13.6-11.5c-3.6-1.8-4.9-3.7-3.3-7.6c1.5-3.7,1.9-7.8,1.7-11.5c0.3-16.3-8.7-25.2-24.6-24.8
		c-3.9,0.1-7.7,0.4-11.3,1.8c-4.1,1.6-6.3,0.4-8-3.4s-4.5-7-7.4-10c-9.6-10-22.1-10.3-32.3-0.9c-1.8,1.7-4,3.4-4.9,5.6
		c-3.6,8.6-9,9.6-18,7.6c-19.7-4.3-32.4,9-29.1,28.9c0.4,2.5,0.7,5,1.6,7.3c1.2,3.2,0.7,5-2.6,6.6C26,78,21.5,81.6,17.8,86.3
		c-6.9,8.8-6.9,18.7-0.1,27.5c3.9,5,8.8,8.6,14.3,11.5c2.2,1.2,3,2.3,2.1,5c-1.7,5.4-2.7,11-2.3,16.7c1,12.9,9.2,20.8,22,21.2
		c5,0.2,10-0.2,14.8-2c3.5-1.3,5.3-0.2,6.8,3c2,4.2,5,7.9,8.3,11.1c9.8,9.5,22.1,9.6,32.1,0.3c3.9-3.7,7-8,9.5-12.8
		c1.1-2.3,2.3-2.7,4.6-1.9c5.7,1.9,11.7,2.7,17.7,2.2c11.6-0.9,19.4-8.7,20.2-20.2c0.4-5.7,0.1-11.3-1.8-16.8
		c-1.1-3-0.5-4.7,2.5-6.2c5.7-2.9,10.7-6.8,14.5-12C188.9,104.6,188.9,95.5,183.1,87.3z M141.1,39.1c13.2-1.2,20,4.7,19.8,17.7
		c0,0.3-0.1,1.2-0.1,2c-0.8,11.4-0.9,10.5-11.7,8.6c-10-1.8-14.5-6.4-16.4-16.3C130.5,40,129.5,40.2,141.1,39.1z M145.1,108.4
		c1.6-1.8,2.3-1.2,3.2,0.4c2.1,3.9,4.3,7.8,6.4,11.8c0.8,1.5,1,2.8-1.1,3.4c-4.4,1.3-8.8,2.7-13.3,4c-2.7,0.8-2.4-1-2.4-3.7
		C137.9,118.2,140.9,113.2,145.1,108.4z M139.8,95.9c-0.1-0.6,0.6-1.1,1.1-0.7l4,4.3c0.4,0.3,0.4,0.8,0,1.1l-3.9,4.9
		c-0.5,0.4-1.2,0-1.1-0.6c0.3-1.5,0.6-3.6,0.5-4.7C140.5,99.1,140.1,97.3,139.8,95.9z M148.2,91.4c-0.8,1.5-1.5,1.9-2.9,0.4
		c-4.7-4.8-7.4-10.4-7.4-17.2c0-2.2,0.3-3.2,2.7-2.7c4.3,1.4,8.5,2.7,12.8,4.1c1.8,0.6,2.4,1.5,1.5,3.3
		C152.6,83.3,150.4,87.3,148.2,91.4z M88.6,132.1c-9.4-2.5-18.9-16.6-20.4-21.5c-1-3.2-1.6-7.2-1.6-11.6c0.6-9.5,3.8-14.9,10.2-22.1
		c6.9-7.8,16-9.3,25.1-9.5c8.3-0.2,14.9,2.3,21.2,7.3c13,10.2,13.5,27.6,8.8,37.8c-3.9,8.1-4.8,8.8-5.9,10.2
		C117.3,133.2,103.7,135.5,88.6,132.1z M104.8,139.7l-4.3,4c-0.3,0.4-0.8,0.4-1.1,0l-4.9-3.9c-0.4-0.5,0-1.2,0.6-1.1
		c1.5,0.3,3.6,0.6,4.7,0.5c1.1,0,2.9-0.4,4.3-0.7C104.7,138.5,105.1,139.2,104.8,139.7z M68.3,69.3c-0.1-0.4,0.3-0.8,0.7-0.8
		l6.6-0.3c0.6,0.1,0.9,0.9,0.3,1.2c-1.3,0.9-3,2.1-3.7,3c-0.8,0.8-1.8,2.3-2.5,3.5c-0.3,0.5-1.2,0.4-1.3-0.3L68.3,69.3z M95.1,61.6
		l4.3-4c0.3-0.4,0.8-0.4,1.1,0l4.9,3.9c0.4,0.5,0,1.2-0.6,1.1c-1.5-0.3-3.6-0.6-4.7-0.5c-1.1,0-2.9,0.4-4.3,0.7
		C95.2,62.8,94.8,62.1,95.1,61.6z M131,68.2c0.4-0.1,0.8,0.3,0.8,0.7l0.3,6.6c-0.1,0.6-0.9,0.9-1.2,0.3c-0.9-1.3-2.1-3-3-3.7
		c-0.8-0.8-2.3-1.8-3.5-2.5c-0.5-0.3-0.4-1.2,0.3-1.3L131,68.2z M124.1,47c1.1,4,2.4,7.9,3.6,11.8c0.8,2.5,0.3,3.2-2.7,3.3
		c-7.7,0.2-13.1-3.7-18.3-8.9c4.1-3.4,9-5.4,13.7-7.8C122.4,44.4,123.5,44.8,124.1,47z M80.9,35.5c2.7-4.6,5.6-9,9.9-12.3
		c6.1-4.7,12.6-4.6,18.7,0.2c3.2,2.5,10.1,11.6,10.2,13.4c0.1,1.6-1.3,1.7-2.2,2.2c-5.1,2.8-10.2,5.5-15.2,8.5c-1.7,1-2.8,1.1-4.4,0
		c-5-3.3-10.2-6.2-15.7-8.6C80.5,38.1,79.8,37.3,80.9,35.5z M72.2,58.6c1.2-3.4,2.2-6.9,3.1-10.4c0.8-3,2.1-4.2,5.2-2.4
		c4.1,2.4,8.4,4.6,13,7.1c-5.6,5.4-10.9,9.3-18.3,9.2C72.5,62,71.1,61.8,72.2,58.6z M56.8,39c0.3,0,1.1,0,1.9,0.1
		c11.6,1,10.6,0.8,8.6,12c-1.9,10.1-6.5,14.5-16.6,16.3c-10.3,1.8-10.2,2.8-11.6-7.9C37.3,46.3,43.6,38.8,56.8,39z M61.7,104.6
		c0.1,0.6-0.6,1.1-1.1,0.7l-3.9-4.4c-0.4-0.3-0.4-0.8,0-1.1l4-4.8c0.5-0.4,1.2,0,1.1,0.7c-0.3,1.5-0.6,3.6-0.6,4.7
		C61.1,101.4,61.4,103.2,61.7,104.6z M53.1,93.1c-3.3-4.3-5.5-9.1-7.9-13.9c-0.9-1.8-0.3-2.8,1.5-3.3c4.1-1.2,8.2-2.5,12.4-3.8
		c2.7-0.8,2.8,0.5,2.9,2.8C62.3,82.7,58.4,88.1,53.1,93.1z M53.2,106.9c5.3,5.2,9.1,10.8,8.8,18.4c-0.1,2.8-1,3.1-3.2,2.6
		c-0.2,0-0.3-0.1-0.5-0.1C42.9,124.5,42.3,121.9,53.2,106.9z M29.7,115.4c-6.5-4.7-10-10.1-10.1-16.2c0.3-6.2,4.9-10.7,10.2-14.7
		c7.1-5.3,7.1-5.2,11.2,2.3c2.4,4.4,6.9,8.6,6.9,12.9c0.1,4.3-4.4,8.6-6.7,13C37.1,120.8,37.1,120.8,29.7,115.4z M58.2,160.9
		c-0.8,0-1.7,0-2.5,0c-11.2,0-16.9-5.7-16.8-16.9c0-0.5,0-1,0.1-1.5c0.3-3.8,0.1-8.5,2.5-11c2.8-3,6.6,1.4,10.2,1.6
		c9.7,0.5,14.8,5.7,15.2,15.4c0,0.2,0.1,0.3,0.1,0.5C70.1,159.5,69.4,160.4,58.2,160.9z M69.2,130.6c-0.4,0.1-0.8-0.3-0.8-0.7
		l-0.3-6.6c0.1-0.6,0.9-0.9,1.2-0.3c0.9,1.3,2.1,3,3,3.7c0.8,0.8,2.3,1.8,3.5,2.5c0.5,0.3,0.4,1.2-0.3,1.3L69.2,130.6z M76,153.5
		c-1.4-4.4-2.7-8.8-4-13.3c-0.7-2.3,0.7-2.3,2.4-2.3c7.6-0.2,13.6,3.1,18.7,9c-4.3,3.4-9.2,5.6-14.1,8
		C77.3,155.7,76.4,154.9,76,153.5z M119.5,163.6c-1.3,6.8-13,16.8-19.8,16.7c-6.8-0.4-11.2-4.8-15.1-10c-5.5-7.4-5.5-7.4,2.5-11.5
		c0.1-0.1,0.3-0.2,0.4-0.2c4.2-2.3,9-7.2,12.5-6.4c6.5,1.4,12.4,6.2,18.5,9.5C119.4,162.1,119.7,162.5,119.5,163.6z M127.8,141.2
		c-1.3,3.9-2.4,7.9-3.6,11.8c-0.5,1.6-1.3,2.8-3.2,1.8c-4.9-2.4-9.8-4.6-14.1-8c5.1-5.3,10.6-9,18.2-8.9
		C128,137.9,128.6,138.6,127.8,141.2z M125.4,132.9c-0.6-0.1-0.9-0.9-0.3-1.2c1.3-0.9,3-2.1,3.7-3c0.8-0.8,1.8-2.3,2.5-3.5
		c0.3-0.5,1.2-0.4,1.3,0.3l0.2,6.3c0.1,0.4-0.3,0.8-0.7,0.8L125.4,132.9z M144.1,161c-1,0-2,0-3-0.1c-11.3-0.8-10.6-1.1-8.5-11.9
		c2-9.9,6.1-15.6,16.5-16.1c3.2-0.2,5.9-2.9,9.3-2.3c1,0.2,2.5,9.5,2.5,13.5C161,155.4,155.4,161,144.1,161z M168.6,116.5
		c-5.8,4-5.8,4-8.9-2c-0.7-1.3-1.1-2.9-2.1-3.9c-6.7-7.3-6.1-14.4,0.1-21.6c0.8-1,1.3-2.3,1.9-3.5c3.1-6.1,3.1-6.1,8.9-2.1
		c6,4.1,11.3,8.7,11.8,16.7C179.7,108,174.4,112.5,168.6,116.5z"/>
</g>
</svg>
