<?xml version="1.0" encoding="utf-8"?>
<!-- Generator: Adobe Illustrator 17.1.0, SVG Export Plug-In . SVG Version: 6.00 Build 0)  -->
<!DOCTYPE svg PUBLIC "-//W3C//DTD SVG 1.1//EN" "http://www.w3.org/Graphics/SVG/1.1/DTD/svg11.dtd">
<svg version="1.1" id="图层_1" xmlns="http://www.w3.org/2000/svg" xmlns:xlink="http://www.w3.org/1999/xlink" x="0px" y="0px"
	 viewBox="0 0 200 200" style="enable-background:new 0 0 200 200;" xml:space="preserve">
<g>
	<path d="M199.8,174.8c-0.7,3.3-3.7,3.8-7,3.8c-24-0.3-47.9-0.4-71.9-0.6c-8.7-0.1-11.8-2.2-14.1-10.9c-2.8-10.8-5.2-21.6-7.8-32.5
		c-1.2-5-2.2-10.1-3.5-15c-2.5-9.4,3.8-19.3,15.1-18.8c20.3,0.9,40.6,0.8,60.9,0.9c3.3,0,4.6,1.2,5.6,4.1
		c7.4,21.5,16,42.7,22.3,64.6c0,0,0.3,1.2,0.5,2.1C200.1,173.5,199.8,174.8,199.8,174.8z M151.7,167.5c10.8,0,21.6-0.1,32.5,0
		c3.3,0,4.6-0.6,3.2-4.2c-5.7-15.8-11.2-31.6-16.8-47.5c-0.7-1.9-1.5-3-3.8-3c-19.3-0.2-38.6-0.5-57.9-0.8c-4-0.1-5.5,1.9-4.6,5.7
		c3.5,15.1,7.1,30.1,10.5,45.2c0.7,3.2,2.2,4.3,5.5,4.2"/>
	<path d="M84.2,77.2c5.1,25.8,10.2,51.6,15.3,77.4c1.1,5.8,1.1,11.6-0.9,17.2c-2.3,6.3-5.7,8.7-12.3,8.7c-23.8,0-47.7,0-71.5,0
		c-6.3,0-9.3-2.1-11.8-8c-2.8-6.8-2.2-13.7-0.8-20.6C9.5,115.6,16.8,79.4,24,43.1c0.6-3.1,1.4-6.1,2.8-9c2.8-6,7-9.4,14-9
		c7.3,0.3,14.7,0,22,0.1c7.6,0,11.3,2.9,13.2,10.3c0.9,3.6,3.6,19.2,4.6,23.7 M78.8,43.7c-0.6-3.9-0.7-8.7,1-12.3
		c2.2-4.8,6.9-6.6,12.6-6.5c16,0.2,32,0.1,48,0.1c7.6,0,10.6,2,13.2,9.5c5,14.3,9.7,28.7,14.6,43c2.2,6.6,4.5,13.1,6.9,20.3
		c-6.6,0-12.5,0-18.5,0c-17.5,0-35,0-52.5,0c-9.7,0-14.8-4-16.9-13.5c-1.5-6.7-2.9-13.3-4.3-20 M50.6,169.5c10.5,0,21,0,31.5,0
		c8.3,0,9.4-1.2,9.1-9.4c-0.1-1.3-0.2-2.7-0.4-4c-7.6-38.5-15.2-77-22.7-115.5c-0.6-3-1.9-4.2-5-4.1c-5.7,0.2-11.3,0-17,0
		c-11.4,0-11.5,0-13.7,11.4C25,84.1,17.9,120.3,10.6,156.6c-0.5,2.7-0.8,5.3-0.4,7.9c0.5,3.4,2,5.2,5.9,5.1
		C27.6,169.3,39.1,169.5,50.6,169.5z M129.5,86.5c9.2,0,18.3-0.1,27.5,0c3.2,0,4.5-0.4,3.2-4.2c-5-14.1-9.7-28.3-14.4-42.5
		c-1-3.1-2.7-3.9-5.9-3.9c-15.3,0.2-30.7,0.2-46,0c-4.3-0.1-5.7,1.8-5.9,5.4C88,43.1,88,45,88.4,46.8c2.4,11.4,5.1,22.7,7.4,34.1
		c0.9,4.3,3.1,5.7,7.3,5.6C111.8,86.4,120.7,86.5,129.5,86.5z"/>
</g>
</svg>
