<?xml version="1.0" encoding="utf-8"?>
<!-- Generator: Adobe Illustrator 17.1.0, SVG Export Plug-In . SVG Version: 6.00 Build 0)  -->
<!DOCTYPE svg PUBLIC "-//W3C//DTD SVG 1.1//EN" "http://www.w3.org/Graphics/SVG/1.1/DTD/svg11.dtd">
<svg version="1.1" id="图层_1" xmlns="http://www.w3.org/2000/svg" xmlns:xlink="http://www.w3.org/1999/xlink" x="0px" y="0px"
	 viewBox="0 0 200 200" style="enable-background:new 0 0 200 200;" xml:space="preserve">
<g>
	<g>
		<path d="M103.9,3c12.8,4.1,19.2,14.3,24.2,25.8c1.7,3.9,3,7.9,4.2,12c0.9,2.9,2,3.7,5.2,2.9c11.2-2.6,22.4-4.4,33.8-1.4
			c13.4,3.5,19.4,13.9,15.6,27.3c-3.1,10.8-9.7,19.5-17.3,27.5c-2.8,2.9-3.2,4.7-0.1,7.8c7.1,7.1,13,15.1,16.5,24.6
			c6,16.6-2.3,29.5-19.8,31.2c-9.7,1-19.2-0.1-28.6-2.5c-3.5-0.9-4.6,0.3-5.4,3.3c-1.8,6.8-4.5,13.3-7.9,19.4
			c-1.2,2.1-2.5,4.2-3.9,6.2c-11.7,15.6-27.1,15.6-38.8,0c-5.8-7.7-9.3-16.4-11.9-25.6c-0.9-3-2-4-5.5-3.2
			c-11,2.6-22.1,4.3-33.4,1.5c-13.6-3.5-19.5-13.5-15.9-27c3-11.2,9.9-20.2,17.8-28.3c2.8-2.9,2.4-4.3-0.2-6.9
			c-7.9-8.3-14.9-17.4-17.8-28.8c-3.2-12.8,2.6-22.8,15.3-26.2c11.2-3,22.4-1.5,33.4,1.1c4,1,5.4,0.1,6.4-3.7
			c1.1-4.2,2.8-8.3,4.6-12.4C79.3,16.4,85.8,7,98,3C100,3,102,3,103.9,3z M128.6,101c0.5-12.8-0.9-25.4-2.8-38
			c-0.5-3.4-1.7-3.6-4.4-2.5c-23.9,9.1-45.8,21.7-65.7,38c-2.2,1.8-2.4,2.9-0.1,4.8c19.8,16.2,41.7,28.9,65.7,38
			c3.4,1.3,4,0.3,4.5-2.9C127.8,126,129,113.6,128.6,101z M75.5,131.9c-0.1,4.9,1,8.9,1.8,12.8c2.7,12.6,6,25,13.8,35.7
			c6.3,8.6,12.7,8.7,19.3,0.4c5.5-7,8.4-15.3,11.2-23.7c0.8-2.4-0.1-3.5-2.4-4.3c-4-1.4-7.9-3-11.8-4.6
			C96.6,143.8,86.4,138.1,75.5,131.9z M157.8,52.5c-6.2-0.1-12.3,1.1-18.3,2.5c-1.7,0.4-3.4,0.8-2.9,3.5c2.8,14.9,4,30,3.7,45.2
			c0,1.1-0.4,2.6,1,3c1.2,0.4,2-0.8,2.9-1.5c9.3-7.5,17.9-15.7,24.9-25.4c3-4.3,5.7-8.7,7-13.9c1.6-6.2-0.5-10-6.6-12.1
			C165.6,52.5,161.7,52.5,157.8,52.5z M86.3,63.1c-8.1-3.8-16.4-6.3-25-8.2c-9.2-2.1-18.6-3.6-28-1.2c-6.9,1.7-9,5.7-7.2,12.4
			c2.4,9,8.3,15.7,14,22.6c2.9,3.5,4.8,4.1,8.5,0.8c9.7-8.6,20.5-15.6,31.5-22.2C82.2,66.1,84.7,65.5,86.3,63.1z M121.9,46.4
			c-2.8-9.2-5.8-18.4-12.1-25.9c-6.2-7.4-12-7.3-18.1,0.3C86,27.9,83,36.3,80.3,44.9c-0.3,1-1.1,2.6,0.2,3.1
			c6.9,2.8,13.6,6.1,20.9,8c0.5,0.1,1.2-0.3,1.8-0.6c5.4-2.2,10.9-4.3,16.3-6.5C120.7,48.5,122.3,48.3,121.9,46.4z M157.8,149.7
			c3.2-0.3,6.6-0.3,9.7-1c8.1-1.8,10.6-6.2,8.1-14c-3.1-9.6-9.6-16.9-16.3-24.1c-1.4-1.5-2.5-0.9-3.8,0.1
			c-4.9,3.9-9.7,7.7-14.6,11.5c-1.3,1-1.7,2.3-1.9,3.8c-0.7,5.5-1.2,11-2.3,16.4c-0.6,3.1,0.4,4.1,3.1,4.7
			C145.8,148.3,151.7,149.5,157.8,149.7z M44.2,149.4c6.1,0.1,12-1.1,17.9-2.4c1.3-0.3,3.5-0.3,3.3-2.2c-0.8-7.1-2-14.1-3.1-21.2
			c-0.1-0.4-0.5-0.8-0.9-1.1c-5.1-4-10.3-8-15.4-12c-1-0.8-1.9-1.2-3-0.1c-7.5,8-14.8,16.2-17.3,27.3c-1,4.6,0.8,7.9,5.1,9.9
			C35.1,149.5,39.6,149.4,44.2,149.4z"/>
		<path d="M100.8,83c9.9-0.2,18.1,8,18.2,18c0.1,9.6-7.8,17.7-17.6,18.1c-9.8,0.3-18.2-7.8-18.5-17.7C82.7,91.5,90.8,83.1,100.8,83z
			 M107.1,100.3c-0.4-3.1-2.3-5.5-6.2-5.5c-3.9,0-6,2.4-6,6.2c0,3.9,2.4,5.9,6.2,6.1C104.6,107.3,107.2,104.5,107.1,100.3z"/>
	</g>
</g>
</svg>
