<?xml version="1.0" encoding="utf-8"?>
<!-- Generator: Adobe Illustrator 17.1.0, SVG Export Plug-In . SVG Version: 6.00 Build 0)  -->
<!DOCTYPE svg PUBLIC "-//W3C//DTD SVG 1.1//EN" "http://www.w3.org/Graphics/SVG/1.1/DTD/svg11.dtd">
<svg version="1.1" id="图层_1" xmlns="http://www.w3.org/2000/svg" xmlns:xlink="http://www.w3.org/1999/xlink" x="0px" y="0px"
	 viewBox="0 0 200 200" style="enable-background:new 0 0 200 200;" xml:space="preserve">
<g>
	<g>
		<path d="M13.5,100.9c0-20.2,0-40.3,0-60.5c0-16.6,10.3-26.9,26.7-26.9c40.5,0,81,0,121.5,0c16.2,0,26.7,10.3,26.7,26.5
			c0.1,40.7,0.1,81.3,0,122c0,16-10.3,26.4-26.3,26.5c-40.8,0.1-81.7,0.2-122.5,0c-15.9-0.1-26.1-10.6-26.2-26.5
			C13.5,141.6,13.5,121.3,13.5,100.9z M26,100.7c0,20.2,0,40.3,0,60.5c0,9.9,4.8,14.8,14.6,14.8c40.3,0,80.6,0,121,0
			c9.5,0,14.4-4.9,14.4-14.5c0-40.3,0-80.6,0-121c0-9.6-4.9-14.5-14.4-14.5c-40.3,0-80.6,0-121,0C30.7,26,26,30.7,26,40.7
			C26,60.7,26,80.7,26,100.7z"/>
		<path d="M90,126.2c-0.1,12.1-9.9,21.8-22.1,21.7c-11.7-0.1-21.6-10-21.7-21.8c-0.1-11.9,10.1-22,22-21.9
			C80.4,104.2,90.1,114,90,126.2z M77.4,125.9c0-5.1-4-9.1-9.2-9.1c-5.1,0-9.2,4-9.3,9c-0.1,5.3,4.2,9.5,9.4,9.4
			C73.4,135.2,77.4,131.1,77.4,125.9z"/>
		<path d="M93,62.7c0.1,3-1.1,4.8-2.6,6.3c-7.6,7.7-15.2,15.4-23,22.9c-3.9,3.8-6.9,3.8-10.8,0c-3.7-3.6-7.3-7.3-11-10.9
			c-2.9-2.9-3.6-6.2-0.7-9.2c2.9-3.1,6.3-2.4,9.3,0.2c0.1,0.1,0.3,0.2,0.4,0.3c2.5,2.1,4.4,6.5,7.3,6.3c3.4-0.2,5.4-4.5,8-7
			c4.2-4,8.2-8.2,12.4-12.3c1.9-1.8,4.3-2.6,6.9-1.4C91.6,58.9,92.8,60.7,93,62.7z"/>
		<path d="M130.9,69.8c7.8,0,15.6,0,23.4,0c4.8,0,7.6,2.3,7.6,6c0,3.7-2.8,6.2-7.4,6.3c-15.8,0.1-31.6,0-47.3,0
			c-4.2,0-7.2-1.6-7.5-6.1c-0.3-3.9,2.7-6.2,7.8-6.2C115.2,69.8,123,69.8,130.9,69.8z"/>
		<path d="M130.9,119.8c7.8,0,15.6,0,23.4,0c4.3,0,7.2,1.6,7.5,6.1c0.3,3.7-2.6,6.2-7.4,6.2c-15.8,0.1-31.6,0-47.3,0
			c-4.2,0-7.2-1.6-7.5-6.1c-0.3-4,2.6-6.2,7.8-6.2C115.2,119.8,123.1,119.8,130.9,119.8z"/>
	</g>
</g>
</svg>
