<?xml version="1.0" encoding="utf-8"?>
<!-- Generator: Adobe Illustrator 17.1.0, SVG Export Plug-In . SVG Version: 6.00 Build 0)  -->
<!DOCTYPE svg PUBLIC "-//W3C//DTD SVG 1.1//EN" "http://www.w3.org/Graphics/SVG/1.1/DTD/svg11.dtd">
<svg version="1.1" id="图层_1" xmlns="http://www.w3.org/2000/svg" xmlns:xlink="http://www.w3.org/1999/xlink" x="0px" y="0px"
	 viewBox="0 0 200 200" style="enable-background:new 0 0 200 200;" xml:space="preserve">
<g>
	<g>
		<path d="M14.1,97.5c0-25.3,0.2-50.6-0.1-76c-0.1-7.9,5.3-13,11.1-14.7c7-2.1,13.9-1.4,20.7,0.5c2.2,0.6,4.1,0.9,6.1-0.7
			C55.1,4,59,3.5,63.1,3.5c35,0,70,0,105,0c11.4,0,18.3,6.8,18.4,18.4c0.1,14.3,0,28.7,0,43c0,27.7,0,55.3,0,83
			c0,15.3-6,21.3-21.1,21.3c-27.2,0-54.3,0.1-81.5-0.1c-4.4,0-6,1.2-5.6,5.6c0.4,4.1-0.2,8.4,0.2,12.5c0.4,4.2-1.1,6.2-5.2,7.3
			c-14.6,4.2-29.2,6.9-44.2,1.9c-11-3.6-15.6-10-15.7-21.5c0-25.8,0-51.6,0-77.4C13.7,97.5,13.9,97.5,14.1,97.5z M175.5,86.7
			c0-21.2,0-42.3,0-63.5c0-7.3-1.5-8.7-8.9-8.7c-34.2,0-68.3,0-102.5,0c-7.2,0-8.9,1.7-8.9,8.8c0,42,0,84,0,126c0,7.3,1.8,9,9.2,9
			c34,0,68,0,102,0c7.6,0,9-1.4,9-9.1C175.5,128.4,175.5,107.5,175.5,86.7z M25.1,90c-0.1,0-0.1,0-0.2,0c0,1.5,0,3,0,4.5
			c-0.1,21-0.2,42-0.4,62.9c0,3.5,0.6,4.7,4.2,2.8c3.4-1.8,7.2-2.9,11-3.2c4.4-0.3,5.2-2.3,5.2-6.4c-0.2-42.3-0.1-84.6-0.1-126.9
			c0-1,0-2,0-3c0-1.8-0.8-2.8-2.5-3.2c-3.9-0.9-7.9-1.6-11.9-0.9c-3.5,0.6-5.3,2.2-5.3,6.4C25.2,45.4,25.1,67.7,25.1,90z
			 M47.6,188.2c2.9,0.1,7-0.4,11.1-1.2c8.9-1.9,8.8-1.8,9-11c0.1-4.7-0.4-7.8-6.3-6.9c-1.9,0.3-4-0.4-5.8-1
			c-9.8-3.3-18.7-0.5-26.9,4.6c-6,3.8-5.1,9.6,1.5,12.6C35.3,187.6,40.8,188.1,47.6,188.2z"/>
		<path d="M118,67.7c-12,0-24,0-36,0c-1.5,0-3,0.1-4.5-0.2c-2.8-0.5-4.5-2.3-4.5-5.2c0-2.9,1.6-4.7,4.4-5.2c1.5-0.3,3-0.3,4.5-0.3
			c24,0,47.9,0,71.9,0c1.2,0,2.3,0,3.5,0.1c3.2,0.4,5.3,2.2,5.2,5.6c-0.1,3.1-2.2,4.7-5.2,5.1c-1.3,0.2-2.7,0.1-4,0.1
			C141.7,67.7,129.8,67.7,118,67.7z"/>
		<path d="M118,83c12,0,24,0,36,0c1.6,0,3.3,0.1,4.9,0.5c2.3,0.6,3.7,2.4,3.8,4.7c0.1,2.6-1.4,4.5-3.8,5.2c-1.6,0.5-3.3,0.4-4.9,0.4
			c-24,0-48,0-71.9,0c-1.2,0-2.3,0-3.5-0.1c-3.3-0.3-5.4-2-5.4-5.4c0-3.4,2.2-5.2,5.4-5.3c4.5-0.2,9-0.1,13.5-0.1
			C100.7,83,109.4,83,118,83z"/>
		<path d="M117.8,109.3c12.5,0,25,0.1,37.5,0c4,0,7.4,1,7.3,5.4c-0.1,4.4-3.6,5.5-7.5,5.5c-24.8,0-49.6,0-74.5,0
			c-3.8,0-7.2-0.8-7.6-5.3c-0.3-3.6,2.5-5.5,7.7-5.5C93.1,109.3,105.5,109.3,117.8,109.3z"/>
		<path d="M119,146.2c-11.7,0-23.3,0-35,0c-1.3,0-2.7,0-4,0c-3.2-0.2-5.6-1.6-5.7-5c-0.1-3.7,2.2-5.3,5.6-5.7c1.3-0.1,2.7-0.1,4-0.1
			c23.5,0,46.9,0,70.4,0c6.6,0,9.5,1.7,9.6,5.5c0.1,3.8-2.7,5.4-9.5,5.4C142.6,146.2,130.8,146.2,119,146.2z"/>
		<path d="M103.7,41.4c-7,0-14,0.1-21,0c-5.2-0.1-8.4-2.8-8.6-7.1c-0.2-4.4,3.1-7.9,8.3-8c14.3-0.2,28.6-0.2,42.9,0
			c5.2,0.1,8.6,3.7,8.4,8c-0.2,4.3-3.7,7.1-9.1,7.2C117.7,41.5,110.7,41.4,103.7,41.4z"/>
	</g>
</g>
</svg>
