<?xml version="1.0" encoding="utf-8"?>
<!-- Generator: Adobe Illustrator 17.1.0, SVG Export Plug-In . SVG Version: 6.00 Build 0)  -->
<!DOCTYPE svg PUBLIC "-//W3C//DTD SVG 1.1//EN" "http://www.w3.org/Graphics/SVG/1.1/DTD/svg11.dtd">
<svg version="1.1" id="图层_1" xmlns="http://www.w3.org/2000/svg" xmlns:xlink="http://www.w3.org/1999/xlink" x="0px" y="0px"
	 viewBox="0 0 200 200" style="enable-background:new 0 0 200 200;" xml:space="preserve">
<g>
	<g>
		<path d="M10.4,10.4c6.5,0,12.7,0,19.1,0c0,6.5,0,12.7,0,19.1c-6.5,0-12.7,0-19.1,0C10.4,23,10.4,16.8,10.4,10.4z"/>
		<path d="M69.5,29.6c-6.6,0-12.7,0-19,0c0-6.4,0-12.6,0-19.1c6.3,0,12.5,0,19,0C69.5,16.8,69.5,23,69.5,29.6z"/>
		<path d="M109.5,29.6c-6.6,0-12.7,0-19.1,0c0-6.4,0-12.6,0-19.1c6.4,0,12.6,0,19.1,0C109.5,16.8,109.5,23,109.5,29.6z"/>
		<path d="M149.4,29.5c-6.5,0-12.6,0-19,0c0-6.5,0-12.7,0-19.1c6.4,0,12.6,0,19,0C149.4,17,149.4,23.3,149.4,29.5z"/>
		<path d="M189.4,29.5c-6.5,0-12.6,0-19,0c0-6.5,0-12.7,0-19.1c6.4,0,12.6,0,19,0C189.4,17,189.4,23.3,189.4,29.5z"/>
		<path d="M29.6,69.5c-6.5,0-12.7,0-19.1,0c0-6.5,0-12.7,0-19.1c6.5,0,12.7,0,19.1,0C29.6,56.9,29.6,63.1,29.6,69.5z"/>
		<path d="M69.4,69.6c-6.3,0-12.3,0-18.8,0c0-6.2,0-12.4,0-19c6,0,12.2,0,18.8,0C69.4,56.5,69.4,62.8,69.4,69.6z"/>
		<path d="M109.6,69.5c-6.4,0-12.6,0-19.1,0c0-6.4,0-12.6,0-19.1c6.4,0,12.6,0,19.1,0C109.6,56.8,109.6,63,109.6,69.5z"/>
		<path d="M130.4,69.4c0-6.3,0-12.3,0-18.8c6.2,0,12.4,0,19,0c0,6,0,12.2,0,18.8C143.4,69.4,137.2,69.4,130.4,69.4z"/>
		<path d="M170.6,50.4c6.5,0,12.6,0,19,0c0,6.5,0,12.7,0,19.1c-6.4,0-12.6,0-19,0C170.6,63,170.6,56.6,170.6,50.4z"/>
		<path d="M10.5,90.3c6.5,0,12.6,0,19,0c0,6.4,0,12.6,0,19.1c-6.2,0-12.4,0-19,0C10.5,103.2,10.5,97,10.5,90.3z"/>
		<path d="M50.5,90.3c6.5,0,12.6,0,19,0c0,6.4,0,12.6,0,19.1c-6.2,0-12.4,0-19,0C50.5,103.2,50.5,97,50.5,90.3z"/>
		<path d="M90.4,109.4c0-6.3,0-12.3,0-18.8c6.2,0,12.4,0,19,0c0,6,0,12.2,0,18.8C103.4,109.4,97.2,109.4,90.4,109.4z"/>
		<path d="M149.5,109.6c-6.5,0-12.6,0-19,0c0-6.4,0-12.6,0-19.1c6.2,0,12.4,0,19,0C149.5,96.7,149.5,102.9,149.5,109.6z"/>
		<path d="M189.6,90.4c0,6.4,0,12.6,0,19.1c-6.4,0-12.6,0-19.1,0c0-6.4,0-12.6,0-19.1C176.9,90.4,183.1,90.4,189.6,90.4z"/>
		<path d="M29.6,130.5c0,6.4,0,12.5,0,18.9c-6.3,0-12.5,0-19.1,0c0-6.2,0-12.4,0-18.9C16.7,130.5,22.9,130.5,29.6,130.5z"/>
		<path d="M50.5,130.3c6.6,0,12.7,0,19,0c0,6.4,0,12.6,0,19.1c-6.3,0-12.5,0-19,0C50.5,143.2,50.5,136.9,50.5,130.3z"/>
		<path d="M109.4,149.6c-6.3,0-12.4,0-18.9,0c0-6.3,0-12.5,0-19.1c6.1,0,12.3,0,18.9,0C109.4,136.6,109.4,142.8,109.4,149.6z"/>
		<path d="M149.6,130.4c0,6.6,0,12.7,0,19c-6.4,0-12.6,0-19.1,0c0-6.3,0-12.5,0-19C136.8,130.4,143,130.4,149.6,130.4z"/>
		<path d="M170.5,130.3c6.5,0,12.6,0,19,0c0,6.4,0,12.6,0,19.1c-6.3,0-12.5,0-19,0C170.5,143.2,170.5,137,170.5,130.3z"/>
		<path d="M29.5,189.6c-6.4,0-12.5,0-18.9,0c0-6.3,0-12.5,0-19.1c6.2,0,12.4,0,18.9,0C29.5,176.6,29.5,182.9,29.5,189.6z"/>
		<path d="M69.4,189.6c-6.3,0-12.3,0-18.8,0c0-6.2,0-12.4,0-19c6,0,12.2,0,18.8,0C69.4,176.6,69.4,182.8,69.4,189.6z"/>
		<path d="M90.4,189.4c0-6.2,0-12.3,0-18.8c6.1,0,12.3,0,19,0c0,6,0,12.2,0,18.8C103.4,189.4,97.2,189.4,90.4,189.4z"/>
		<path d="M130.5,170.3c6.5,0,12.6,0,19,0c0,6.4,0,12.6,0,19.1c-6.3,0-12.5,0-19,0C130.5,183.2,130.5,177,130.5,170.3z"/>
		<path d="M170.4,189.4c0-6.3,0-12.4,0-18.8c6.2,0,12.4,0,19,0c0,6,0,12.2,0,18.8C183.4,189.4,177.2,189.4,170.4,189.4z"/>
	</g>
</g>
</svg>
