<?xml version="1.0" encoding="utf-8"?>
<!-- Generator: Adobe Illustrator 17.1.0, SVG Export Plug-In . SVG Version: 6.00 Build 0)  -->
<!DOCTYPE svg PUBLIC "-//W3C//DTD SVG 1.1//EN" "http://www.w3.org/Graphics/SVG/1.1/DTD/svg11.dtd">
<svg version="1.1" id="图层_1" xmlns="http://www.w3.org/2000/svg" xmlns:xlink="http://www.w3.org/1999/xlink" x="0px" y="0px"
	 viewBox="0 0 200 200" style="enable-background:new 0 0 200 200;" xml:space="preserve">
<g>
	<g>
		<path d="M60.8,111.8c-9.2,0-18.3,0-27.5,0c-8,0-10.5-2.6-10.4-10.4C23.3,65.1,52.2,32.2,88.2,27c3.6-0.5,5.7-1.3,5.5-5.7
			c-0.2-4.7,3.1-7.7,7.3-7.8c4.2,0,7.5,2.9,7.4,7.7c-0.1,4.2,1.6,5.2,5.4,5.8c36,5,65.2,38.4,65.4,74.8c0,7.3-2.5,10-9.8,10
			c-18.7,0.1-37.3,0.1-56-0.1c-4,0-5,1.2-5,5.1c0.2,11.5,0.1,23,0.1,34.5c-0.1,17.8-12.9,31.4-30.2,32.1
			c-16.1,0.7-29.9-11.8-31.9-28.9c-0.6-5.4,2-9.5,6.5-10.1c4.4-0.6,7.8,2.3,8.4,7.8c0.9,7.7,4.4,13.3,12,15.5
			c9.1,2.7,19.1-3.7,19.7-13.3c0.8-13.3,0.4-26.6,0.5-40c0-2.8-1.9-2.6-3.7-2.6C80.1,111.8,70.4,111.8,60.8,111.8z M100.7,96.5
			c19.5,0,39-0.1,58.5,0.1c3.6,0,4.7-0.9,3.9-4.5c-1.6-7.6-4.3-14.6-8.4-21.2c-13.5-22.1-39.5-33.5-65.8-28.8
			C64.8,46.4,44,66.9,39.1,91c-0.9,4.3,0,5.7,4.7,5.6C62.8,96.3,81.8,96.5,100.7,96.5z"/>
	</g>
</g>
</svg>
