<?xml version="1.0" encoding="utf-8"?>
<!-- Generator: Adobe Illustrator 17.1.0, SVG Export Plug-In . SVG Version: 6.00 Build 0)  -->
<!DOCTYPE svg PUBLIC "-//W3C//DTD SVG 1.1//EN" "http://www.w3.org/Graphics/SVG/1.1/DTD/svg11.dtd">
<svg version="1.1" id="图层_1" xmlns="http://www.w3.org/2000/svg" xmlns:xlink="http://www.w3.org/1999/xlink" x="0px" y="0px"
	 viewBox="0 0 200 200" style="enable-background:new 0 0 200 200;" xml:space="preserve">
<g>
	<path d="M2.2,131.2c2.5-4.3,5-8.6,7.5-12.9c2.5-4.3,4.9-8.7,7.4-13c1-1.7,2-3.5,3-5.2c0.5-0.9,1.3-0.9,2.2-0.9c4.9,0,9.8,0,14.8,0
		c7,0,13.9,0,20.9,0c1,0,1.6,0.3,2,1.1c2.4,4.3,4.9,8.6,7.4,12.9c2.1,3.7,4.3,7.4,6.5,11.1c1.4,2.5,2.9,5,4.3,7.4
		c0.4,0.7,0.4,1.5-0.1,2.2c-2.7,4.6-5.4,9.3-8.2,13.9c-2.5,4.2-5,8.5-7.5,12.7c-1,1.7-2,3.3-3,5c-0.3,0.5-0.8,0.8-1.3,0.8
		c-0.6,0-1.3,0-1.9,0c-10.9,0-21.8-0.1-32.7,0.1c-2.1,0-3.3-0.6-4.3-2.4c-3.8-6.8-7.8-13.6-11.7-20.3c-1.8-3.1-3.5-6.1-5.2-9.2
		c-0.2-0.4-0.6-0.7-0.8-1.4C1.4,132.4,2,131.6,2.2,131.2z M40,115.4c-2.8,0-5.7,0-8.5,0c-1.1,0-1.8,0.4-2.3,1.3
		c-0.7,1.2-1.4,2.4-2.1,3.6c-2.2,3.8-4.3,7.6-6.6,11.4c-0.5,0.8-0.4,1.4,0.1,2.2c1.5,2.4,2.9,4.9,4.3,7.4c1.5,2.6,2.9,5.1,4.4,7.7
		c0.4,0.7,1,1.2,2,1.2c5.7,0,11.3,0,17,0c1.1,0,1.8-0.5,2.4-1.4c1.1-2,2.3-3.9,3.5-5.9c1.8-2.9,3.5-5.9,5.3-8.8
		c0.5-0.9,0.6-1.7,0.1-2.5c-0.6-1.1-1.3-2.2-1.9-3.3c-2.2-3.8-4.5-7.6-6.6-11.5c-0.6-1.1-1.4-1.4-2.6-1.4
		C45.5,115.4,42.7,115.4,40,115.4z"/>
	<path d="M100.9,1.7c6.1,0,12.1,0,18.2,0c0.8,0,1.3,0.2,1.7,1c2.5,4.5,5.1,8.9,7.7,13.4c3.4,5.9,6.9,11.9,10.3,17.8
		c0.6,1,0.5,1.9-0.1,2.9c-1.9,3.1-3.7,6.3-5.5,9.5c-2.1,3.7-4.2,7.3-6.4,11c-1.8,3.2-3.7,6.3-5.5,9.5c-0.8,1.4-1.6,2.1-3.4,2.1
		c-11.3-0.1-22.7-0.1-34,0c-2,0-3-0.7-3.8-2.3c-2.4-4.4-5-8.8-7.5-13.2c-2.2-3.8-4.3-7.6-6.5-11.4c-1.1-1.9-2.2-3.9-3.4-5.8
		c-0.4-0.6-0.4-1.2-0.1-1.8c3-5.2,6.1-10.5,9.1-15.7c3.2-5.5,6.3-11,9.4-16.5c0.4-0.7,0.9-0.6,1.4-0.6c4.7,0,9.4,0,14.1,0
		C98,1.7,99.4,1.7,100.9,1.7z M100.9,17.9C100.9,17.9,100.9,17.9,100.9,17.9c-2.9,0-5.8,0-8.6,0c-0.9,0-1.6,0.3-2.1,1
		c-0.4,0.6-0.8,1.3-1.1,1.9c-2.5,4.4-5,8.8-7.6,13.2c-0.5,0.9-0.5,1.7,0,2.5c0.9,1.4,1.7,2.9,2.6,4.3c2.1,3.6,4.2,7.2,6.3,10.8
		c0.4,0.6,0.9,1,1.6,1c6,0,12,0,18,0c0.8,0,1.3-0.4,1.7-1.1c2.9-5,5.7-9.9,8.6-14.9c0.6-1.1,0.6-2,0-3c-2.6-4.5-5.3-9-7.8-13.6
		c-0.9-1.6-2-2.4-3.9-2.3C106,18.1,103.5,17.9,100.9,17.9z"/>
	<path d="M159.9,99.1c5.7,0,11.4,0.1,17.1-0.1c1.7,0,2.6,0.6,3.3,2c2.2,3.9,4.5,7.8,6.8,11.8c1.8,3.1,3.5,6.1,5.3,9.2
		c1.8,3.2,3.7,6.4,5.6,9.6c0.5,0.8,0.5,1.5,0,2.3c-1.9,3.1-3.6,6.2-5.5,9.4c-2.5,4.2-4.9,8.3-7.4,12.5c-1.8,3-3.7,6.1-5.4,9.1
		c-0.6,1-1.2,1.4-2.4,1.4c-11.8,0-23.6,0-35.5,0c-0.9,0-1.5-0.3-2-1.1c-2.5-4.4-5.1-8.8-7.6-13.2c-2.1-3.6-4.2-7.3-6.3-10.9
		c-1.4-2.5-2.9-4.9-4.3-7.4c-0.4-0.6-0.3-1.3,0.1-1.9c4.4-7.6,8.8-15.2,13.2-22.8c1.7-2.9,3.3-5.7,4.9-8.6c0.5-1,1.2-1.2,2.2-1.2
		C148,99.1,154,99.1,159.9,99.1z M159.8,150.2c2.8,0,5.5-0.1,8.3,0c1.1,0,1.8-0.4,2.3-1.3c1.4-2.4,2.8-4.8,4.3-7.2
		c1.5-2.5,2.9-5,4.5-7.5c0.7-1.1,0.6-1.9,0-2.9c-2.8-4.8-5.6-9.7-8.4-14.6c-0.5-0.9-1.2-1.3-2.2-1.4c-5.8,0-11.7,0-17.5,0
		c-0.9,0-1.7,0.4-2.1,1.2c-0.4,0.8-0.9,1.6-1.3,2.4c-2.4,4.2-4.9,8.3-7.3,12.5c-0.4,0.8-0.6,1.6-0.1,2.4c0.4,0.7,0.8,1.4,1.2,2
		c2.5,4.3,5,8.5,7.4,12.8c0.6,1,1.3,1.5,2.5,1.5C154.2,150.1,157,150.2,159.8,150.2z"/>
	<path d="M99.3,198.5c-1.5,0-3,0.1-4.5,0c-3.6-0.4-7.1-1-10.7-1.5c-3.6-0.5-7.1-1.5-10.6-2.5c-2-0.6-4-1.3-6-2.1
		c-2.8-1.1-5.6-2.1-8.2-3.6c-2.1-1.2-3.3-4.2-2.8-6.3c0.7-2.7,3.1-5,5.6-5.2c1.2-0.1,2.3,0.2,3.3,0.7c2.7,1.3,5.4,2.5,8.3,3.4
		c4.2,1.5,8.6,2.6,13,3.3c3.8,0.6,7.7,1.1,11.6,1c4-0.1,7.9,0,11.9-0.6c3.8-0.6,7.6-1.3,11.3-2.4c3.3-1,6.6-2.1,9.7-3.5
		c1.7-0.7,3.3-1.6,5.3-1.6c3,0.1,5.5,2.1,6,5c0.5,3.1-1.2,6-4,7.1c-2.8,1.1-5.5,2.4-8.3,3.4c-2.9,1-5.8,1.8-8.7,2.6
		c-2.9,0.7-5.9,1.4-8.9,1.7C108.2,197.9,103.8,199.1,99.3,198.5z"/>
	<path d="M192.5,98.4c-3.3,0-5.9-2.5-6.2-5.7c-0.5-5.3-1.2-10.6-2.5-15.8c-1.3-5.1-3.2-10-5.3-14.7c-2.1-4.6-4.9-8.9-7.9-12.9
		c-3.7-5-8.1-9.5-12.8-13.5c-1.4-1.2-3-2.2-4.3-3.4c-3.7-3.2-3.2-7.9,0.9-10.4c1.9-1.1,4.7-0.8,6.9,0.8c4,2.9,7.7,6.1,11.2,9.6
		c4.2,4.3,8,9,11.3,14c2.4,3.6,4.5,7.4,6.4,11.3c1.3,2.8,2.5,5.7,3.6,8.7c1.6,4.2,2.6,8.5,3.5,12.8c0.7,3.6,1.4,7.2,1.4,10.9
		c0,1.2,0.3,2.3,0.1,3.5C197.9,96.3,195.4,98.3,192.5,98.4z"/>
	<path d="M2,91.3C2,85.8,2.5,80.4,3.4,75.1c1.2-6.3,2.9-12.4,5.4-18.3c3.1-7.6,7.1-14.6,12.1-21.1c3.8-5,8.1-9.5,12.8-13.6
		c2.4-2.1,5.5-2.3,7.9-0.5c2.4,1.7,3.2,5.1,1.8,7.9c-0.4,0.8-1,1.5-1.7,2.1c-5.3,4.7-10,9.9-14,15.8c-3,4.5-5.6,9.3-7.6,14.3
		c-2.1,5.2-3.6,10.6-4.6,16.2c-0.9,5.3-1.1,10.7-1.2,16.1c-0.1,4.9-3.9,7.4-8.4,6.1c-2.1-0.6-3.4-2.3-3.8-4.6C2,94.1,2,92.6,2,91.3z
		"/>
	<path d="M104.5,164.3c-1.2-0.2-2.3,0.3-3.5,0.3c-5.3,0-10.6-0.5-15.8-1.7c-1.6-0.4-3.3-0.7-4.8-1.5c-3.7-1.9-4.5-6.9-1.5-9.8
		c1.8-1.8,3.9-2.2,6.2-1.6c5.9,1.5,11.8,2.4,17.9,2c2.9-0.2,5.8-0.5,8.6-1.4c1.4-0.4,2.9-0.7,4.3-1.1c2.1-0.5,5.6,1.3,6.5,4.1
		c1.1,3.8-0.8,7.3-4.7,8.3c-2.5,0.7-5.1,1.2-7.6,1.7C108.2,164.1,106.3,164.1,104.5,164.3z"/>
	<path d="M142,52.1c2.5,0.1,4.3,1.4,5.9,3.2c3.2,3.5,6.1,7.1,8.5,11.1c1.7,2.8,3.1,5.8,4.4,8.8c1.5,3.6,2.5,7.4,3.5,11.1
		c0.6,2.2-1.1,5.6-3.8,6.8c-3.8,1.7-7.8-1-8.6-5c-0.9-4.4-2.6-8.4-4.6-12.4c-2.5-5-6-9.2-9.8-13.2c-1.9-2-2.1-4.4-1.2-6.8
		C137.2,53.8,140,52.1,142,52.1z"/>
	<path d="M41.4,93.2c-3.2,0.4-6.8-3.2-6.1-7.5c0.9-5.8,2.3-11.5,4.6-16.9c1.7-3.9,3.7-7.6,6.2-11.1c1.1-1.6,2.3-3.1,3.5-4.6
		c2.4-3.1,6.4-3.6,9.3-1c1.9,1.7,2.6,4.8,1,7.6c-1.1,1.9-2.7,3.5-3.9,5.3c-2.3,3.6-4.2,7.3-5.7,11.3c-1.4,3.9-2.3,7.9-2.8,12
		C47.1,91.1,44.4,93.2,41.4,93.2z"/>
</g>
</svg>
