<?xml version="1.0" encoding="utf-8"?>
<!-- Generator: Adobe Illustrator 17.1.0, SVG Export Plug-In . SVG Version: 6.00 Build 0)  -->
<!DOCTYPE svg PUBLIC "-//W3C//DTD SVG 1.1//EN" "http://www.w3.org/Graphics/SVG/1.1/DTD/svg11.dtd">
<svg version="1.1" id="图层_1" xmlns="http://www.w3.org/2000/svg" xmlns:xlink="http://www.w3.org/1999/xlink" x="0px" y="0px"
	 viewBox="0 0 200 200" style="enable-background:new 0 0 200 200;" xml:space="preserve">
<g>
	<g>
		<path d="M188,85c0,20-0.1,40,0.1,60c0.1,5.4-1.9,8.6-6.9,10.7c-25,10.1-49.8,20.4-74.7,30.8c-4,1.7-7.5,1.6-11.5-0.1
			c-24.4-10.2-48.8-20.3-73.3-30.2c-5.4-2.2-7.7-5.6-7.7-11.4c0.1-40,0-80,0.1-119.9c0-9.4,5.4-12.9,14.1-9.3
			c22.8,9.6,45.7,19.2,68.4,29c3,1.3,5.5,1.4,8.5,0.1c22.5-9.5,45.1-18.8,67.7-28.1c10.4-4.3,15.3-1.1,15.3,10
			C188,46,188,65.5,188,85z M105,174.5c0.8,0.1,1,0.2,1.1,0.2c22.1-9.7,44.1-19.3,66.2-28.9c2.4-1,2.5-2.6,2.5-4.7
			c0-35.1-0.1-70.3,0-105.4c0-3.5-1-3.8-3.9-2.7c-20.8,8-41.6,15.8-62.5,23.6c-2.6,1-3.6,2.2-3.5,5c0.2,9.5,0.1,19,0.1,28.5
			C105,118.2,105,146.3,105,174.5z M96,175.1c0.2-1.2,0.4-1.9,0.5-2.5c0-37.2,0-74.3,0.1-111.5c0-3.1-1.8-3.9-4.1-4.7
			c-20.4-7.7-40.8-15.3-61.1-23.2c-3.9-1.5-4.6-0.7-4.6,3.3c0.1,34.7,0.1,69.3,0,104c0,3,0.8,4.7,3.8,5.9
			c14.4,6.1,28.7,12.5,43,18.8C81,168.5,88.4,171.7,96,175.1z"/>
		<path d="M125.9,88c-4.6,0-7.6-1.9-8.7-5.8c-1.1-3.9,0.1-7.7,3.7-9.4c10.4-5.1,21-9.9,31.7-14.4c3.7-1.5,7.2,0.2,9.4,3.7
			c2.2,3.6,1.3,7-1.5,9.9c-0.8,0.8-1.7,1.6-2.8,2.1c-9.8,4.5-19.6,8.9-29.4,13.3C127.5,87.8,126.4,87.9,125.9,88z"/>
		<path d="M163.1,126.1c-0.1,3.7-2.2,6.3-5.4,7.8c-9.6,4.5-19.2,8.9-29,13.1c-4.8,2.1-9.4,0.2-11.3-4.1c-1.8-4.1,0-8.9,4.7-11.1
			c9.6-4.5,19.2-9,29-13.2C157.2,116,163.3,120.1,163.1,126.1z"/>
		<path d="M163.1,96.6c-0.1,3.1-2.3,5.7-5.7,7.3c-9.5,4.4-19,8.8-28.6,13c-4.6,2-8.9,0.4-11.1-3.7c-1.9-3.5-0.8-8.7,3.4-10.8
			c10.3-5.1,20.7-9.9,31.3-14.2C157.8,86,163.2,90.3,163.1,96.6z"/>
		<path d="M84.8,139.2c0.2,6.2-6.1,10.3-12.1,7.8c-9.9-4.2-19.8-8.7-29.6-13.3c-4.5-2.1-6-6.7-4.2-10.9c1.7-4.1,6.4-6.4,10.9-4.5
			c10.4,4.5,20.6,9.3,30.8,14.2C83.4,133.8,84.4,136.5,84.8,139.2z"/>
		<path d="M48.1,57.9c0.5-0.1,2,0.7,3.5,1.4c9.1,4.1,18.1,8.2,27.1,12.4c5.4,2.5,7.4,7.2,5.3,11.6c-2.2,4.5-7,6-12.3,3.6
			c-9.4-4.2-18.7-8.5-28-12.8c-4.1-1.9-6-5.2-5.1-9.7C39.5,60,42.5,58.1,48.1,57.9z"/>
		<path d="M84.9,109.6c-0.2,5.6-5.9,9.7-11.5,7.3c-10.4-4.3-20.7-9.1-30.8-14c-3.9-1.9-5.2-6.5-3.6-10.3c1.6-3.8,5.9-6.3,9.8-4.7
			c10.9,4.5,21.6,9.5,32.2,14.5C83.6,103.7,84.9,106.5,84.9,109.6z"/>
	</g>
</g>
</svg>
