<?xml version="1.0" encoding="utf-8"?>
<!-- Generator: Adobe Illustrator 17.1.0, SVG Export Plug-In . SVG Version: 6.00 Build 0)  -->
<!DOCTYPE svg PUBLIC "-//W3C//DTD SVG 1.1//EN" "http://www.w3.org/Graphics/SVG/1.1/DTD/svg11.dtd">
<svg version="1.1" id="图层_1" xmlns="http://www.w3.org/2000/svg" xmlns:xlink="http://www.w3.org/1999/xlink" x="0px" y="0px"
	 viewBox="0 0 200 200" style="enable-background:new 0 0 200 200;" xml:space="preserve">
<g>
	<g>
		<path d="M100.6,19.2c19.6,0,39.2,0,58.8,0c2,0,3.6,0.8,5.4,1.3c5,1.5,9,4.5,12,8.7c2.7,3.8,4.4,8,4.4,12.7c0,22.2,0.1,44.5,0,66.7
			c0,7.7-3.4,13.8-9.5,18.5c-4.4,3.4-9.4,4.9-15,4.8c-14.8,0-29.6,0-44.4,0c-3.8,0-6.3-3.1-5.2-6.7c0.5-1.7,1.7-2.8,3.4-3.2
			c1-0.2,2.1-0.4,3.2-0.4c14.7,0,29.4,0,44,0c5.2,0,9.1-2.6,11.6-7.2c1.2-2.1,1.6-4.4,1.6-6.8c0-21.7,0.1-43.4-0.1-65
			c0-5-2.7-8.8-7-11.4c-2.4-1.4-5-1.8-7.7-1.8c-37.2,0-74.3,0-111.5,0c-3.9,0-7.5,0.9-10.5,3.6c-2.7,2.5-4.4,5.5-4.5,9.2
			c-0.1,22.3-0.1,44.6,0,66.8c0,4.2,2.2,7.6,5.6,10.1c1,0.7,2.2,1.4,3.3,1.9c1.6,0.7,2.7,1.8,2.7,3.6c0.1,1.9-0.4,3.6-2.1,4.7
			c-2.1,1.4-4.2,1.4-6.5,0.3c-3.7-1.8-6.8-4.4-9.1-7.8c-1.7-2.5-2.8-5.4-3.7-8.4c-1.2-3.7-0.8-7.4-0.8-11.1
			c0.2-19.6,0-39.3,0.3-58.8c0.2-9.3,4.5-16.8,13-21.3c1.7-0.9,3.8-1.3,5.5-2.1c2.4-1.1,4.8-0.8,7.3-0.8
			C63.6,19.2,82.1,19.2,100.6,19.2L100.6,19.2z"/>
		<path d="M46.7,107.3c0-5.9-0.1-11.8,0-17.6c0.1-5.2,2.4-9.3,7.2-11.5c2.2-1,4.6-1.4,7-2.1c0.9-0.3,1.5,0.3,2,1
			c3.3,4.9,9.5,5.8,14.3,3c1.1-0.7,2.1-1.7,2.9-2.8c0.8-0.9,1.5-1.4,2.7-1.1c2.7,0.6,5.4,1.1,7.8,2.8c3.9,2.7,5.9,6.5,5.9,11.2
			c0.1,8.4,0,16.9,0,25.3c0,0.3,0,0.6,0,1c0.1,0.8,0.6,0.9,1.2,0.5s1-1,1.5-1.5c8.8-8.8,17.6-17.6,26.4-26.4c0.4-0.4,1-0.9,1.5-1.2
			c1-0.7,1.9-0.5,2.7,0.3s1.1,1.7,0.5,2.7c-0.4,0.6-0.8,1.1-1.3,1.6c-10.4,10.4-20.8,20.8-31.2,31.2c-0.8,0.8-1.2,1.6-1.4,2.7
			c-0.4,3.5-3.8,6.9-7.2,7.2c-0.5,0-1.1,0.5-1.3,1c-1,2.7-3,3.6-5.7,3.6c-7.2,0-14.3,0-21.5,0c-2.7,0-4.6-0.9-5.6-3.6
			c-0.2-0.4-0.8-1-1.3-1c-3.9-0.3-7.4-4.4-7.4-8.7C46.8,118.9,46.7,113.1,46.7,107.3z"/>
		<path d="M157.2,182.4c-7.5,0-15,0-22.5,0c-1.7,0-2-0.3-2-2c0-6-0.1-12,0.1-18c0.1-2.1,0.5-4.3,1.2-6.3c1.2-3.4,3.5-6,6.7-7.8
			c2.5-1.4,5.2-2.1,8.1-2.1c5.6,0,11.2,0,16.8,0c5.4,0,9.8,2,13,6.3c1.2,1.6,1.8,3.6,2.6,5.5c1.5,3.7,1.1,7.6,1.1,11.4
			c0,3.6,0,7.2,0,10.8c0,1.4-0.7,2.1-2.2,2.2c-0.9,0-1.8,0-2.6,0C170.7,182.4,164,182.4,157.2,182.4L157.2,182.4z"/>
		<path d="M43.8,182.4c-7.4,0-14.8,0-22.2,0c-0.3,0-0.6,0-1,0c-1-0.1-1.4-0.4-1.4-1.6c0.1-6.3,0-12.6,0.1-18.8
			c0.1-5.3,2.4-9.6,6.6-12.7c2.8-2.1,6-3,9.5-3.1c5.8,0,11.6,0,17.4,0c6.4,0,12.6,4.1,14.6,10.2c0.5,1.7,0.9,3.5,1,5.2
			c0.1,6.3,0,12.6,0,18.8c0,1.7-0.2,1.9-1.9,1.9C58.9,182.4,51.4,182.4,43.8,182.4z"/>
		<path d="M100.6,182.4c-7.6,0-15.3,0-22.9,0c-1.1,0-1.5-0.4-1.5-1.5c0-6.9-0.2-13.8,0.1-20.6c0.3-5.5,3.3-9.5,8.1-12.2
			c2.8-1.5,5.8-2,8.9-1.9c5.1,0.1,10.2,0,15.4,0c6,0,10.8,2.4,14.1,7.4c1.6,2.5,2.5,5.3,2.5,8.3c0,6.3,0,12.6,0,19
			c0,1.1-0.4,1.6-1.5,1.6C116,182.4,108.3,182.4,100.6,182.4z"/>
		<path d="M59,60.9c-0.1-1.2,0.2-2.2,1.2-3c0.4-0.3,0.7-1.1,0.7-1.7c0.8-6.4,6.2-9.3,11.6-8.9c3.4,0.2,6.3,1.5,8,4.5
			c0.9,1.4,1.2,3.2,1.7,4.8c0.2,0.5,0.2,1.1,0.5,1.4c2.1,1.5,1.5,3.5,1,5.4c-0.2,0.7-0.7,1.5-1.2,2c-1.3,1.1-1.6,2.7-2.5,4
			c-1.1,1.6-2.1,3.4-3.6,4.6c-4,3.3-8,2.3-11.3-1.2c-1.2-1.3-1.9-3.1-2.9-4.6c-0.5-0.8-0.9-1.7-1.5-2.4C59.6,64.4,58.9,62.8,59,60.9
			z"/>
	</g>
</g>
</svg>
