<?xml version="1.0" encoding="utf-8"?>
<!-- Generator: Adobe Illustrator 17.1.0, SVG Export Plug-In . SVG Version: 6.00 Build 0)  -->
<!DOCTYPE svg PUBLIC "-//W3C//DTD SVG 1.1//EN" "http://www.w3.org/Graphics/SVG/1.1/DTD/svg11.dtd">
<svg version="1.1" id="图层_1" xmlns="http://www.w3.org/2000/svg" xmlns:xlink="http://www.w3.org/1999/xlink" x="0px" y="0px"
	 viewBox="0 0 200 200" style="enable-background:new 0 0 200 200;" xml:space="preserve">
<g>
	<g>
		<path d="M147,100.7c0-24.1,0-48.3,0-72.4c0-10.8,6.2-17.1,16.9-17.3c5.5-0.1,11-0.1,16.5,0c10.2,0.2,16.6,6.5,16.6,16.6
			c0.1,48.9,0.1,97.9,0,146.8c0,9.8-6.4,16.2-16.2,16.5c-6,0.2-12,0.2-18,0c-9.5-0.3-15.8-6.8-15.8-16.3
			C147,150,147,125.3,147,100.7z M162,60c0,9,0,18,0,26.9c0,6.4,4,10.7,9.8,10.8c5.7,0.1,10.1-4.3,10.1-10.6c0.1-18,0.1-35.9,0-53.9
			c0-6.5-4.2-10.5-10.2-10.4c-6,0.1-9.7,4.1-9.8,10.7C162,42.4,162,51.2,162,60z M184.1,163.1c0.1-6.9-5.2-12.4-12.1-12.6
			c-6.8-0.1-12.6,5.3-12.9,12c-0.3,6.9,5.5,12.8,12.5,12.8C178.7,175.3,184.1,170.1,184.1,163.1z"/>
		<path d="M55,100.9c0,24.3,0,48.6,0,72.9c0,10.5-6.1,16.9-16.5,17.1c-5.7,0.1-11.3,0.1-17,0C11.3,190.7,5,184.3,5,174.2
			C5,125.4,5,76.7,5,27.9C5,17.7,11.3,11.3,21.4,11c5.8-0.2,11.7-0.2,17.5,0C48.7,11.3,55,17.7,55,27.5C55,52,55,76.5,55,100.9z
			 M40,60.3c0-9,0-18,0-26.9c0-6.3-3.7-10.3-9.5-10.5c-6-0.2-10.4,3.9-10.4,10.2c-0.1,18.1-0.1,36.2,0,54.4c0,6.1,4.3,10.3,9.9,10.4
			c5.8,0.1,10-4.3,10.1-10.6C40,78.3,40,69.3,40,60.3z M42.2,163.1c0.1-7-5.1-12.5-12-12.6c-7.2-0.1-12.7,5.3-12.7,12.5
			c0,7,5.3,12.3,12.3,12.3C36.9,175.3,42.1,170.1,42.2,163.1z"/>
		<path d="M76,100.8c0-24.1,0-48.3,0-72.4c0-11,6.2-17.2,17.3-17.4c5.5-0.1,11-0.1,16.5,0c9.8,0.3,16.2,6.7,16.2,16.5
			c0,49,0,97.9,0,146.9c0,9.8-6.3,16.3-16.1,16.6c-5.8,0.2-11.7,0.1-17.5,0c-10.1-0.2-16.4-6.7-16.4-16.7
			C76,149.8,76,125.3,76,100.8z M111,60c0-8.6,0-17.3,0-25.9c0-7-3.7-11.1-9.9-11.2c-6.2,0-10.1,4.1-10.1,11c0,17.6,0,35.2,0,52.9
			c0,6.7,4.2,11.2,10.1,11.1c5.8-0.1,9.8-4.4,9.8-10.9C111,77.9,111,69,111,60z M113.2,162.7c-0.1-7-5.4-12.2-12.4-12.2
			c-6.8,0-12.4,5.6-12.4,12.3c0,7,5.7,12.6,12.8,12.4C108.2,175.1,113.2,169.8,113.2,162.7z"/>
	</g>
</g>
</svg>
