<?xml version="1.0" encoding="utf-8"?>
<!-- Generator: Adobe Illustrator 17.1.0, SVG Export Plug-In . SVG Version: 6.00 Build 0)  -->
<!DOCTYPE svg PUBLIC "-//W3C//DTD SVG 1.1//EN" "http://www.w3.org/Graphics/SVG/1.1/DTD/svg11.dtd">
<svg version="1.1" id="图层_1" xmlns="http://www.w3.org/2000/svg" xmlns:xlink="http://www.w3.org/1999/xlink" x="0px" y="0px"
	 viewBox="0 0 200 200" style="enable-background:new 0 0 200 200;" xml:space="preserve">
<g>
	<g>
		<path d="M100.6,113.8c12.7,0,25.3-0.2,38,0.1c4.1,0.1,5.1-1.4,5-5.1c-0.2-7.5-0.2-15,0-22.5c0.3-11.4,8.3-20.9,18.5-22.3
			c11.1-1.5,20.9,4.4,24.3,14.7c2.9,8.6,0.2,18.3-7.1,23.7c-2.8,2.1-3.6,4.3-3.5,7.5c0.2,8.3,0.1,16.7,0.1,25
			c0,10.1-3.7,14.6-13.8,15.9c-3.4,0.5-4.4,1.6-4.3,4.9c0.2,9.7,0,19.3,0.1,29c0,2.7-0.7,3.7-3.6,3.8c-15.8,0.8-15.8,0.8-15.8-14.7
			c0-6.5-0.1-13,0-19.5c0-2.6-0.8-3.5-3.4-3.4c-22.8,0.1-45.6,0.2-68.5,0.2c-3.1,0-3.5,1.4-3.5,3.9c0.1,9.7-0.1,19.3,0.1,29
			c0.1,3.6-0.7,5.2-4.6,4.9c-3.6-0.4-7.3-0.3-11,0c-3.5,0.3-4.6-0.9-4.5-4.4c0.2-9.5-0.1-19,0-28.5c0-3.1-0.5-4.6-4.1-5.1
			c-9.7-1.2-13.1-5.6-13.1-15.3c0-9-0.1-18,0.1-27c0-2.2-0.4-3.5-2.3-4.9c-9.3-6.7-12.3-17.1-8.1-26.8c4.1-9.5,14.4-14.8,24.6-12.7
			c9.8,2,17.5,11.5,17.8,22.1c0.2,7.8,0.2,15.7,0,23.5c-0.1,3.3,0.9,4.2,4.2,4.2C75,113.7,87.8,113.8,100.6,113.8z"/>
		<path d="M101.2,14c10,0,20-0.1,30,0c3.3,0,6.7,0.4,9.9,1c6.7,1.3,9.7,5,9.7,11.9c0.1,7-0.1,14,0.1,21c0.1,2.6-0.6,4.4-2.7,6
			c-3.5,2.6-6.3,5.9-9.1,9.3c-3.9,4.9-5.9,10.2-5.7,16.6c0.2,6.1-0.3,12.3-0.2,18.5c0,2.7-1,3.4-3.5,3.4c-19.5-0.1-39-0.1-58.5,0
			c-2.7,0-3.4-1-3.3-3.5c0.2-5.2-0.4-10.4,0-15.5c1-11.8-4.4-20.6-13-27.7c-3.1-2.5-4.1-5.1-3.9-8.9c0.3-6.3,0-12.7,0.1-19
			c0.1-6.8,3-10.4,9.7-11.9c7.7-1.7,15.6-0.8,23.4-1C89.8,13.9,95.5,14,101.2,14z"/>
	</g>
</g>
</svg>
