<?xml version="1.0" encoding="utf-8"?>
<!-- Generator: Adobe Illustrator 17.1.0, SVG Export Plug-In . SVG Version: 6.00 Build 0)  -->
<!DOCTYPE svg PUBLIC "-//W3C//DTD SVG 1.1//EN" "http://www.w3.org/Graphics/SVG/1.1/DTD/svg11.dtd">
<svg version="1.1" id="图层_1" xmlns="http://www.w3.org/2000/svg" xmlns:xlink="http://www.w3.org/1999/xlink" x="0px" y="0px"
	 viewBox="0 0 200 200" style="enable-background:new 0 0 200 200;" xml:space="preserve">
<path d="M99,0c0.3,0,0.7,0,1,0c24.6,18.5,51.8,29.5,83.1,29.1c0.1,1.3,0.3,2.3,0.3,3.3c0,26.6,0.1,53.3,0,79.9
	c0,3.6-0.4,7.3-1.1,10.9c-4.2,20.6-16.4,36.4-31.3,50.5c-13,12.2-27.9,21.2-45.1,26.4c-4,0-8,0-12,0c-22.5-6.3-40.5-19.5-55.5-37
	c-14.2-16.5-22.8-35-21.9-57.7c0.9-23.6,0.2-47.3,0.2-70.9c0-1.7,0-3.5,0-5c6.4-0.5,12.1-0.7,17.6-1.5C58.5,24.7,79.9,14.9,99,0z
	 M33.5,45.2c0,2.4,0,4.4,0,6.3c0,19.8,0.1,39.7,0,59.5c-0.1,8,1.6,15.5,5.4,22.6c10.8,20.4,27,35.2,47.3,45.8
	c9,4.7,17.7,4.6,26.8,0.2c15-7.4,27.6-17.9,38.3-30.7c10.7-12.9,16.4-27.3,15.8-44.5c-0.7-17.8-0.1-35.7-0.1-53.5c0-1.8,0-3.6,0-5.6
	c-23.9-2.4-44.9-11.2-64.9-23.1c-1.3-0.8-3.8-0.4-5.2,0.4C77.3,33.9,56.9,42.6,33.5,45.2z"/>
<path d="M93.4,121c14.3-16.6,28.5-32.9,42.9-49.6c4.3,3.8,8.4,7.3,12.7,11c-17.9,20.7-35.6,41.2-53.8,62.2
	c-11.7-10-23.3-19.9-35.2-30.1c3.6-4.3,7-8.4,10.8-12.8C78.4,108.3,85.8,114.6,93.4,121z"/>
</svg>
