<?xml version="1.0" encoding="utf-8"?>
<!-- Generator: Adobe Illustrator 17.1.0, SVG Export Plug-In . SVG Version: 6.00 Build 0)  -->
<!DOCTYPE svg PUBLIC "-//W3C//DTD SVG 1.1//EN" "http://www.w3.org/Graphics/SVG/1.1/DTD/svg11.dtd">
<svg version="1.1" id="图层_1" xmlns="http://www.w3.org/2000/svg" xmlns:xlink="http://www.w3.org/1999/xlink" x="0px" y="0px"
	 viewBox="0 0 200 200" style="enable-background:new 0 0 200 200;" xml:space="preserve">
<g>
	<g>
		<path d="M13.5,110.2c1.7-18,7.7-32.9,18-46c15.1-19.2,34.8-30.5,59.2-33.4c3.6-0.4,5.3-1.5,5-5.4c-0.2-3.2,1.7-5.5,5-5.7
			c3.3-0.2,5.8,1.8,5.5,5.1c-0.4,5.6,2.9,5.8,7,6.3c37,4,70.1,36.6,74.7,73.4c0.2,1.5,1.1,3.2-0.1,4.7c-1.4,0.3-1.7-0.8-2.3-1.5
			c-11.5-13.9-35-15.6-48.4-3.5c-1.6,1.4-2.9,3.2-4.1,5c-1.9,2.8-3.4,2.7-5.2,0c-4-6.3-10-9.5-16.9-11.6c-3.3-1-4.5-0.2-4.5,3.4
			c0.1,21.3,0.1,42.6,0,64c0,3.6,1.2,6.5,5,6.8c3.5,0.3,5.3-2,5.8-5.5c0.5-3.4,2.5-5.6,6.2-5c4,0.6,4.8,3.6,4.5,7.1
			c-0.7,7.7-7.5,13.9-15.5,14.3c-8,0.4-15.2-5.2-16.5-13.1c-0.4-2.6-0.5-5.3-0.5-8c0-20-0.1-40,0.1-60c0-4.4-1.3-5.1-5.2-3.8
			c-6.5,2.2-12.3,5.2-16,11.2c-1.7,2.8-3.5,3.2-5.1,0.3c-9.7-16.9-41.8-17.9-53.2-1C15.7,108.7,15.1,108.9,13.5,110.2z M31.2,85.9
			c1,0,1.5,0.1,1.9,0c13.2-2.3,25.5-0.2,36.5,7.9c2,1.5,3.1,0.7,4.7-0.4c16.4-11.1,37-11.2,53.4,0c2.3,1.6,3.5,1.3,5.5-0.2
			c5.4-4,11.7-6.2,18.3-7.4c6.4-1.2,12.8-0.5,19.3,0.3c-9.1-25.5-39.3-45.1-69.3-45.2C70.9,40.7,40.6,60,31.2,85.9z"/>
	</g>
</g>
</svg>
