<?xml version="1.0" encoding="utf-8"?>
<!-- Generator: Adobe Illustrator 17.1.0, SVG Export Plug-In . SVG Version: 6.00 Build 0)  -->
<!DOCTYPE svg PUBLIC "-//W3C//DTD SVG 1.1//EN" "http://www.w3.org/Graphics/SVG/1.1/DTD/svg11.dtd">
<svg version="1.1" id="图层_1" xmlns="http://www.w3.org/2000/svg" xmlns:xlink="http://www.w3.org/1999/xlink" x="0px" y="0px"
	 viewBox="0 0 200 200" style="enable-background:new 0 0 200 200;" xml:space="preserve">
<g>
	<g>
		<path d="M47.8,112.8c-1-17.8-2-35.6-2.9-53.3C44.6,53.1,46.7,51,53,51c16.2,0,32.3-0.1,48.5,0.1c3.4,0,4.9-1.1,5.1-4.2
			c0.3-4.4,2.8-7.1,6.4-9.4c11.2-7.2,22.2-14.8,33.3-22.1c4.8-3.2,9.7-1.7,10.7,3.1c0.7,3.5-1.2,5.6-3.9,7.4
			c-10.4,6.9-20.8,13.8-31.1,20.8c-1.3,0.9-3.6,1.4-2.8,3.5c0.6,1.7,2.6,0.8,4,0.8c8.7,0.1,17.3,0,26,0.1c6,0,8.2,2.3,7.9,8.2
			c-2,36.6-4,73.1-6.1,109.7c-0.3,5.1-2.4,7.1-7.6,7.1c-28.3,0-56.6,0.1-84.9,0c-5.1,0-7.1-2.1-7.4-7.3
			C49.9,150,48.9,131.4,47.8,112.8z M143.3,81.5c0,0,0.1,0,0.1,0c0.2-4.8,0.4-9.6,0.7-14.5c0.2-2.6-0.7-3.6-3.4-3.5
			c-7.2,0.1-14.3,0.1-21.5,0c-3-0.1-3.9,1.2-4.5,4c-3.5,16.3-7.2,32.5-10.8,48.7c-2.9,13-5.8,26-8.7,38.9c-0.9,3.8,0.2,6.7,4,8
			c3.4,1.2,6.5-0.8,7.9-4.9c0.3-0.9,0.5-1.9,0.8-2.9c3.7-16.7,7.5-33.4,11-50.2c0.7-3.4,2.1-4.3,5.3-4.1c4.8,0.2,9.7-0.1,14.5,0.1
			c2.8,0.1,3.8-0.8,3.9-3.6C142.6,92.1,143,86.8,143.3,81.5z M80.3,63.5c-6.3,0-12.7,0.1-19,0c-2.5,0-3.7,0.7-3.5,3.4
			c0.6,10.3,1.2,20.6,1.6,30.9c0.1,2.6,1.2,3.3,3.7,3.3c9.5-0.1,19-0.1,28.5,0c2.2,0,3.1-0.7,3.6-2.9c2.2-10.4,4.5-20.8,6.9-31.2
			c0.7-2.9-0.3-3.5-2.9-3.4C93,63.6,86.6,63.5,80.3,63.5z"/>
	</g>
</g>
</svg>
