<?xml version="1.0" encoding="utf-8"?>
<!-- Generator: Adobe Illustrator 17.1.0, SVG Export Plug-In . SVG Version: 6.00 Build 0)  -->
<!DOCTYPE svg PUBLIC "-//W3C//DTD SVG 1.1//EN" "http://www.w3.org/Graphics/SVG/1.1/DTD/svg11.dtd">
<svg version="1.1" id="图层_1" xmlns="http://www.w3.org/2000/svg" xmlns:xlink="http://www.w3.org/1999/xlink" x="0px" y="0px"
	 viewBox="0 0 200 200" style="enable-background:new 0 0 200 200;" xml:space="preserve">
<g>
	<g>
		<path d="M32,201c-1.7-0.9-3.5-1.9-5.2-2.8c-10.2-5.7-14.1-18-8.8-28.4c11.6-22.7,23.2-45.3,34.9-67.9c1.8-3.5,2.8-7,2.7-10.9
			c-0.2-11.2-0.1-22.3,0-33.5c0.1-5.8-3.6-10.8-2.8-16.9c0.5-3.6,1.2-4.7,4.9-4.6c13.3,0.2,26.7,0.2,40,0c3.4-0.1,5,0.8,4.4,4.4
			c-3,17.1-2,34.4-2.2,51.6c-0.1,3.3,0.7,6.1,2.3,9c7.7,13.8,8.2,16.8,6.4,34.3c-3.5-6.9-6.1-13.1-9.7-18.7
			c-7.4-11.7-10.3-24.2-9-37.9c0.6-6.4-0.1-13,0.2-19.5c0.1-3.4-1.1-4.2-4.2-4.1c-6,0.2-12,0.3-18,0c-3.5-0.2-4.1,1.2-4.1,4.3
			c0.2,11.8,0,23.7,0.1,35.5c0,2.4-0.5,4.5-1.5,6.7c-11.9,24.2-23.8,48.4-35.7,72.6c-4.9,10-1.1,16.2,10.2,16.2
			c23,0.1,46,0.2,69-0.1c5.7-0.1,10.3,0.9,13.9,5.7c1.5,2,3.5,3.5,5.3,5.3C94,201,63,201,32,201z"/>
		<path d="M135,201c-9-3.1-16-8.5-20.1-17.3c-1.2-2.6-1.8-5.3-1.8-8.2c0.1-31.3,0-62.6,0.1-93.9c0-2.7-0.1-5.2-2.5-7.2
			c-3-2.4-2-6-1.3-8.8c0.7-3,3.9-2.5,6.4-2.5c14.7,0,29.3,0.1,44-0.1c3.5,0,6.8,0.6,7.9,3.8c1,2.9,1.5,6.6-2.2,8.9
			c-2.1,1.3-1.2,3.6-1.2,5.5c0,31,0,62,0,92.9c0,12.2-6.6,21.6-18.1,25.9c-0.4,0.2-0.7,0.6-1.1,0.9C141.7,201,138.3,201,135,201z
			 M156.2,131.8c0-15.3-0.1-30.7,0.1-46c0-3.1-0.9-4-3.9-3.9c-8.8,0.2-17.7,0.2-26.5,0c-3.7-0.1-4.4,1.3-4.4,4.6
			c0.1,29.8,0,59.6,0.1,89.5c0,8.4,9.5,17.2,18.4,17.1c7.9,0,16.2-8.9,16.3-17.3C156.2,161.2,156.2,146.5,156.2,131.8z"/>
		<path d="M174,1c7,3.9,12.3,9,12,17.8c-0.3,7.1-3.5,12.4-10.1,15.3c-5.7,2.5-13.8,0.8-18.5-4c-5-5.1-6.7-11.4-4.2-17.9
			c2.2-5.5,7.2-9,12.7-11.3C168.7,1,171.3,1,174,1z M169.4,10.8c-4.2-0.1-7.8,3.3-7.8,7.4c0,4.1,3.5,7.6,7.6,7.8
			c4.1,0.2,7.5-3.1,7.7-7.5C177,14.2,173.8,10.9,169.4,10.8z"/>
		<path d="M77.6,181c-8.8,0-17.6,0-26.4,0c-9,0-13.3-6-9.5-14.3c4.7-10.3,10.1-20.2,15.1-30.3c0.9-1.8,2.1-2.3,3.9-2.3
			c10.8,0.1,21.6,0.1,32.4,0c2.1,0,3.3,0.7,4.3,2.6c3.5,6.8,7.1,13.5,10.7,20.2c0.8,1.6,1,3.1,1,4.8c0,3.8,0,7.6,0,11.5
			c0,7.6,0,7.6-7.7,7.6c-8,0-16,0-23.9,0C77.6,180.9,77.6,180.9,77.6,181z"/>
		<path d="M138,36.8c6.8,0,11.1,4.2,11.2,10.7c0.1,6.7-5.1,12.3-11.2,12.2c-6-0.1-11.4-6-11.4-12.7C126.5,41.8,132.1,36.8,138,36.8z
			 M138.5,42.9c-3.2-0.5-4.8,1.3-5.2,4c-0.5,3,0.7,5.3,4,5.7c3.1,0.4,5.2-1.1,5.6-4.2C143.2,45.3,141.4,43.5,138.5,42.9z"/>
		<path d="M151.5,146.8c0,8.5,0,17,0,25.5c0,8.7-5,14.5-12.4,14.6c-7.1,0.1-13.3-6.7-13.3-14.6c0-17.3,0.1-34.6-0.1-52
			c0-3.6,0.8-5,4.7-4.8c5.5,0.3,11,0.3,16.5,0c3.9-0.2,4.8,1.2,4.7,4.9C151.3,129.1,151.5,137.9,151.5,146.8z"/>
	</g>
</g>
</svg>
