<?xml version="1.0" encoding="utf-8"?>
<!-- Generator: Adobe Illustrator 17.1.0, SVG Export Plug-In . SVG Version: 6.00 Build 0)  -->
<!DOCTYPE svg PUBLIC "-//W3C//DTD SVG 1.1//EN" "http://www.w3.org/Graphics/SVG/1.1/DTD/svg11.dtd">
<svg version="1.1" id="图层_1" xmlns="http://www.w3.org/2000/svg" xmlns:xlink="http://www.w3.org/1999/xlink" x="0px" y="0px"
	 viewBox="0 0 200 200" style="enable-background:new 0 0 200 200;" xml:space="preserve">
<g>
	<g>
		<path d="M73.5,198.7c-19.5,0-39,0-58.5,0c-6.4,0-9.6-2.1-11.1-7.2c-1.7-5.6,1.2-11.6,6.9-12.2c5.1-0.5,5.2-3,5.2-6.9
			c-0.1-50,0.3-100-0.2-150C15.6,8.2,24.6,2.9,35.3,3.1c26.3,0.4,52.7,0.1,79,0.1c12.9,0,18.7,5.7,18.7,18.5c0,14,0.1,28-0.1,42
			c-0.1,3.9,0.8,5.5,5.2,5.5c16.9,0.1,27.7,11.2,27.8,28c0,17.2,0,34.3,0,51.5c0,1.5-0.1,3,0.1,4.5c0.6,3.5,2.7,5.8,6.4,5.8
			c3.7,0.1,5.8-2.1,6.5-5.6c0.2-1.3,0.2-2.7,0.2-4c0-27.8-0.1-55.7,0.1-83.5c0-4.5-1.4-6-5.7-5.5c-1.8,0.2-3.7,0-5.5,0
			c-3.9,0.1-7-1.6-8.5-5c-1.6-3.6-0.8-7.2,2-10.1c2.7-2.7,5.3-5.5,8.1-8.1c1.7-1.6,1.7-2.8,0-4.5c-3.7-3.6-7.3-7.3-10.9-11
			c-4.5-4.6-5-10.9-1.4-14.8c3.7-3.9,10.1-3.8,14.7,0.7c7.2,7,14.2,14.1,21.1,21.3c3.7,3.9,5.5,8.7,5.5,14.1
			c0,36.2,0.1,72.3,0,108.5c-0.1,15.2-11.7,26.5-26.8,26.4c-14.6-0.1-25.7-11.6-25.7-26.8c0-18,0-36,0-54c0-4-0.8-7.3-5.1-8.7
			c-6-2-8.2-0.4-8.2,5.9c0,26.7,0,53.3-0.1,80c0,3.3,0.7,5.1,4.3,5.9c4.9,1.1,7.8,5.5,7.3,9.9c-0.6,4.8-4.3,8.3-9.5,8.6
			c-3.2,0.2-6.3,0.1-9.5,0.1C108.1,198.7,90.8,198.7,73.5,198.7z M74.3,23.1c-9.5,0-19-0.1-28.5,0c-7,0.1-10.2,3.2-10.3,10
			c-0.1,14-0.1,28,0,42c0,6.9,3.2,10.1,10.2,10.2c19.2,0.1,38.3,0.1,57.5,0c6.9-0.1,10-3.4,10-10.3c0.1-13.8,0.1-27.7,0-41.5
			c0-7.2-3.2-10.3-10.4-10.4C93.3,23.1,83.8,23.1,74.3,23.1z"/>
	</g>
</g>
</svg>
