<?xml version="1.0" encoding="utf-8"?>
<!-- Generator: Adobe Illustrator 17.1.0, SVG Export Plug-In . SVG Version: 6.00 Build 0)  -->
<!DOCTYPE svg PUBLIC "-//W3C//DTD SVG 1.1//EN" "http://www.w3.org/Graphics/SVG/1.1/DTD/svg11.dtd">
<svg version="1.1" id="图层_1" xmlns="http://www.w3.org/2000/svg" xmlns:xlink="http://www.w3.org/1999/xlink" x="0px" y="0px"
	 viewBox="0 0 200 200" style="enable-background:new 0 0 200 200;" xml:space="preserve">
<g>
	<g>
		<path d="M112,201c-7.3,0-14.7,0-22,0c-0.7-1-1.7-0.8-2.7-1c-38.1-6.2-64.5-27.1-79.5-62.7C4.3,129.2,3.3,120.4,1,112
			c0-7.3,0-14.7,0-22c1-0.7,0.8-1.7,1-2.7C8.3,49,29.3,22.5,65.1,7.6C73.1,4.3,81.7,3.3,90,1c7.3,0,14.7,0,22,0c0.7,1,1.7,0.8,2.7,1
			c38.5,6.3,65.1,27.7,79.9,63.7c3.2,7.8,4.1,16.3,6.4,24.4c0,7.3,0,14.7,0,22c-1.1,0.6-0.8,1.7-1,2.6c-6.2,37.9-27,64.3-62.3,79.4
			C129.5,197.6,120.6,198.6,112,201z M101,9.2c-50.6,0-92.1,41.6-91.8,91.9c0.3,50.8,41.9,92.3,92,91.7c50.9-0.6,91.3-41,91.6-91.7
			C193.1,50.8,151.5,9.2,101,9.2z"/>
		<path d="M150.9,118c0.7,3.9-1.1,4.3-4.2,3.2c-2.8-1-4.9-2.8-6.9-4.8c-4.1-3.9-6.6-3.9-10.7-0.1c-8.2,7.4-14.2,7.6-22.3,0.5
			c-4.9-4.3-6.7-4.4-11.5-0.1c-8.3,7.2-14.2,7.2-22.3-0.2c-4.3-3.9-6.7-3.8-11.1,0.2c-1.6,1.4-3.2,3-5.1,3.9c-1.7,0.7-4.5,3-5.4,0.1
			c-0.7-2.2-2.3-5.9,1.9-7.7c1.6-0.7,2.9-2.2,4.3-3.4c6.7-5.9,13.5-6,20.1-0.2c6.5,5.6,7.1,5.6,13.6-0.2c6.2-5.5,13.5-5.4,19.7,0.2
			c6,5.5,7,5.5,13.2,0c6.6-5.8,13.7-6.1,20,0.1C146.7,112,152.3,112.4,150.9,118z"/>
		<path d="M51.1,97c-0.3-2.4-0.2-4.5,2.7-5c0.3-0.1,0.6-0.3,0.8-0.5c13.1-9.3,13.1-9.3,26-0.2c2.9,2.1,5.5,1.9,8.1-0.4
			c2.2-2,4.2-4.4,7.1-5.4c5.9-2.1,11-0.9,15.6,3.5c5.6,5.3,7.1,5.2,12.9-0.1c6.6-6,13.9-6.1,20.4,0.1c2.8,2.7,8,3.8,6.6,9.7
			c-0.5,2.3-1.2,2.7-3.2,2.2c-3.2-0.7-5.6-2.7-8-4.9c-4.4-4.1-6.7-4.2-11.1-0.3c-8.5,7.6-14.2,7.5-22.6-0.1
			c-4.1-3.7-6.6-3.7-10.7,0.1c-8.1,7.5-14.1,7.5-22.2,0.2c-4.7-4.2-6.8-4.2-11.5,0.1c-1.8,1.7-3.6,3.4-6.1,4.3
			C52.5,101.4,50.1,101.6,51.1,97z"/>
		<path d="M51.1,138.5c-0.6-2.6,0.3-4.2,2.9-5.2c1.5-0.5,2.5-2.1,3.8-3.2c6.3-5.6,13.4-5.6,19.7,0.1c6.3,5.7,7.2,5.6,13.7-0.1
			c6.3-5.6,13.4-5.6,19.7,0.1c6.4,5.7,7.2,5.7,13.7-0.1c6.3-5.6,13.3-5.6,19.7,0.1c1.6,1.4,3,3,5.1,4c3.5,1.7,1.8,5.1,1.3,7.4
			c-0.5,2.4-3.1,0.6-4.6,0.2c-3-0.8-5-3.2-7.2-5.3c-3.1-2.9-6.1-2.7-9.3,0c-9.9,8.4-14.1,8.4-24-0.1c-3.2-2.7-6.1-2.7-9.3,0.1
			c-9.8,8.4-13.9,8.4-24-0.1c-3.2-2.7-6.1-2.9-9.3,0.1c-2.2,2.1-4.2,4.3-7.1,5.3C52.8,142.9,50,143.4,51.1,138.5z"/>
		<path d="M51,75.5c-0.5-2.1,0.4-3.5,2.8-4.6c1.6-0.7,2.8-2.3,4.2-3.5c5.7-5.1,13.3-5.2,19-0.3c7.3,6.3,7.3,6.3,14.3,0.2
			c6.2-5.3,13.6-5.1,19.8,0.4c6.2,5.6,7,5.6,13.2,0c6.5-5.8,13.8-5.8,20.1,0.1c1.5,1.4,2.8,2.8,4.7,3.7c3.6,1.7,2.1,5.2,1.6,7.4
			c-0.6,2.3-3.3,0.8-5,0.2c-2.8-1-4.6-3.2-6.7-5.1c-3.2-2.9-6.1-2.7-9.3,0c-10.1,8.6-14.2,8.6-24.1,0c-3.2-2.8-6.1-2.7-9.3,0.1
			c-9.6,8.4-14.3,8.5-23.7,0.2c-3.2-2.9-6.3-3.3-9.7-0.2c-2.1,1.9-4,4-6.7,5.1C51.8,81,51,80.5,51,75.5z"/>
	</g>
</g>
</svg>
