<?xml version="1.0" encoding="utf-8"?>
<!-- Generator: Adobe Illustrator 17.1.0, SVG Export Plug-In . SVG Version: 6.00 Build 0)  -->
<!DOCTYPE svg PUBLIC "-//W3C//DTD SVG 1.1//EN" "http://www.w3.org/Graphics/SVG/1.1/DTD/svg11.dtd">
<svg version="1.1" id="图层_1" xmlns="http://www.w3.org/2000/svg" xmlns:xlink="http://www.w3.org/1999/xlink" x="0px" y="0px"
	 viewBox="0 0 200 200" style="enable-background:new 0 0 200 200;" xml:space="preserve">
<g>
	<g>
		<path d="M149.4,128.8c-0.9,26.5-22.6,47.5-49,47.2c-26.3-0.4-47.8-22-47.8-48.3c0-7.4,2.5-14.4,5.2-21.2
			C68.6,79.1,83.7,54,99.1,29.1c1.2-2,2.1-2.9,3.7-0.3c16.2,26.4,32.2,52.8,43,82c1.4,3.7,2.2,7.7,3.1,11.5
			C149.3,124.5,149.2,126.7,149.4,128.8z M141.2,127c0-0.4,0.1-2.1-0.3-3.8c-0.6-2.9-1.3-5.9-2.3-8.7c-9-25-22.4-47.8-35.9-70.5
			c-2.1-3.5-2.8-0.9-3.8,0.7c-9.3,15.3-18.2,30.9-26,47.2C68,102.3,62.6,112.6,61,124c-2.9,22.2,14.9,42.5,37.8,43.9
			C121.5,169.2,141.2,150.8,141.2,127z"/>
		<path d="M134,127.6c-0.4,16.4-15,31-30.9,31.4c-3,0.1-6,0-6.1-4c-0.1-3.6,2.6-3.9,5.5-4.2c13.2-1.5,21.9-10.2,23.2-23.2
			c0.3-3.1,0.9-5.9,4.7-5.6C134.1,122.3,134.3,125.2,134,127.6z"/>
	</g>
</g>
</svg>
