<?xml version="1.0" encoding="utf-8"?>
<!-- Generator: Adobe Illustrator 17.1.0, SVG Export Plug-In . SVG Version: 6.00 Build 0)  -->
<!DOCTYPE svg PUBLIC "-//W3C//DTD SVG 1.1//EN" "http://www.w3.org/Graphics/SVG/1.1/DTD/svg11.dtd">
<svg version="1.1" id="图层_1" xmlns="http://www.w3.org/2000/svg" xmlns:xlink="http://www.w3.org/1999/xlink" x="0px" y="0px"
	 viewBox="0 0 200 200" style="enable-background:new 0 0 200 200;" xml:space="preserve">
<g>
	<g>
		<path d="M42,135.8c8.3-1.6,16.1-0.7,23.9-0.7c3.5,0,5.5,2.3,5.4,5.8c-0.1,3.8-2.5,5.7-6.1,5.9c-5.2,0.2-10.3,0-15.5,0.2
			c-4.7,0.1-7.6,2.7-7.8,6.7c-0.2,4.1,2.7,7.4,7.5,7.4c17,0.3,34,0.3,51,0.4c10.5,0.1,21,0,31.5,0c5.4,0,8.2,2.1,7.9,6.1
			c-0.3,4.8-3.8,5.8-7.8,5.9c-27.3,0.1-54.7,0.3-82,0.1C38,173.5,30,165,30,152.8c0-33.5,0-67,0-100.5c0-14.3,7.6-21.8,22-21.8
			c34.7,0,69.3,0,104,0c7.8,0,9,1.3,9,9c0,27.8,0,55.7,0,83.5c0,3.2-0.3,6.1-3.5,7.6c-4.3,1.9-8.3-1.5-8.3-7.3
			c-0.1-16.3,0-32.7,0-49c0-9.3-0.1-18.7,0.1-28c0.1-3.4-1.1-4.2-4.3-4.2c-19.5,0.1-39,0.2-58.5,0c-3.7,0-4.4,1.4-4.3,4.7
			c0.2,8.2,0,16.3,0.1,24.5c0,3.1-0.1,6.1-3.5,7.6c-3,1.3-5.3,0-7.7-1.9C67.6,71,67.5,71,60.1,77c-2.4,1.9-4.8,3.2-7.8,1.9
			c-3.3-1.4-3.5-4.4-3.5-7.6c0.1-8.3,0.1-16.7,0-25c0-1.2,0.7-2.9-1.2-3.3c-1.4-0.3-2.5,0.6-3.5,1.6c-1.3,1.4-2.1,3-2.1,4.9
			C42,78.1,42,106.7,42,135.8z M74.2,60.5c0-3.2,0-6.1,0-9c0-9.8-1.2-10.8-11-9.3c-1.6,0.3-2.4,0.9-2.3,2.5c0,5.2,0,10.4,0,15.9
			C67.1,57,67.8,57,74.2,60.5z"/>
		<path d="M147.2,111.7c0,4.5-1.8,11.6-6.3,17.6c-2.3,3.2-1.4,4.7,0.9,6.9c9.2,9,18.2,18.1,27.3,27.2c2.6,2.6,4,5.4,1.7,8.8
			c-2.4,3.5-6.4,3.4-10.3-0.4c-9.2-9.2-18.4-18.4-27.4-27.7c-2.4-2.5-4.1-3-7.5-1.3c-15,7.5-33.6,3.7-44.7-8.6
			c-11.5-12.8-13.1-31.5-4-45.8c9.2-14.5,26.4-21,43.1-16.3C135.9,76.6,147.2,91.8,147.2,111.7z M135.2,108.5c0-14.5-11.6-26-26-26
			c-14.6,0-26.1,11.4-26.1,25.9c-0.1,14.7,11.7,26.5,26.2,26.4C123.6,134.6,135.2,122.8,135.2,108.5z"/>
	</g>
</g>
</svg>
