<?xml version="1.0" encoding="utf-8"?>
<!-- Generator: Adobe Illustrator 17.1.0, SVG Export Plug-In . SVG Version: 6.00 Build 0)  -->
<!DOCTYPE svg PUBLIC "-//W3C//DTD SVG 1.1//EN" "http://www.w3.org/Graphics/SVG/1.1/DTD/svg11.dtd">
<svg version="1.1" id="图层_1" xmlns="http://www.w3.org/2000/svg" xmlns:xlink="http://www.w3.org/1999/xlink" x="0px" y="0px"
	 viewBox="0 0 200 200" style="enable-background:new 0 0 200 200;" xml:space="preserve">
<g>
	<g>
		<path d="M194.1,134.6c0.1,3.3-3.4,5.5-6.3,3.7c-1.5-0.9-2.8-2.4-4-3.7c-11.2-12.1-22.5-24.1-33.5-36.4c-2.4-2.7-3.7-2.7-6,0
			c-6.3,7.5-13,14.7-19.3,22.3c-2.3,2.8-3.5,2.9-5.8-0.1c-16.6-22.1-33.5-44-50.1-66.1c-2.7-3.6-3.8-3.8-6.2,0.3
			c-15,25.4-30.2,50.6-45.4,75.8c-0.9,1.4-1.7,2.9-2.8,4.1c-1.6,1.6-3.5,1.8-5.4,0.5c-1.8-1.3-2.4-3.1-1.5-5.3
			c0.5-1.1,1.1-2.1,1.7-3.1c17.6-29.2,35.2-58.4,52.6-87.8c2.4-4.1,3.5-3.7,6.1-0.2c16.9,22.5,34.1,44.8,51,67.3
			c2.5,3.3,3.8,3.8,6.7,0.2c5.9-7.4,12.5-14.3,18.6-21.5c1.8-2.1,2.9-2.4,5-0.2c14,15.4,28.2,30.6,42.2,45.9
			C192.9,131.5,194.1,132.7,194.1,134.6z"/>
		<path d="M99.5,163.8c-23,0-46,0-69,0c-1.3,0-2.7,0.1-4-0.1c-2.5-0.2-3.9-1.7-4-4.2c-0.1-2.8,1.5-4.3,4.2-4.5c1.2-0.1,2.3,0,3.5,0
			c46,0,91.9,0,137.9,0c1.5,0,3-0.1,4.5,0.2c2.2,0.5,3.3,2,3.3,4.3c0,2.3-1.3,3.8-3.5,4.2c-1.5,0.2-3,0.1-4.5,0.1
			C145.2,163.8,122.3,163.8,99.5,163.8z"/>
		<path d="M131.9,13c37.5-0.2,60.9,37.8,44.9,69.2c-0.3,0.6-0.6,1.2-1,1.8c-1.5,2.8-3.6,4.6-6.8,2.9c-3-1.6-2.7-4.3-1.4-6.9
			c1.7-3.5,3-7,3.9-10.7c3.7-16.6-4.6-34.2-20.2-42.3c-15.6-8.1-34.8-4.8-46.1,7.9c-1.3,1.5-2.6,3-3.9,4.6c-1.9,2.4-4.2,3.6-6.8,1.4
			c-2.3-1.9-1.9-4.3-0.2-6.7C104.1,20.6,117.4,13.5,131.9,13z"/>
		<path d="M99.3,180c15.5,0,31,0,46.4,0c3.3,0,6.4,0.4,6.3,4.5c-0.1,4.1-3.3,4.4-6.5,4.4c-31,0-61.9,0-92.9,0
			c-3.3,0-6.4-0.7-6.4-4.6c0.1-3.9,3.2-4.3,6.5-4.3C68.3,180,83.8,180,99.3,180z"/>
	</g>
</g>
</svg>
