<?xml version="1.0" encoding="utf-8"?>
<!-- Generator: Adobe Illustrator 17.1.0, SVG Export Plug-In . SVG Version: 6.00 Build 0)  -->
<!DOCTYPE svg PUBLIC "-//W3C//DTD SVG 1.1//EN" "http://www.w3.org/Graphics/SVG/1.1/DTD/svg11.dtd">
<svg version="1.1" id="图层_1" xmlns="http://www.w3.org/2000/svg" xmlns:xlink="http://www.w3.org/1999/xlink" x="0px" y="0px"
	 viewBox="0 0 200 200" style="enable-background:new 0 0 200 200;" xml:space="preserve">
<g>
	<g>
		<path d="M53,1c3.4,1.2,6.9,2,10.2,3.5c18.2,8.3,27.2,22.8,27.6,42.5c0.3,11.8,0.1,23.6,0,35.4c0,6.2-1.8,8-8.1,8
			c-12.1,0-24.3,0-36.4,0C24.2,90.4,6.5,75.9,2,54.2c-0.2-0.8-0.1-1.7-1-2.2c0-4,0-8,0-12c2.3-8.5,5-16.7,11-23.5
			C19.3,8.2,28.7,3.9,39,1C43.7,1,48.3,1,53,1z M79.5,59.5c0-5,0.1-10,0-15c-0.6-18-15.3-32.3-33.3-32.4C28.1,12,13,26.4,12.2,44.5
			C11.4,62.1,24.9,77.8,42.6,79c11.1,0.8,22.3,0.3,33.4,0.5c2.6,0,3.5-1,3.5-3.5C79.4,70.5,79.5,65,79.5,59.5z"/>
		<path d="M1,150c1.6-1.9,1.3-4.4,1.9-6.5C8.5,125,25.2,112,44.5,111.6c13-0.3,26,0,39-0.1c4.8,0,7.3,2.2,7.3,6.8
			c0,13.8,0.5,27.7-0.5,41.5c-1.4,20.1-15.1,35.4-34.7,40.2c-0.9,0.2-2.1-0.1-2.6,1.1c-4.7,0-9.3,0-14,0c-10.3-2.9-19.7-7.2-27-15.5
			c-6-6.8-8.7-15-11-23.5C1,158,1,154,1,150z M79.5,142.6c0-5.5-0.1-11,0-16.5c0-2.5-0.7-3.6-3.4-3.6c-11,0.2-22-0.3-32.9,0.4
			c-18.3,1.3-32,16.9-31.1,34.5c1,18.5,16.1,32.8,34.4,32.5c18.3-0.3,32.7-15.1,32.9-33.8C79.5,151.5,79.5,147,79.5,142.6z"/>
		<path d="M201,52c-1.6,1.2-1.1,3-1.5,4.6c-5.3,20.2-22.6,33.8-43.4,33.9c-12.3,0.1-24.6,0-36.9,0c-6.2,0-8.1-1.8-8.1-8
			c0-13.1-0.5-26.3,0.4-39.4c1.6-21.6,14.7-36.1,35.8-41.2c0.6-0.1,1.1-0.6,1.6-0.9c4.7,0,9.3,0,14,0c10.3,2.9,19.8,7.1,27,15.5
			c5.9,6.8,8.7,15,11,23.5C201,44,201,48,201,52z M122.5,58.4c0,6.5,0.1,11.9,0,17.2c-0.1,2.6,0.6,4,3.6,3.9
			c11.3-0.2,22.6,0.3,33.9-0.5c16.9-1.2,30.1-16.5,29.9-33.6c-0.2-17.4-14.3-32.2-31.6-33.2c-17.2-1-32.7,11.3-35.2,28
			C122,46.7,122.8,53.2,122.5,58.4z"/>
		<path d="M149,201c-3.4-1.2-6.9-2-10.2-3.5c-18.2-8.3-27.2-22.7-27.6-42.5c-0.3-11.8-0.1-23.6,0-35.4c0-6.2,1.8-8,8.1-8
			c12.5,0,25-0.1,37.4,0c20.3,0.2,37.4,13.8,42.7,33.4c0.5,1.7,0,3.7,1.6,5c0,4,0,8,0,12c-1.1,0.8-0.8,2.1-1.1,3.2
			c-2.6,11.5-8.6,20.6-18.1,27.6c-5.7,4.2-12.4,5.9-18.9,8.2C158.3,201,153.7,201,149,201z M141.9,122.8c0-0.1,0-0.2,0-0.3
			c-5.2,0-10.3,0.1-15.5-0.1c-3-0.1-4.1,1-4,4c0.1,10.5-0.2,21,0.1,31.4c0.5,17.6,15.5,31.9,33.2,32c18.1,0.1,33-14.1,34-32.4
			c1-17.3-12.7-33.1-30.4-34.6C153.6,122.4,147.8,122.8,141.9,122.8z"/>
	</g>
</g>
</svg>
