<?xml version="1.0" encoding="utf-8"?>
<!-- Generator: Adobe Illustrator 17.1.0, SVG Export Plug-In . SVG Version: 6.00 Build 0)  -->
<!DOCTYPE svg PUBLIC "-//W3C//DTD SVG 1.1//EN" "http://www.w3.org/Graphics/SVG/1.1/DTD/svg11.dtd">
<svg version="1.1" id="图层_1" xmlns="http://www.w3.org/2000/svg" xmlns:xlink="http://www.w3.org/1999/xlink" x="0px" y="0px"
	 viewBox="0 0 200 200" style="enable-background:new 0 0 200 200;" xml:space="preserve">
<g>
	<g>
		<path d="M137.6,92c-7,0-12.9,0.1-18.7,0c-5.5-0.1-8.7-3.2-8.8-8.7c-0.1-11.6-0.6-23.3,0-34.9c1.1-20.8,18.3-37.5,39-38.3
			c21.3-0.8,39.3,14.2,42.5,35.6c3,19.7-10.2,39.5-29.9,44.9C153.4,92.8,144.9,91.7,137.6,92z"/>
		<path d="M137.4,110.2c5.9,0.4,13-0.6,20.2,0.6c21.5,3.6,36.3,22.8,34.3,44.4c-2,21.2-20,37.1-41.9,36.8
			c-20.9-0.2-38.7-17.1-39.8-38.4c-0.6-11.6-0.2-23.3,0-34.9c0.1-5.5,3.3-8.4,9-8.5C124.9,110.1,130.5,110.2,137.4,110.2z
			 M139.6,119c-6.5,0-11.8,0.1-17.1,0c-2.4-0.1-3.6,0.4-3.5,3.2c0.1,10.2-0.3,20.3,0.1,30.5c0.6,16.3,13.7,29.7,29.4,30.5
			c17.6,0.9,32.3-10.8,34.5-27.3c2.2-16.9-8.2-32.1-24.6-36.1C151.8,118.2,145.1,119.5,139.6,119z"/>
		<path d="M65.8,110.2c5.8,0,11.7-0.1,17.5,0c4.8,0.1,8.4,2.9,8.4,7.5c-0.1,13.5,1.6,27-0.5,40.4c-3.4,21.7-23.6,36.5-45.2,33.8
			c-21.6-2.6-37-21.4-35.9-43.7c1-20.8,19.4-37.9,40.8-38C55.8,110.1,60.8,110.2,65.8,110.2z M83,138.8c0-5.8-0.2-10.8,0.1-15.8
			c0.2-3.4-1.1-4.1-4.2-4.1c-9.3,0.2-18.7,0-28,0.1c-16.5,0-30.6,12.7-31.9,28.5c-1.4,17.5,9.7,32.4,26.3,35.3
			c16.5,2.9,32.5-7.3,36.8-23.5C83.9,152.3,82.7,145.1,83,138.8z"/>
		<path d="M91.8,63.7c0,7.5,0.1,13.5,0,19.5c-0.1,4.9-2.9,8.7-7.2,8.7c-13.9,0-28,1.6-41.8-0.8C22.6,87.5,8.8,68.9,10,47.8
			C11.1,28.2,28,11.5,48.1,10.1c20.3-1.4,39,12.9,42.9,32.7C92.5,50.2,91.4,57.7,91.8,63.7z M62.4,83.2c6.5,0,11.8-0.1,17.1,0
			c2.4,0.1,3.6-0.5,3.6-3.3c-0.1-10,0.2-20-0.1-30c-0.5-16.8-13.6-30.2-30-31.1C36.2,18,21.4,29.7,19.1,45.7
			c-2.5,17.1,7.8,32.4,24.5,36.6C50.2,83.9,56.9,82.8,62.4,83.2z"/>
	</g>
</g>
</svg>
