<?xml version="1.0" encoding="utf-8"?>
<!-- Generator: Adobe Illustrator 17.1.0, SVG Export Plug-In . SVG Version: 6.00 Build 0)  -->
<!DOCTYPE svg PUBLIC "-//W3C//DTD SVG 1.1//EN" "http://www.w3.org/Graphics/SVG/1.1/DTD/svg11.dtd">
<svg version="1.1" id="图层_1" xmlns="http://www.w3.org/2000/svg" xmlns:xlink="http://www.w3.org/1999/xlink" x="0px" y="0px"
	 viewBox="0 0 200 200" style="enable-background:new 0 0 200 200;" xml:space="preserve">
<g>
	<g>
		<path d="M95,201c-5.7-2.2-11.7-3.4-16.9-6.8c-15.1-9.8-22.7-27.5-19-44.9c3.6-17.1,17.3-30.4,34.5-33.2c3.9-0.6,4.8-2.1,4.6-5.7
			c-0.3-5.7,0-11.3-0.1-17c-0.1-7.4,0.9-6.4-6.3-6.5c-12.8-0.1-25.7,0-38.5-0.1c-0.3,0-0.6-0.2-1.6-0.6C68,58.1,84.2,30,100.9,1
			c16.6,28.8,32.8,56.8,49.6,85.8c-3,0-5.1,0-7.2,0c-11.8,0-23.7,0.1-35.5-0.1c-3,0-4.6,0.5-4.4,4c0.2,7,0.1,14,0,21
			c0,2.7,0.9,3.7,3.6,4.1c16.2,2.4,27.6,11.5,33.5,26.5c6.2,15.8,3.5,30.8-7.6,43.9c-6.4,7.5-14.7,11.7-24.3,13.8
			c-0.9,0.2-2,0-2.7,0.9C102.3,201,98.7,201,95,201z M69.9,158.2c0.1,17.2,14.1,31,31.3,30.9c17.1-0.1,31-14.3,30.8-31.4
			c-0.2-16.9-14.1-30.7-31.1-30.6C83.7,127,69.8,141,69.9,158.2z M69.9,76.6c21.1,0,41.1,0,62.1,0C121.6,58.5,111.5,41,101,22.8
			C90.3,41.2,80.3,58.6,69.9,76.6z"/>
	</g>
</g>
</svg>
