<?xml version="1.0" encoding="utf-8"?>
<!-- Generator: Adobe Illustrator 17.1.0, SVG Export Plug-In . SVG Version: 6.00 Build 0)  -->
<!DOCTYPE svg PUBLIC "-//W3C//DTD SVG 1.1//EN" "http://www.w3.org/Graphics/SVG/1.1/DTD/svg11.dtd">
<svg version="1.1" id="图层_1" xmlns="http://www.w3.org/2000/svg" xmlns:xlink="http://www.w3.org/1999/xlink" x="0px" y="0px"
	 viewBox="0 0 200 200" style="enable-background:new 0 0 200 200;" xml:space="preserve">
<g>
	<g>
		<path d="M19.8,92.9C19.7,50.8,47.9,16.1,87.6,8.5c31.7-6.1,66.1,10.2,82.6,39.3c19,33.3,15.1,73.4-9.8,101.8
			c-5.2,5.9-11.3,10.8-18,15c-3.5,2.2-6.8,3-9.6-0.8c-2.3-3.1-0.9-6.5,3.3-9.4c26.2-17.9,37.1-42.9,32.9-74.1
			c-4.6-34.4-32.7-60.4-67.3-60.8c-27.2-0.3-47.9,13-60.8,36.9c-18.6,34.6-8.4,74.8,23.7,97.2c4.5,3.1,5.7,6.2,3.7,9.4
			c-2,3.2-5.5,3.6-9.6,1c-19.5-12.5-31.4-30.3-36.7-52.7C20.5,105,19.7,98.6,19.8,92.9z"/>
		<path d="M104.7,103.4c2.6-3.8,4.8-7.5,7.3-10.9c6.1-8.4,13.9-14.7,23.2-19.3c3.7-1.8,7.2-2.1,9.5,1.9c1.9,3.3,0.3,6.7-4.4,9
			c-19.9,9.8-28,27.6-32.3,47.8c-3.6,16.6-4.1,33.3-2.2,50.2c0.2,1.8,0.3,3.7,0.3,5.5c0,3.8-1.8,6.7-5.6,7.1c-3.7,0.4-5.8-2-6.6-5.6
			c-1.5-7.4-1.4-14.9-1.4-22.4c0-2.3-0.1-4.7,0.3-7c1.5-9.3-3.5-15.1-10.5-19.8c-4.3-2.9-5.8-6.1-4-9.3c1.9-3.4,5.8-3.7,10.5-0.9
			c6.4,3.9,6,3.7,8.3-3.4C99,120.6,98,116,95,111c-5.6-9.4-10.6-19.2-15.9-28.8c-2.4-4.4-2-7.9,1.3-9.5c4.1-2.1,7-0.3,9,3.4
			C94.5,85,99.5,94,104.7,103.4z"/>
	</g>
</g>
</svg>
