<?xml version="1.0" encoding="utf-8"?>
<!-- Generator: Adobe Illustrator 17.1.0, SVG Export Plug-In . SVG Version: 6.00 Build 0)  -->
<!DOCTYPE svg PUBLIC "-//W3C//DTD SVG 1.1//EN" "http://www.w3.org/Graphics/SVG/1.1/DTD/svg11.dtd">
<svg version="1.1" id="图层_1" xmlns="http://www.w3.org/2000/svg" xmlns:xlink="http://www.w3.org/1999/xlink" x="0px" y="0px"
	 viewBox="0 0 200 200" style="enable-background:new 0 0 200 200;" xml:space="preserve">
<g>
	<g>
		<path d="M201,185c-2.1,2.8-5,3.5-8.3,3.5c-61.1,0-122.2,0-183.3,0c-3.4,0-6.1-1-8.4-3.5c0-1.7,0-3.3,0-5c2.4-2.7,5.5-3.1,9-3.1
			c60.7,0.1,121.3,0.1,182,0c3.5,0,6.6,0.3,9,3.1C201,181.7,201,183.3,201,185z"/>
		<path d="M104.6,164.5c-22.2,0-36.4-18.2-31-39.8c3.6-14.2,11.1-26.6,19-38.8c2.2-3.4,4.3-6.7,6.8-9.9c2.9-3.8,6.9-4,9.6-0.3
			c10.8,14.6,21.2,29.6,26.6,47.2C142.5,145.3,128.1,164.5,104.6,164.5z M104.5,88.5c-8.2,13.3-16.4,25.4-19.8,40
			c-2.1,9.1,0.6,16.6,7.5,21.1c7.5,4.9,18.6,4.5,26.4-0.9c6.4-4.4,9-12.2,6.6-20.9C121.2,113.4,113,101.3,104.5,88.5z"/>
		<path d="M48.3,113.2C32,113.1,21.8,99.7,26.4,84c3.4-11.7,10.1-21.7,17.4-31.2c2.4-3.2,6.4-3.2,9,0c7.7,9.5,14.6,19.5,18.1,31.3
			C75.5,99.9,64.9,113.2,48.3,113.2z M48.4,66.1c-4.7,6.8-8.9,13.5-11,21.3c-1.2,4.5-1,9,3.4,12.1c4.3,3,11.2,3,15.5-0.1
			c4.1-2.9,5.3-7.5,3.2-13.4C57,78.8,53,72.5,48.4,66.1z"/>
		<path d="M175.8,47.3c-0.1,11.7-10.7,20.9-23.3,20.1c-13-0.8-21.4-10.2-20-22.4c1-8.9,5.8-16.2,10.5-23.5c1.9-2.9,3.9-5.8,6.1-8.6
			c2.2-2.8,5.6-3.6,7.8-1.1c9,9.9,16.9,20.6,18.9,34.4C175.9,46.6,175.8,47,175.8,47.3z M153.7,26c-4.1,5.7-7.3,11.1-9.4,17
			c-1.4,4.1-1.4,8.2,2.6,11.2c3.8,2.8,10.1,2.7,14-0.3c3.8-2.9,3.9-6.8,2.5-10.8C161.4,36.9,157.9,31.5,153.7,26z"/>
		<path d="M87.8,135.2c0-2.1,0.1-3.8,2.3-4.1c2.1-0.3,3,1.1,3.2,3c0.4,3.2,1.4,6.1,3.8,8.3c1.2,1.1,1.5,2.7,0.4,4
			c-1.4,1.5-2.9,0.9-4.4-0.3C89.7,143.1,88.1,139.3,87.8,135.2z"/>
	</g>
</g>
</svg>
