<?xml version="1.0" encoding="utf-8"?>
<!-- Generator: Adobe Illustrator 17.1.0, SVG Export Plug-In . SVG Version: 6.00 Build 0)  -->
<!DOCTYPE svg PUBLIC "-//W3C//DTD SVG 1.1//EN" "http://www.w3.org/Graphics/SVG/1.1/DTD/svg11.dtd">
<svg version="1.1" id="图层_1" xmlns="http://www.w3.org/2000/svg" xmlns:xlink="http://www.w3.org/1999/xlink" x="0px" y="0px"
	 viewBox="0 0 200 200" style="enable-background:new 0 0 200 200;" xml:space="preserve">
<g>
	<g>
		<path d="M124.1,108.3c0.4,22.5-17.6,39.7-38.9,38.7c-21.4-1.1-37.5-20.5-34.9-41.7c1.3-10.9,6.1-20.3,12.1-29.2
			c9.7-14.4,18.7-29.2,21.9-46.6c0.4-2,0.5-4,1.1-5.9c0.4-1.3-0.2-3.5,1.9-3.4c1.6,0.1,1.4,2,1.6,3.3c0.5,2.8,1,5.6,1.6,8.3
			c3.3,15.4,11,28.8,19.7,41.7c6,8.9,11.6,17.9,13.3,28.7C123.9,104.7,124,107.2,124.1,108.3z M96.1,138.2c8-0.3,15-7.2,15.7-15.1
			c0.3-2.6-0.1-4.8-3.1-5.2c-3-0.5-4.2,1.6-4.5,4.1c-0.6,5.2-3.7,8-8.6,8.8c-2.6,0.4-4.7,1.3-4.4,4.2
			C91.5,137.9,93.9,138.4,96.1,138.2z"/>
		<path d="M148.6,182.2c-6.9,0-14.5-2.8-20.7-9c-1.7-1.7-2.6-2-4.6-0.1c-13,12-30.8,12.3-43.8,0.6c-2.5-2.2-3.5-2-5.8,0.1
			c-15.6,14.5-40.9,9.5-50.1-9.7c-1.7-3.5-2.4-6.9,1.7-9c4.1-2.2,6.6,0.2,8.3,3.7c3.8,7.8,10.1,12,18.6,12.1
			c8.6,0.1,14.9-4.1,18.8-11.8c1.3-2.5,2.8-4.6,5.9-4.5c3.2,0,4.5,2.3,5.8,4.8c3.8,7.5,10.1,11.5,18.4,11.6c8.1,0,14.4-3.8,18.3-11
			c1.4-2.6,2.8-5.1,6.1-5.2c3.7-0.1,4.9,2.7,6.4,5.3c8.1,14.4,27.5,14.7,36,0.6c0.5-0.9,0.9-1.8,1.5-2.6c1.8-2.8,4.3-3.9,7.3-2.4
			c3.1,1.5,3.9,4.2,2.6,7.6C175,173.9,163,181.9,148.6,182.2z"/>
		<path d="M134.6,36.8c1.4,8.6,6.3,15.3,10.5,22.5c5.1,8.8,2.4,18.3-5.9,21.3c-9.2,3.4-18.7-4-17.7-13.9c0.3-3.4,1.6-6.5,3.5-9.2
			C129.4,51.2,133.2,44.6,134.6,36.8z M143.2,72.8c-0.2-0.3-0.3-1.2-0.7-1.4c-0.9-0.4-1.5,0.3-1.7,1.1c-0.5,1.5-1.3,2.6-2.9,3.1
			c-0.9,0.3-2.2,0.7-1.5,1.9c0.5,0.9,1.7,0.7,2.7,0.4C141.5,77.3,142.9,75.6,143.2,72.8z"/>
	</g>
</g>
</svg>
