<?xml version="1.0" encoding="utf-8"?>
<!-- Generator: Adobe Illustrator 17.1.0, SVG Export Plug-In . SVG Version: 6.00 Build 0)  -->
<!DOCTYPE svg PUBLIC "-//W3C//DTD SVG 1.1//EN" "http://www.w3.org/Graphics/SVG/1.1/DTD/svg11.dtd">
<svg version="1.1" id="图层_1" xmlns="http://www.w3.org/2000/svg" xmlns:xlink="http://www.w3.org/1999/xlink" x="0px" y="0px"
	 viewBox="0 0 200 200" style="enable-background:new 0 0 200 200;" xml:space="preserve">
<g>
	<g>
		<path d="M89.8,74.3c-3.1,3.6-6.4,6.2-11.7,5.8C64.5,79,51,77.3,38.3,71.8c-1.6-0.7-3.4-1.2-5.5-2c7,9,21.1,14,43,15.4
			c-3.8,5.6-9.3,7-15,7.5c-15.4,1.4-35.2-10-42.2-23.9c-6-12.1-2.8-24.4,8.2-32.1c8.4-5.9,18.1-8,27.9-8.4
			c22.4-0.8,43.6,3.7,62.6,16.5c25.3,17.1,28,50.1,8,70.6c-16,16.4-33.7,30.3-54.8,39.3c-17.4,7.4-38.5,0.9-49.1-14.7
			c-0.8-1.2-1.7-2.5-2.3-3.9c-6.6-15.6-2.6-18.1,9.5-21.4c26.8-7.3,50.3-20,67.7-42.4c1-1.3,2-2.6,2.9-4c7.1-11.2,4.7-21.1-7.1-27
			c-15.4-7.6-31.6-8.6-48.1-4.2c-4,1.1-7.7,3.1-10.7,6.2c-6.5,6.7-5.6,15.8,2,21.1c7.4,5.1,16,6.3,24.6,7.6
			c8.6,1.2,17.2,1.4,25.9,1.5C87.1,73.5,88.5,73.1,89.8,74.3z M102.2,45.4c11.8,16.1,11.4,25.1-1.7,40.9c-5,6.1-10.8,11.3-17,16
			c-14.2,10.8-30.5,17.6-46.7,24.5c-4.6,2-4.6,4.7-2.8,8.2c2.8,5.4,8,7.3,13.4,8.6c12.3,2.8,23.8-2.3,26-12.4c1.1-5.1,4-7.2,8.3-8.6
			c15.9-5.3,28-15.9,37.5-29.3C132.5,74.7,124.4,52.6,102.2,45.4z"/>
		<path d="M184.2,175.6c0,7,0,7-6.5,7.2c-6.1,0.1-12-0.3-17.2-3.9c-1.7-1.1-2.9-1-4.5-0.1c-10.5,5.8-21.3,5.9-32.1,1
			c-3.2-1.5-6.1-1.2-9.5,0c-10.4,3.8-21,5.7-31-1.2c-1.8-1.2-3.5-0.8-5.2,0c-11.3,5.4-22.6,6.2-34,0.4c-2-1-3.8-0.6-5.7,0.2
			c-5.9,2.7-12.1,3.4-18.5,3.7c-2.9,0.1-4.5-0.6-4-3.8c0.2-1.3,0.2-2.7,0-4c-0.6-3.7,1-4.4,4.5-3.9c6.6,0.9,12.9-0.6,18.6-4
			c1.9-1.2,3.3-1.4,5.4-0.4c11.3,5.3,22.7,6,34-0.2c1.7-1,3-0.6,4.6,0.2c10.3,5.7,20.8,6.4,31.5,1c2.3-1.2,4.8-2.6,7.5-0.9
			c10.5,6.4,21.3,5.4,32.1,0.8c3.3-1.4,6.1-1.3,9.4,0.1c5.7,2.4,11.6,3.7,18,2.8C186.7,169.8,182.8,174.3,184.2,175.6z"/>
		<path d="M146.7,17c28.3,1.7,43.8,25.9,33.8,51.9c-5.9,15.4-16,26.7-32.8,30.6c-2,0.5-3.9,0.6-6.4,0.3c1.7-5.1,2.7-9.8,9.1-11.9
			c8.7-2.9,15.3-9.1,20.1-17.3c-0.9,0.7-1.8,1.3-2.6,2.1c-4.7,4.4-10.2,7.4-16.3,9.3c-6,1.9-5.9,1.8-6.6-4.6
			c-0.3-2.6,0.5-3.2,2.9-3.9c10.3-2.7,18.2-8.8,23.5-18c7-12.1,3-25.3-9.5-31.7C157.1,21.3,151.9,19.3,146.7,17z"/>
		<path d="M84.7,153.9c7.2-4.2,12.4-9.6,20.6-9c3.2,0.2,6.9-0.7,9.4-2.7c3.6-2.8,6.7-1.6,10,0c9.9,4.8,19.8,4,29.3-0.5
			c3.5-1.6,6.1-1.5,9.3-0.1c6.4,2.9,13.1,4.9,20.3,2.7c0.9,3.3,0.3,6.4,0.5,9.6c0.2,2.7-1.9,2.8-3.7,3c-6.8,0.8-13.3-0.3-19.3-3.6
			c-1.9-1.1-3.3-1.2-5.4-0.1c-10.9,5.5-22,5.9-33.1,0.5c-2.4-1.1-4.2-1.5-6.9-0.2C106.1,158,96,157.3,84.7,153.9z"/>
		<path d="M28.7,157c-3.8,1.7-7.6,0.6-11.3,0.3c-2.2-0.2-1.4-2.4-1.3-3.7c0.2-2.7-1.4-6.7,0.8-7.8c2.3-1.2,3.7,3,5.7,4.6
			C24.8,152.2,27.4,153.9,28.7,157z"/>
	</g>
</g>
</svg>
