<?xml version="1.0" encoding="utf-8"?>
<!-- Generator: Adobe Illustrator 17.1.0, SVG Export Plug-In . SVG Version: 6.00 Build 0)  -->
<!DOCTYPE svg PUBLIC "-//W3C//DTD SVG 1.1//EN" "http://www.w3.org/Graphics/SVG/1.1/DTD/svg11.dtd">
<svg version="1.1" id="图层_1" xmlns="http://www.w3.org/2000/svg" xmlns:xlink="http://www.w3.org/1999/xlink" x="0px" y="0px"
	 viewBox="0 0 200 200" style="enable-background:new 0 0 200 200;" xml:space="preserve">
<g>
	<g>
		<path d="M73.4,33.3c-0.9,1-1.8,1.9-2.7,2.9c-7.7,7.6-19.5,7.6-26.9,0C36.8,29,36.9,17,44,9.9c7.4-7.5,19.3-7.4,26.8,0.3
			c1.8,1.9,2.7,2.9,5.3,0.7c5.5-4.5,12.6-4.4,18.4,0c2.2,1.7,3.1,1.6,5-0.5c7.4-7.9,19.4-8.1,26.8-0.8c7.4,7.3,7.6,19.1,0.3,26.5
			c-7.5,7.6-19,7.6-26.9,0c-0.9-0.9-1.7-3.5-3.1-2.2c-2.1,2-5.9,2.2-6.6,5.5c-0.4,2-0.9,4.6,0.4,6.3c2.4,2.9,2.7,6.1,2.4,9.4
			c-0.3,3.5,0.9,4.6,4.4,4.5c9.5-0.1,19-0.7,28.4,1.2c26.4,5.3,45.2,28.2,45.2,55.2c0,2.8,0.1,5.7,0,8.5c-0.2,5.2-2.8,8.2-8,8.3
			c-10,0.2-20,0.2-30,0c-5.1-0.1-7.8-3.2-8-8.4c-0.1-2.8,0.1-5.7-0.1-8.5c-0.2-6-4.2-10-10.2-10c-21.7-0.1-43.3,0-65-0.1
			c-2.3,0-3.5,0.3-3.9,3.1c-0.6,4.4-3.6,6.6-8.1,6.4c-4.2-0.2-6.9-3.4-6.9-8.2c-0.1-16.8-0.1-33.7,0-50.5c0-5,2.9-8.4,7.1-8.6
			c4.2-0.2,7.6,2.8,8,7.8c0.2,2.7,1,3.8,3.8,3.7c8-0.1,16-0.1,24,0c2.9,0.1,3.8-1.1,3.7-3.8c-0.2-3.7,0.6-7,2.5-10.4
			c1.6-2.9,2.4-7.1-2.6-9C75.9,35.8,74.8,34.4,73.4,33.3z M84,75c-9.3,0-18.7,0-28,0c-9.9,0-9.7,0-9.9,9.9C46,89,47,90.3,51.3,90.3
			c20.8-0.2,41.7-0.2,62.5-0.1c12.6,0,22.3,7.5,25.8,19c0.8,2.6-1,6.4,2,7.6c2.4,1,5.6,0.3,8.4,0.4c0.7,0,1.3-0.1,2,0
			c3.6,0.5,4.1-1.3,3.8-4.4c-2.3-22-19.5-37.6-41.7-37.8C104,74.9,94,75,84,75z M47.8,23c0,5.4,4,9.4,9.4,9.4
			c5.2,0.1,9.6-4.2,9.6-9.4c0-5.2-4.3-9.5-9.5-9.5C51.9,13.5,47.8,17.7,47.8,23z M122.9,23c0-5.1-4.4-9.5-9.6-9.5
			c-5.3,0-9.4,4.1-9.5,9.5c0,5.3,4.1,9.4,9.5,9.4C118.6,32.5,122.9,28.2,122.9,23z M91.4,22.7c-0.3-3.2-2.2-5.5-5.8-5.8
			c-3.5-0.3-6.6,2.6-6.4,6c0.2,3.6,1.9,5.9,5.8,6.2C88.5,29.4,91.3,26.7,91.4,22.7z"/>
		<path d="M169.1,175.9c-0.3,9.5-4.2,16-12.1,19.9c-7.6,3.8-15,2.7-21.6-2.3c-6.8-5.2-9.7-12.3-8.1-20.7
			c2.2-11.6,10.7-19.3,18.1-27.5c1.5-1.6,4-1.6,5.4,0.1c6.6,7.8,14.6,14.8,17.3,25.3C168.7,172.6,168.9,174.6,169.1,175.9z
			 M159.8,176.4c-0.4-7.4-5.5-13.1-10.5-18.9c-0.8-0.9-1.7-0.8-2.5,0.1c-4.7,5.4-9.6,10.7-10.5,18.2c-0.8,6.5,4.4,12.4,11,12.9
			C153.8,189.2,159.7,183.8,159.8,176.4z"/>
	</g>
</g>
</svg>
