<?xml version="1.0" encoding="utf-8"?>
<!-- Generator: Adobe Illustrator 17.1.0, SVG Export Plug-In . SVG Version: 6.00 Build 0)  -->
<!DOCTYPE svg PUBLIC "-//W3C//DTD SVG 1.1//EN" "http://www.w3.org/Graphics/SVG/1.1/DTD/svg11.dtd">
<svg version="1.1" id="图层_1" xmlns="http://www.w3.org/2000/svg" xmlns:xlink="http://www.w3.org/1999/xlink" x="0px" y="0px"
	 viewBox="0 0 200 200" style="enable-background:new 0 0 200 200;" xml:space="preserve">
<path d="M71.9,126.7c-0.2,2.9-0.3,4.9-0.5,7.4c-4.5,0-8.9,0-13.4,0c0-8.2,0-16.2,0-24.9c4,0,7.9-0.3,11.8,0.2c1.4,0.2,2.8,2,3.9,3.3
	c5.1,6.3,11.4,9.1,19.4,7.2c3.5-0.8,7.3-2.9,6.5-6.9c-0.5-2.3-3.9-4.6-6.4-5.7c-2.8-1.1-6.3-0.4-9.3-1.3c-6-1.7-12.3-3.1-17.7-6
	c-6.1-3.3-9.1-9.1-8-16.4c1.1-7.5,5.2-12.5,12.5-14.7c9.7-2.9,19.3-3.2,28.5,2.3c2-3.8,4.9-4.4,14.6-2.9c0,6.7,0,13.5,0,20.9
	c-6.3-0.2-12.7,2.3-17.6-4.9c-3.4-5-9-7.8-15.3-6c-2.2,0.6-5.3,2.9-5.5,4.7c-0.2,2.2,1.6,5.7,3.5,6.8c3,1.7,6.9,1.9,10.4,2.6
	c4.2,0.8,8.6,1,12.7,2.3c10.7,3.6,16.1,11.5,14.7,20.9c-1.5,10.3-9.6,17.6-20.5,18.4C87.2,134.8,79.2,133,71.9,126.7z"/>
<path d="M152.3,134.2c-19.1,0-34.3-14.9-34.3-33.5c0-18.5,15.5-33.5,34.5-33.5c18.9,0,34.3,15.1,34.4,33.7
	C186.8,119.4,171.5,134.2,152.3,134.2z M138.8,98.1c0,8.7,2.1,14.6,5.9,18.5c5,5,11.8,5.1,16.8,0.1c8.1-8,8-24.9-0.1-32.8
	c-5.2-5-11.7-5-16.8,0.2C140.4,88.7,138.8,94.2,138.8,98.1z"/>
<path d="M40.3,120c3.6,0,6.7,0,10.6,0c0,2.5,0,4.7,0,7c0,2.3,0,4.6,0,7.2c-12.8,0-25.2,0-37.8,0c0-4.8,0-9.2,0-13.9
	c3.5-0.2,6.7-0.3,10.2-0.5c0-12.9,0-25.4,0-38.6c-3.3,0-6.5,0-10.1,0c0-4.5,0-8.4,0-12.6c12.4,0,24.8,0,37.4,0c0,4.1,0,8,0,12.3
	c-3.5,0-6.7,0-10.4,0C40.3,94,40.3,106.7,40.3,120z"/>
<path d="M128.8,47.4c1.5,3.6,2.8,6.9,4.2,10.3c-0.5,0.4-0.9,0.7-1.4,1.1c-1.2-1.2-3-2.3-3.4-3.7c-1.7-5.2-4.1-7-9.8-4.8
	c-4.7,1.8-10,2-15.4,2.9c-0.1,1.6-0.3,3.1-0.5,5c-1.6,0-3,0-4.6,0c-0.2-1.7-0.4-3.1-0.6-4.8c-7.2-1.4-14.5-2.8-22-4.3
	c-3.4,2-2,8.5-8.7,9.9c1.8-4.6,3.2-8,4.6-11.7c-2.8-1.5-5.7-3.2-8.7-4.5c-1-0.4-2.9,0.1-3.8,0.9c-4.3,3.7-8.7,7.3-12.3,11.6
	c-2.8,3.3-5.5,3.6-9.8,2.7c16.3-22.5,37.8-33.7,64.9-33.8c24.4,0,52.4,15.6,61.3,33.8c-3.7,1-6.7,0.7-9.1-2.9
	c-1.4-2.2-3.5-4-5.4-5.8C139.7,41.1,139.6,41.1,128.8,47.4z M97.4,30.5c-7.8,0-16.4,6.7-18.9,14.6c6.2,1.1,12.4,2.1,18.9,3.3
	C97.4,42,97.4,36.4,97.4,30.5z M103,48.6c6.7-1.3,12.7-2.4,19-3.6c-4.2-9.2-12.1-14.9-19-14.2C103,36.3,103,41.9,103,48.6z M73.7,43
	c2.6-3.4,5-6.4,7.4-9.5c-0.1-0.3-0.3-0.5-0.4-0.8c-4.7,1.9-9.4,3.8-15.3,6.2C69,40.7,71.3,41.8,73.7,43z M119.5,32.7
	c-0.1,0.2-0.3,0.5-0.4,0.7c2.4,3.1,4.7,6.2,7.4,9.5c2.4-1.2,4.7-2.3,8.3-4.1C128.8,36.5,124.2,34.6,119.5,32.7z"/>
<path d="M36.6,143.1c4.4-1.2,7.3-0.8,9.7,2.7c1.8,2.6,4.1,4.8,6.5,6.8c10.6,8.8,6.7,7.4,18.4,1.4c-0.8-1.8-1.6-3.6-2.3-5.4
	c-0.7-1.8-1.4-3.7-2.2-6.2c7,0.3,4.8,7.5,8.9,9.8c6.8-1.3,14-2.7,21.7-4.2c0.2-1.3,0.4-2.9,0.6-4.8c1.4-0.1,2.8-0.2,4.5-0.3
	c0.2,2,0.5,3.7,0.7,5.2c7.4,1.4,14.5,2.8,21.9,4.2c3.2-2.3,1.9-8.8,8.8-10.5c-1.9,4.9-3.3,8.5-4.8,12.3c2.7,1.4,5.3,3,8,4.1
	c1.1,0.4,3,0.1,3.9-0.6c4.4-3.8,9-7.5,12.8-11.8c2.7-3,5.2-4.2,9.8-2.8c-14.8,20.6-34.3,32.2-59.1,33.5
	C76,178.1,53.6,166.4,36.6,143.1z M97.4,152.3c-7,1.4-13.3,2.6-20.7,4c6.4,7.3,10.4,15,20.7,14.3C97.4,164.8,97.4,159.2,97.4,152.3z
	 M123.1,156.1c-7.2-1.3-13.5-2.4-19.9-3.5c0,6.8,0,12.5,0,18.5C113.1,170.5,117.8,163.9,123.1,156.1z M120.1,167.1
	c0.1,0.4,0.1,0.8,0.2,1.2c4.5-1.9,9.1-3.9,14.7-6.3c-3.8-1.8-6.1-2.8-8.3-3.9C124.2,161.5,122.1,164.3,120.1,167.1z M65.1,162.1
	c5.9,2.4,10.5,4.2,16.3,6.6c-3.4-4.4-5.8-7.5-8.2-10.7C70.8,159.2,68.7,160.3,65.1,162.1z"/>
</svg>
