<?xml version="1.0" encoding="utf-8"?>
<!-- Generator: Adobe Illustrator 17.1.0, SVG Export Plug-In . SVG Version: 6.00 Build 0)  -->
<!DOCTYPE svg PUBLIC "-//W3C//DTD SVG 1.1//EN" "http://www.w3.org/Graphics/SVG/1.1/DTD/svg11.dtd">
<svg version="1.1" id="图层_1" xmlns="http://www.w3.org/2000/svg" xmlns:xlink="http://www.w3.org/1999/xlink" x="0px" y="0px"
	 viewBox="0 0 200 200" style="enable-background:new 0 0 200 200;" xml:space="preserve">
<g>
	<g>
		<path d="M86,1c0,26.8-0.1,53.6,0.1,80.4c0,3.7-0.9,4.7-4.7,4.7C54.6,85.9,27.8,86,1,86C1,58.7,1,31.3,0.9,4c0-2.5,0.6-3.1,3.1-3.1
			C31.3,1,58.7,1,86,1z"/>
		<path d="M201,86c-26.8,0-53.6-0.1-80.4,0.1c-3.7,0-4.7-0.9-4.7-4.7C116.1,54.6,116,27.8,116,1c27.3,0,54.7,0,82-0.1
			c2.5,0,3.1,0.6,3.1,3.1C201,31.3,201,58.7,201,86z"/>
		<path d="M1,116c26.8,0,53.6,0.1,80.4-0.1c3.7,0,4.7,0.9,4.7,4.7C85.9,147.4,86,174.2,86,201c-27.3,0-54.5-0.1-81.8,0.1
			c-2.8,0-3.3-0.6-3.3-3.3C1.1,170.5,1,143.3,1,116z"/>
		<path d="M116,201c0-26.8,0.1-53.6-0.1-80.4c0-3.7,0.9-4.7,4.7-4.7c26.8,0.2,53.6,0.1,80.4,0.1c0,27.3,0,54.7,0.1,82
			c0,2.5-0.6,3.1-3.1,3.1C170.7,201,143.3,201,116,201z"/>
	</g>
</g>
</svg>
