<?xml version="1.0" encoding="utf-8"?>
<!-- Generator: Adobe Illustrator 17.1.0, SVG Export Plug-In . SVG Version: 6.00 Build 0)  -->
<!DOCTYPE svg PUBLIC "-//W3C//DTD SVG 1.1//EN" "http://www.w3.org/Graphics/SVG/1.1/DTD/svg11.dtd">
<svg version="1.1" id="图层_1" xmlns="http://www.w3.org/2000/svg" xmlns:xlink="http://www.w3.org/1999/xlink" x="0px" y="0px"
	 viewBox="0 0 200 200" style="enable-background:new 0 0 200 200;" xml:space="preserve">
<path d="M68.5,52.2c0-7.1-0.1-13.4,0-19.7c0.1-8.6,4-12.5,12.6-12.6c13.3-0.1,26.7-0.1,40,0c8.3,0,12.1,3.9,12.4,12.3
	c0.2,6.2,0.1,12.3,0.2,18.5c0,0.3,0.2,0.6,0.6,1.5c9.9,0,20,0,30.1,0c6.8,0,12.8,2,17.5,7.1c3.9,4.2,5.7,9.3,5.7,15
	c0,28.5,0,57,0,85.5c0,13-8.9,22.2-21.8,22.3c-43.2,0.1-86.3,0.1-129.5,0c-12.7,0-21.6-9.3-21.6-22c-0.1-28.7-0.1-57.3,0-86
	c0-12.7,9.4-21.7,22.3-21.9C47.2,52.1,57.5,52.2,68.5,52.2z M90.3,106.7c-11.2,0-21.6,0-32.1,0c0,7.4,0,14.1,0,21.3
	c10.7,0,21.1,0,31.8,0c0.1,2.1,0.2,3.7,0.2,5.3c0,7.8-0.1,15.7,0.1,23.5c0,1.2,1.4,3.4,2.2,3.5c6.3,0.3,12.6,0.2,19.5,0.2
	c0-11.1,0-21.7,0-32.7c11.1,0,21.5,0,31.9,0c0-7.2,0-14,0-21.3c-10.7,0-21.2,0-32.2,0c0-11.1,0-21.7,0-32.2c-7.4,0-14.2,0-21.4,0
	C90.3,84.9,90.3,95.4,90.3,106.7z M79.4,51.9c14.5,0,28.6,0,43,0c0-7.1,0-14,0-20.9c-14.5,0-28.7,0-43,0
	C79.4,38.1,79.4,44.8,79.4,51.9z"/>
</svg>
