<?xml version="1.0" encoding="utf-8"?>
<!-- Generator: Adobe Illustrator 17.1.0, SVG Export Plug-In . SVG Version: 6.00 Build 0)  -->
<!DOCTYPE svg PUBLIC "-//W3C//DTD SVG 1.1//EN" "http://www.w3.org/Graphics/SVG/1.1/DTD/svg11.dtd">
<svg version="1.1" id="图层_1" xmlns="http://www.w3.org/2000/svg" xmlns:xlink="http://www.w3.org/1999/xlink" x="0px" y="0px"
	 viewBox="0 0 200 200" style="enable-background:new 0 0 200 200;" xml:space="preserve">
<g>
	<g>
		<path d="M99.7,188.8c-20.8,0-41.6,0-62.5,0c-1.7,0-3.3,0-5-0.1c-16.1-1.4-21.1-11.3-12.4-25c7.8-12.4,15.9-24.6,23.8-36.9
			c10.7-16.5,21.3-33,32-49.5c1.5-2.3,2.3-4.6,2.2-7.4c-0.1-12-0.2-24,0-36c0.1-3.9-0.7-6-5.1-5.4c-1.3,0.2-2.7-0.1-4-0.4
			c-3.7-0.9-5.9-3.3-5.8-7.1c0.1-3.8,2.4-6.1,6.1-6.9c1.3-0.3,2.7-0.2,4-0.2c18,0,36,0,54,0c1.5,0,3.1-0.1,4.5,0.3
			c3.3,1,5.5,3.2,5.5,6.9c0,3.6-1.9,6-5.3,7c-1.6,0.4-3.3,0.6-4.9,0.5c-3.1-0.2-4.4,0.8-4.4,4.2c0.2,12.8,0.1,25.7,0,38.5
			c0,2.5,1,4.4,2.3,6.4c18.2,28.1,36.3,56.2,54.4,84.3c2.2,3.4,4.3,6.7,5,10.8c1.2,6.9-1.6,12.1-8.2,14.6c-3.8,1.4-7.8,1.7-11.8,1.7
			C142.7,188.8,121.2,188.8,99.7,188.8z"/>
	</g>
</g>
</svg>
