<?xml version="1.0" encoding="utf-8"?>
<!-- Generator: Adobe Illustrator 17.1.0, SVG Export Plug-In . SVG Version: 6.00 Build 0)  -->
<!DOCTYPE svg PUBLIC "-//W3C//DTD SVG 1.1//EN" "http://www.w3.org/Graphics/SVG/1.1/DTD/svg11.dtd">
<svg version="1.1" id="图层_1" xmlns="http://www.w3.org/2000/svg" xmlns:xlink="http://www.w3.org/1999/xlink" x="0px" y="0px"
	 viewBox="0 0 200 200" style="enable-background:new 0 0 200 200;" xml:space="preserve">
<g>
	<path d="M201,21c0,53.3,0,106.7,0,160c-3.2,10.1-9.9,16.8-20,20c-53.3,0-106.7,0-160,0c-10.1-3.2-16.8-9.9-20-20
		C1,127.7,1,74.3,1,21C4.2,10.9,10.9,4.2,21,1c53.3,0,106.7,0,160,0C191.1,4.2,197.8,10.9,201,21z M157.2,94.6
		c0-20.7-0.1-40,0.1-59.2c0-3.4-1.9-3.2-4.2-3.2c-13.6,0-27.3,0.2-40.9-0.1c-3.9-0.1-5.1,1-5.1,5c0.2,17.6,0.1,35.3,0.1,52.9
		c0,1.2-0.6,2.7,1,3.9c7-5.8,14-11.5,20.9-17.5c2.3-2,3.8-2.1,6.2,0C142.2,82.4,149.2,88,157.2,94.6z M101.2,7.2
		c-23.8,0-47.7,0-71.5,0c-1.8,0-3.7,0-5.4,0.5c-2.6,0.7-4.3,2.6-4.4,5.4c-0.1,3,1.3,5.2,4.2,6.1c1.5,0.5,3.3,0.6,4.9,0.6
		c47.8,0,95.7,0,143.5,0c1.2,0,2.3,0.1,3.5-0.1c3.5-0.5,6-2.4,6-6.1c0-4-2.6-5.9-6.3-6.4c-1.3-0.2-2.7-0.1-4-0.1
		C148.2,7.2,124.7,7.2,101.2,7.2z M26,110.2c0,23.3,0,46.6,0,69.9c0,5.2,2.1,8.1,5.9,8.2c4.1,0.2,6.4-2.7,6.5-8.2c0-0.5,0-1,0-1.5
		c0-45.5,0-90.9,0-136.4c0-1.8,0-3.7-0.4-5.4c-1.1-4.3-6-5.9-9.5-3.3c-2.4,1.8-2.6,4.5-2.5,7.2C26,64,26,87.1,26,110.2z M119.5,176
		c3,0,6,0,9,0c11.3,0,22.6,0,33.9,0c4.1,0,6.9-1.9,7.1-6c0.2-4.2-2.6-6.2-6.7-6.4c-1.2-0.1-2.3,0-3.5,0c-26.4,0-52.9,0-79.3,0
		c-1.8,0-3.7,0-5.5,0.4c-4.2,1-6,5.4-3.9,9c1.7,2.8,4.4,3.2,7.4,3.2C91.9,176,105.7,176,119.5,176z M113.2,126c11.8,0,23.6,0,35.5,0
		c5.5,0,8.4-2.3,8.4-6.3c0-3.9-2.8-6.1-8.1-6.1c-23.6-0.1-47.3-0.1-70.9,0c-5.3,0-8,2.2-8.1,6.1c-0.1,4,2.8,6.3,8.3,6.4
		C89.9,126,101.6,126,113.2,126z M107,151c9.8,0,19.7,0,29.5,0c5.1,0,8.1-2.4,8.2-6.1c0.1-3.8-2.8-6.3-7.9-6.3
		c-19.7-0.1-39.3-0.1-59,0c-5.2,0-7.9,2.4-7.8,6.4c0.1,3.9,2.8,6.1,8.1,6.1C87.7,151,97.3,151,107,151z"/>
</g>
</svg>
