<?xml version="1.0" encoding="utf-8"?>
<!-- Generator: Adobe Illustrator 17.1.0, SVG Export Plug-In . SVG Version: 6.00 Build 0)  -->
<!DOCTYPE svg PUBLIC "-//W3C//DTD SVG 1.1//EN" "http://www.w3.org/Graphics/SVG/1.1/DTD/svg11.dtd">
<svg version="1.1" id="图层_1" xmlns="http://www.w3.org/2000/svg" xmlns:xlink="http://www.w3.org/1999/xlink" x="0px" y="0px"
	 viewBox="0 0 200 200" style="enable-background:new 0 0 200 200;" xml:space="preserve">
<g>
	<g>
		<path d="M0,145c0-3.3,0-6.7,0-10c3.8-8.4,11.4-11.6,19.6-13.9c10-2.8,20.2-4.7,30.4-5.8c15.6-1.6,27.1-9,36-21.5
			c16.7-23.5,33.5-46.9,50.5-70.1C142.9,14.9,149.4,5.9,159,0c1.7,0,3.3,0,5,0c5.4,2.4,9.9,6,13.5,10.6c8.8,11,17.5,22,22.5,35.4
			c0,4.7,0,9.3,0,14c-2.5,9.8-5.1,19.5-9.4,28.7c-5.4,11.4-8,23.5-9.7,36c-2.8,20.6-4.8,41.3-5.3,62.2c-0.1,4.4-1.9,6.4-6.4,6.2
			c-3.8-0.2-7.7-0.1-11.5,0c-3.8,0-5.5-1.8-5.3-5.6c0.8-22,1.7-43.9,2.4-65.9c0.2-7.3,0-14.6,0-22.6c-3.1,3.3-5,6.4-6.8,9.6
			c-6.3,11.5-10.6,23.6-13,36.5c-2.3,12.4-4.5,24.9-10,36.5c-3.8,8-9.7,13.4-18.5,15.4c-4.5,1-9,2-13.5,3c-7.7,0-15.3,0-23,0
			c-0.8-0.8-1.8-0.8-2.8-0.9c-10.3-0.8-20.3-3.4-30.4-5c-16.7-2.7-26.5-12.1-31-28.1C3.8,159,2.3,151.9,0,145z M85.8,188.5
			c1,0,2,0.1,3,0c9.9-0.7,19.4-2.6,27.5-9c1.9-1.5,3-3.3,1.1-5.5c-1.7-1.8-3.5-1.3-5.2,0.2c-3.3,3-7.5,4.3-11.7,5.4
			c-12.6,3.1-25.4,2.4-38.2,0.9c-12.4-1.4-24.6-3.9-36.6-7.2c-1.9-0.5-3.9-0.8-4.5,1.6c-0.6,2.2,0.3,3.8,2.8,4.4
			c2.9,0.7,5.8,1.6,8.7,2.3C50.1,185.6,67.8,188.3,85.8,188.5z"/>
	</g>
</g>
</svg>
