<?xml version="1.0" encoding="utf-8"?>
<!-- Generator: Adobe Illustrator 17.1.0, SVG Export Plug-In . SVG Version: 6.00 Build 0)  -->
<!DOCTYPE svg PUBLIC "-//W3C//DTD SVG 1.1//EN" "http://www.w3.org/Graphics/SVG/1.1/DTD/svg11.dtd">
<svg version="1.1" id="图层_1" xmlns="http://www.w3.org/2000/svg" xmlns:xlink="http://www.w3.org/1999/xlink" x="0px" y="0px"
	 viewBox="0 0 200 200" style="enable-background:new 0 0 200 200;" xml:space="preserve">
<path d="M1.6,70.3c4.9-3.6,9.8-7.2,15.5-11.5c0,6.9,0,13.1,0,19.3c0,1.7,0.1,3.3,0,5c-0.2,3.6,1,8.9-0.9,10.5
	c-4,3.3-9.7,4.6-14.6,6.7C1.6,90.3,1.6,80.3,1.6,70.3z"/>
<path d="M1.6,112.3c4.9-2.4,9.8-4.8,15.5-7.6c0,9.8,0,18.7-0.1,27.6c0,0.8-0.9,2-1.5,2.2c-4.6,1.1-9.3,1.9-13.9,2.8
	C1.6,128.9,1.6,120.6,1.6,112.3z"/>
<path d="M1.6,147.3c4.9-1.2,9.9-2.4,15.3-3.7c0,9.4,0,18.2,0,27.8c-5.3-0.4-10.3-0.8-15.3-1.1C1.6,162.6,1.6,154.9,1.6,147.3z"/>
<path d="M187.8,93.4c-9.7-1.2-19.1-2.3-28.8-3.4c0,11.9,0,23.2,0,35.3c9.3,0.7,18.9,1.3,28.5,2c0,2.7,0,5,0,6.9c-9.6,0-18.9,0-29,0
	c0,11.6,0,23.8,0,36.5c-3.7,0-6.6,0-9.7,0c0-12.3,0-24.6,0-37.6c-10.1-0.5-19.9-0.9-30.6-1.4c0,12.3,0,24,0,36.1c-3.5,0-6.3,0-9.6,0
	c0-12,0-23.9,0-36.3c-9.3-0.4-18.1-0.9-26.8-1.3c-0.5,0-1,0-1.5,0c-9.2-0.3-9.5-0.8-7.4-10.8c11.6,0.8,23.3,1.7,35.3,2.5
	c0-12.6,0-24.7,0-37.5c-11.8-1.4-23.6-2.7-35.7-4.1c0-4.3,0-8.4,0-13.1c11.8,1.5,23.5,3,35.6,4.5c0-12.8,0-25.2,0-38.3
	c-7.6-1.3-15.4-2.5-23.2-3.8c-2.1-0.4-4.3-1-6.4-1c-5.1,0-6.1-2.9-5.6-7.8c42.1,5.5,84.1,10.9,125.5,16.3c0,10.8,0.3,21.2-0.1,31.6
	c-1.3,32.6-2.8,65.2-4.3,97.8c0,0.8,0.1,1.7-0.1,2.5c-0.3,0.8-0.9,1.5-1.4,2.2c-0.7-0.7-1.9-1.4-2-2.2c-0.3-3.3-0.4-6.6-0.5-10
	c-0.6-21-1.1-41.9-1.7-62.9C188.1,95.3,188,94.7,187.8,93.4z M119.8,35c0,12.9,0,25.3,0,38.1c9.8,1.3,19.5,2.6,30,4
	c0-11.9,0.1-23.1-0.1-34.2c0-1.2-1-3.2-1.8-3.4C138.8,37.9,129.6,36.6,119.8,35z M119.1,85.5c0,12.5,0,24.6,0,36.9
	c9.9,0.7,19.6,1.3,29.9,2c0-12.1,0-23.5,0-35.4C139.3,87.8,129.5,86.7,119.1,85.5z M159.5,41.3c0,12.6,0,24.7,0,37.1
	c9.3,1.2,18.5,2.4,27.3,3.6c0-12.3,0-24.4,0-36.4C177.4,44.1,168.8,42.8,159.5,41.3z"/>
<path d="M44.5,81c0-14.6,0-28.4,0.1-42.2c0-1.1,0.9-2.5,1.8-3.3c6.3-5.2,12.7-10.2,19.6-15.6c0.2,1.6,0.5,2.6,0.5,3.6
	c0,14.3-0.1,28.6,0.1,43c0,2.9-0.8,4.5-3.5,5.7C57,74.8,51.1,77.9,44.5,81z"/>
<path d="M44.5,127.2c0-11.4,0-22.1,0.1-32.7c0-1,0.7-2.4,1.5-2.8c6.5-3.2,13.2-6.1,20.4-9.5c0,12.9,0.1,24.9-0.1,37
	c0,1-1.4,2.6-2.4,2.9C57.8,123.9,51.5,125.4,44.5,127.2z"/>
<path d="M44.8,137.3c7.2-1.6,14.2-3.1,21.4-4.6c0,12.9,0,25.3,0,38c-7.1,0-14.2,0-21.4,0C44.8,159.7,44.8,148.8,44.8,137.3z"/>
<path d="M37.8,42c0,14,0,26.8-0.1,39.6c0,1-0.5,2.5-1.3,2.9c-4.6,2.5-9.4,4.7-14.8,7.3c0-12.3,0-23.7,0.1-35.2c0-1,0.7-2.2,1.5-2.9
	C27.7,50,32.2,46.5,37.8,42z"/>
<path d="M37.5,95.4c0,11.5,0,22.2,0,33.5c-5,1.3-10.1,2.6-15.9,4.1c0-10,0-19.4,0.1-28.7c0-0.8,0.7-1.9,1.5-2.3
	C27.8,99.8,32.4,97.8,37.5,95.4z"/>
<path d="M22,142.4c5.2-1.2,10.2-2.3,15.5-3.5c0,10.8,0,21.1,0,31.8c-5.1,0-10.1,0-15.5,0C22,161.5,22,152.2,22,142.4z"/>
</svg>
