<?xml version="1.0" encoding="utf-8"?>
<!-- Generator: Adobe Illustrator 17.1.0, SVG Export Plug-In . SVG Version: 6.00 Build 0)  -->
<!DOCTYPE svg PUBLIC "-//W3C//DTD SVG 1.1//EN" "http://www.w3.org/Graphics/SVG/1.1/DTD/svg11.dtd">
<svg version="1.1" id="图层_1" xmlns="http://www.w3.org/2000/svg" xmlns:xlink="http://www.w3.org/1999/xlink" x="0px" y="0px"
	 viewBox="0 0 200 200" style="enable-background:new 0 0 200 200;" xml:space="preserve">
<g>
	<g>
		<path d="M3,125.5c1.9-11.2,3.4-22.5,6.9-33.4c5.4-16.6,12.3-32.3,24.2-45.4C42,38,51.2,31.5,63.6,31.3c3.3-0.1,6.5,0.5,9.6,1.7
			c4.6,1.7,9.2,3.3,13.7,5.2c9.2,4,18.3,4.2,27.5,0.2c3-1.3,6.2-2.2,9.1-3.5c15.8-7.3,29.3-2.9,41.2,8.3
			c12.8,12.1,20.4,27.4,25.8,43.8c6.8,20.8,11.2,42,6.6,64c-3,14.3-11.1,20.6-25.7,19.7c-11.9-0.7-22.8-5.2-33.4-10.3
			c-4.3-2-8.4-4.4-12.6-6.6c-16.4-8.4-32.9-8.5-49.3-0.1c-12.9,6.6-25.7,13.5-40.2,16.2c-19.1,3.5-29.2-3.7-32-23
			c-0.2-1.3-0.6-2.5-0.9-3.8C3,137.2,3,131.4,3,125.5z M186.5,130.2c-1.4-23.2-8.1-47.7-23.1-69.6c-4-5.8-8.8-11-15-14.5
			c-5.7-3.2-11.5-4.1-17.7-1c-4.5,2.3-9.3,4-13.9,5.9c-9.6,3.9-19.3,4-29.1,0.3c-5.5-2.1-11.1-3.9-16.4-6.4c-6.3-3-12-1.8-17.7,1.4
			c-3.7,2.1-6.9,4.9-9.8,8.1c-12.3,13.9-18.9,30.7-23.4,48.4c-3.8,14.8-5.9,29.8-2.9,45c1.9,9.7,6,12.2,15.6,10.5
			c13.4-2.4,25.3-8.4,37.1-14.7c12.3-6.5,25.3-9,39.2-7.5c10.4,1.1,19.3,5.6,28.2,10.4c11.2,6.1,22.8,11.3,35.7,12.4
			c5.1,0.4,8.2-1.5,10.1-6.4C186,146.2,186.3,139.8,186.5,130.2z"/>
		<path d="M72.1,76.2c4.1,0.2,6.1,2.4,6.4,6.5c0.3,3.3-1.6,7.8,1.1,9.7c2.2,1.6,6.3,0.6,9.5,0.7c4,0.1,6.7,2.2,6.7,6.2
			c0.1,4.4-3.1,5.6-7,5.6c-0.2,0-0.3,0-0.5,0c-9.3,0.2-9.3,0.2-9.8,9.6c-0.3,4.6-2.8,7.3-6.8,7.2c-4.5-0.1-6-3-6.4-7
			c-0.3-3.2,1.6-7.3-1.1-9.2c-2.1-1.5-6-0.4-9.1-0.6c-4.5-0.2-7.2-2.4-7.2-6.3c0-4.7,3.2-5.4,6.9-5.6c3.2-0.1,7.2,1.4,9.5-0.7
			c2.3-2.1,0.6-6.2,0.9-9.4C65.9,78.5,68.2,76.2,72.1,76.2z"/>
		<path d="M147.3,99.5c-0.1,6.6-5.7,11.9-12.4,11.8c-6.6-0.1-12.3-5.7-12.2-12.2c0.1-6.5,5.9-11.9,12.5-11.8
			C141.9,87.5,147.3,92.9,147.3,99.5z"/>
	</g>
</g>
</svg>
