<?xml version="1.0" encoding="utf-8"?>
<!-- Generator: Adobe Illustrator 17.1.0, SVG Export Plug-In . SVG Version: 6.00 Build 0)  -->
<!DOCTYPE svg PUBLIC "-//W3C//DTD SVG 1.1//EN" "http://www.w3.org/Graphics/SVG/1.1/DTD/svg11.dtd">
<svg version="1.1" id="图层_1" xmlns="http://www.w3.org/2000/svg" xmlns:xlink="http://www.w3.org/1999/xlink" x="0px" y="0px"
	 viewBox="0 0 200 200" style="enable-background:new 0 0 200 200;" xml:space="preserve">
<g>
	<g>
		<path d="M147,1c4.7,0,9.3,0,14,0c0.4,0.3,0.8,0.7,1.2,0.8c18.6,4,31.1,15,36.2,33.2c5.1,18.1-0.4,33.7-13.6,46.9
			C150.4,116.2,116,150.6,81.7,185c-6.2,6.2-13.1,11.2-21.6,13.8c-2.7,0.8-5.6,0.7-8,2.2c-3.7,0-7.3,0-11,0
			c-0.9-1.3-2.4-0.9-3.6-1.2c-15.4-3.7-26.5-12.6-33.2-27c-2.3-5-2.7-10.5-4.2-15.7c0-1.7,0-3.3,0-5c0.2-0.4,0.7-0.8,0.7-1.2
			c1-12.8,7.1-22.9,16-31.7c31.8-31.6,63.5-63.2,95-95.1C121.9,13.6,132.3,4.1,147,1z M14.6,154.3c0.1,7.7,2.5,14.7,7.5,20.6
			c3.6,4.2,7.1,5.2,10.2,2.8c3.3-2.6,3.3-6-0.1-10.5c-7.2-9.4-6.6-19.5,1.7-27.9c16.6-16.7,33.2-33.2,49.8-49.9
			c2.2-2.3,3.5-2.5,5.8-0.1c10.3,10.6,21,21,31.3,31.6c2.3,2.4,3.6,2.3,5.9-0.1c7.3-7.6,14.8-14.9,22.2-22.3
			c10.2-10.3,20.8-20.2,30.3-31.1c11-12.6,9.5-31.9-2.3-43.5c-11.9-11.6-30.8-12.6-43.6-1.7c-13.1,11.1-24.3,24.2-36.5,36.2
			c-23.5,23.2-46.8,46.5-70.2,69.8C19.3,135.5,14.4,143.7,14.6,154.3z"/>
		<path d="M200.2,140.3c-0.2,13.9-3.4,24.9-10.1,34.9c-1.7,2.5-2.8,3.5-5.5,0.8c-11.6-11.9-23.4-23.6-35.2-35.3
			c-1.9-1.9-2.2-3.1-0.1-5.1c10.6-10.4,21.1-20.8,31.4-31.4c2.3-2.4,3.5-2,5.4,0.3C195.2,115.3,200,127.9,200.2,140.3z"/>
		<path d="M142.1,200.2c-14.2,0-26.7-4.8-37.6-13.9c-2.3-1.9-3.1-3.2-0.4-5.7c10.5-10.2,20.8-20.6,31.1-31.1c2-2,3.1-2.1,5.1-0.1
			c11.8,12,23.7,23.9,35.7,35.7c2.3,2.3,1.6,3.3-0.6,4.8C165.4,196.8,154.3,200.2,142.1,200.2z"/>
	</g>
</g>
</svg>
