<?xml version="1.0" encoding="utf-8"?>
<!-- Generator: Adobe Illustrator 17.1.0, SVG Export Plug-In . SVG Version: 6.00 Build 0)  -->
<!DOCTYPE svg PUBLIC "-//W3C//DTD SVG 1.1//EN" "http://www.w3.org/Graphics/SVG/1.1/DTD/svg11.dtd">
<svg version="1.1" id="图层_1" xmlns="http://www.w3.org/2000/svg" xmlns:xlink="http://www.w3.org/1999/xlink" x="0px" y="0px"
	 viewBox="0 0 200 200" style="enable-background:new 0 0 200 200;" xml:space="preserve">
<g>
	<path d="M106,197.5c-6.3,0-12.6,0-19,0c-2.3,0-3.5-0.5-4.1-3.1c-4.7-19.7-18-30.3-37.3-34.1c-2.9-0.6-3.7-1.4-3.8-4.3
		c-0.8-25.4-1.8-50.9-2.6-76.3c-0.1-3.5-1.3-5.8-3.9-8.1c-8.9-7.8-17.6-15.8-26.5-23.6c-2.2-1.9-2.5-3.4-0.8-5.8
		C21.2,23.1,39.2,12.4,62.6,11c2.9-0.2,3.9,0.6,4.5,3.6c3,16.1,17.6,26.8,35.6,26.5c15.8-0.3,27.7-10.7,30.3-27
		c0.3-2.2,0.9-2.7,3.1-2.6c24.7,1.3,43.6,12.9,58,32.4c1.7,2.3,1.1,3.6-0.8,5.3c-8.5,7.9-16.9,16-25.5,23.9c-2,1.8-2.8,3.6-2.7,6.5
		c1,25.4,1.8,50.9,2.8,76.3c0.1,3.5-0.6,4.6-4.3,5.2c-19.8,3-32.8,17.6-34.4,33.8c-0.3,2.7-1.7,2.7-3.6,2.7c-6.5-0.1-13,0-19.5,0
		C106,197.7,106,197.6,106,197.5z M84.9,99.7c-0.7,9.1,2.3,11.7,9.4,8c6.3-3.3,11.8-3.6,17.7,0.2c0.5,0.3,1.2,0.5,1.9,0.7
		c5.6,1.8,8.4,0.1,7-5.4c-1.9-7.7-0.2-13.6,6.1-18.2c0.3-0.2,0.4-0.5,0.6-0.8c2.5-3.6,1.9-6.5-2.3-7c-9.3-1.1-15.9-5.3-20.2-13.6
		c-1.4-2.7-5.2-3.3-6.5-0.4c-4.1,8.6-10.6,12.7-19.9,13.6c-3.6,0.4-4.2,3.4-2,6.4c0.9,1.2,1.8,2.5,3,3.3
		C84.4,90.2,87,94.5,84.9,99.7z"/>
	<path d="M102.6,98.6c-6.4-0.1-11.7-5.3-11.6-11.3c0.1-5.6,5-10,11-10c6.3,0,12,5.2,11.9,11.1C113.9,94.1,108.8,98.8,102.6,98.6z"/>
</g>
</svg>
