<?xml version="1.0" encoding="utf-8"?>
<!-- Generator: Adobe Illustrator 17.1.0, SVG Export Plug-In . SVG Version: 6.00 Build 0)  -->
<!DOCTYPE svg PUBLIC "-//W3C//DTD SVG 1.1//EN" "http://www.w3.org/Graphics/SVG/1.1/DTD/svg11.dtd">
<svg version="1.1" id="图层_1" xmlns="http://www.w3.org/2000/svg" xmlns:xlink="http://www.w3.org/1999/xlink" x="0px" y="0px"
	 viewBox="0 0 200 200" style="enable-background:new 0 0 200 200;" xml:space="preserve">
<g>
	<path d="M31,201c-10.8-5.7-9.8-15.9-2.2-22.5c21.6-18.7,14.6-16.3,42.3-16.5c9.5-0.1,19,0.1,28.5,0.1c6.1,0,11.4,1.7,15.8,6.1
		c5.7,5.6,11.8,10.8,17.3,16.6c3.1,3.3,5.6,3.1,8.8,0.5c8.9-7.2,15.6-16,20.2-26.3c12.5-28,10.2-55-6.8-80.6
		c-2.7-4.1-10.4-3.6-13,0.7c-7.7,13.2-15.3,26.5-23,39.7c-5.3,9-11.3,11.9-21.6,10.2c-2.1-0.3-3.3,0.2-4.8,1.6
		c-6.6,6.1-15.2,7-22.5,2.6c-6.9-4.2-10-11.8-8.1-20.3c0.4-1.9,0.6-3.2-0.9-4.9c-6.7-7.5-7.3-14.8-2.1-23.8
		C70,65,81.2,45.7,92.3,26.4c2.6-4.5,5.1-9,7.8-13.4c3.4-5.5,8-7.5,14-5.5c2.7,0.9,4,0.4,5.2-1.9c1.2-2.3,3.9-2.9,5.7-4.6
		c2.3,0,4.7,0,7,0c6.5,3.9,13.1,7.7,19.6,11.6c5.9,3.6,7.6,8.6,5.1,14.9c-0.8,2.1-1.1,3.2,1,4.9c4.7,3.9,5.4,8.8,2.8,14.3
		c-0.8,1.6-2.9,3.9-2.4,4.7c3.6,6.1,0.4,14.3,3.9,19.3c14.2,20.8,20.6,43.5,15.8,68.1c-5.6,28.6-17.7,53-48.7,62.1
		C96.3,201,63.7,201,31,201z M101.9,120.1c3.8-0.2,6.5-2.2,8.3-5.4c8.2-14.1,16.3-28.2,24.5-42.4c0.7-1.3,1.3-2.4,0.8-4.1
		c-3.2-10.4,0.4-16.7,10.8-19.1c3.8-0.9,4.4-4.4,5.6-7c1.1-2.6-2-3-3.5-3.9c-11.3-6.6-22.8-13-34.1-19.8c-3.5-2.1-5.2-1.9-7.3,1.8
		C93.9,43,80.6,65.8,67.4,88.8c-3.9,6.9-2.9,11,3.8,15c8.2,4.8,16.4,9.5,24.7,14.2C97.7,119.1,99.6,120.2,101.9,120.1z"/>
</g>
</svg>
