<?xml version="1.0" encoding="utf-8"?>
<!-- Generator: Adobe Illustrator 17.1.0, SVG Export Plug-In . SVG Version: 6.00 Build 0)  -->
<!DOCTYPE svg PUBLIC "-//W3C//DTD SVG 1.1//EN" "http://www.w3.org/Graphics/SVG/1.1/DTD/svg11.dtd">
<svg version="1.1" id="图层_1" xmlns="http://www.w3.org/2000/svg" xmlns:xlink="http://www.w3.org/1999/xlink" x="0px" y="0px"
	 viewBox="0 0 200 200" style="enable-background:new 0 0 200 200;" xml:space="preserve">
<g>
	<g>
		<path d="M46.4,39.4c-5.7,12-11.2,23.4-16.6,34.7c-2.2,4.7-4.7,9.2-6.6,14c-1.7,4.2-4.3,5.5-9,4c4.2-8.7,8.3-17.4,12.4-26
			c4.4-9.2,8.7-18.3,13.1-27.5c0.7-1.5,1.7-3,1.4-4.7c-0.8-4.5,1.7-4.7,5.2-4.7c12,0.1,24,0,36,0.1c3,0,4.3-0.7,4.9-3.9
			c1.3-6.9,6.2-11.3,12-11.5c6.2-0.2,11.3,3.8,12.8,11.1c0.8,3.6,2.2,4.4,5.6,4.4c12.3-0.2,24.7,0,37-0.1c2.9,0,5,0.2,4.5,3.9
			c-0.3,1.9,0.8,3.5,1.6,5.2c7.8,16.2,15.6,32.4,23.2,48.7c0.8,1.6,3.7,4,0.9,5.4c-2.7,1.3-5.4,0.4-7.1-3.3
			c-6.8-14.8-13.9-29.5-20.9-44.2c-0.7-1.5-1.5-2.9-2.5-4.7c-2.4,2.2-3.1,5-4.3,7.4c-6.6,13.6-13,27.3-19.5,41
			c-0.5,1.1-0.9,2.2-1.7,3c-1.7,1.8-4.3,1.5-6,0.6c-1.7-0.9,0.2-2.6,0.7-3.8c7.5-15.9,15.1-31.9,22.9-47.7c2.1-4.2,0.9-4.6-3-4.6
			c-10.8,0.2-21.7,0.1-32.5,0c-3.3,0-4.7,0.7-4.7,4.4c0.1,41.2,0.1,82.3,0,123.5c0,2.9,0.9,4,3.7,4.6c15.4,2.9,30.3,7.7,45.3,12
			c3,0.9,4.1,2.2,3.7,5.2c-0.3,3.4-2.9,2.3-4.5,2.3c-36.3,0.1-72.7,0.1-109,0c-1.7,0-4.3,1.1-4.4-2.4c-0.1-2.6-0.1-4.6,3.3-5.5
			c14.5-3.8,28.7-8.7,43.4-11.5c3.1-0.6,4.3-1.8,4.3-5.2c-0.1-40.8-0.1-81.7,0-122.5c0-3.5-0.7-5.1-4.6-5c-10,0.2-20,0.1-30,0.1
			c-5.3,0-5.4,0.2-3.1,4.9c7.4,15.4,14.9,30.9,22.3,46.3c0.7,1.5,3.2,3.8,0.8,4.9c-2.3,1.1-5.2,0.9-6.9-2.8
			c-6.6-14.5-13.6-28.9-20.5-43.3C48.9,44.3,47.8,42.2,46.4,39.4z"/>
		<path d="M155.5,100.3c9.5,0,19,0.1,28.5-0.1c3.4-0.1,4.3,1.1,3.9,4.3c-1.8,16.1-15.8,28.1-32.8,28.1c-16.9,0-31.1-12.2-32.9-28.2
			c-0.4-3.3,0.6-4.4,3.9-4.3C135.9,100.4,145.7,100.3,155.5,100.3z"/>
		<path d="M46.9,100.3c9.7,0,19.3,0.1,29-0.1c3.2,0,3.9,0.9,3.5,4.1c-2.2,16.7-15.4,28.3-32.6,28.4c-17.1,0.1-30.6-11.5-33-28.1
			c-0.5-3.4,0.2-4.4,3.6-4.4C27.2,100.4,37,100.3,46.9,100.3z"/>
	</g>
</g>
</svg>
