<?xml version="1.0" encoding="utf-8"?>
<!-- Generator: Adobe Illustrator 17.1.0, SVG Export Plug-In . SVG Version: 6.00 Build 0)  -->
<!DOCTYPE svg PUBLIC "-//W3C//DTD SVG 1.1//EN" "http://www.w3.org/Graphics/SVG/1.1/DTD/svg11.dtd">
<svg version="1.1" id="图层_1" xmlns="http://www.w3.org/2000/svg" xmlns:xlink="http://www.w3.org/1999/xlink" x="0px" y="0px"
	 viewBox="0 0 200 200" style="enable-background:new 0 0 200 200;" xml:space="preserve">
<g>
	<g>
		<path d="M101.5,40.5c23,0,46,0,69,0c12.3,0,17.6,5.4,17.6,17.7c0,28.8,0,57.6,0,86.4c0,10.9-5.5,16.8-16.5,16.8
			c-47,0.1-93.9,0.1-140.9,0c-10.8,0-16.4-6-16.4-17c0-29,0-58,0-86.9c0-11.2,5.7-17,16.8-17C54.5,40.5,78,40.5,101.5,40.5z
			 M101,151.5c23.1,0,46.3,0,69.4,0c6.5,0,7.6-1.2,7.6-7.5c0-28.5,0-56.9,0-85.4c0-7.1-0.8-8-8.1-8c-45.8,0-91.6,0-137.4,0
			c-7.5,0-8.4,0.9-8.4,8.2c0,28.1,0,56.3,0,84.4c0,7.3,1,8.3,8.4,8.3C55.4,151.5,78.2,151.5,101,151.5z"/>
		<path d="M87.2,95.7c0.3,3.7-2.4,5.7-5.1,7.7c-6.4,5-6.4,5-3.8,12.8c0.5,1.4,1.1,2.8,1.4,4.2c0.9,3.4,0.1,6.3-2.8,8.4
			c-2.8,1.9-6.1,2.1-8.3-0.2c-6.9-7.3-13.3-7.1-20.1,0.1c-2.3,2.4-5.6,1.9-8.3,0c-2.7-1.9-3.6-4.7-2.8-7.9c0-0.2,0.1-0.3,0.2-0.5
			c4.2-7.8,4.2-14.4-4.9-19c-2.9-1.5-3.4-4.9-2.2-8c1.2-3.1,3.7-5.3,6.9-4.7c8.9,1.6,12.4-2.9,14-10.7c0.7-3.7,3.3-6.1,7.5-6
			c4,0.1,5.9,2.6,7.1,5.9c0.1,0.3,0.1,0.7,0.3,1c3.3,9.3,3.3,9.3,13,9.7C84.4,88.8,87.1,91,87.2,95.7z M50.5,114.4
			c5.5-5.2,10.8-4.6,16.4,0.1c-3.2-6.5-2.2-11.5,4.4-15.2c-3.4-1.4-6.6-0.9-8.9-3.2c-2.1-2.1-2-5.3-4.3-8.2
			c-1.3,7-4.6,11.1-12.1,11.2C52.8,103,52.8,108.1,50.5,114.4z"/>
		<path d="M115,83.5c-5.3,0-10.6-0.2-16,0.1c-4.6,0.2-3.4-2.9-3.5-5.4c-0.1-2.6-0.3-4.9,3.6-4.8c10.3,0.2,20.6,0.3,30.9,0
			c4.3-0.1,3.7,2.5,3.8,5.1c0.1,2.8,0.3,5.3-3.9,5C125,83.3,120,83.5,115,83.5z"/>
		<path d="M114.6,128.5c-5.2,0-10.3-0.2-15.5,0.1c-4,0.2-3.8-2.2-3.6-4.8c0.1-2.5-1-5.4,3.6-5.3c10.5,0.2,20.9,0.2,31.4,0
			c4.2-0.1,3.4,2.7,3.3,5c0,2.3,1,5.2-3.3,5.1C125.2,128.4,119.9,128.5,114.6,128.5z"/>
		<path d="M115,94.8c5.2,0,10.3,0.2,15.5-0.1c4.2-0.2,3.4,2.7,3.3,5c0,2.3,1.1,5.2-3.2,5.1c-10.6-0.2-21.3-0.1-31.9,0
			c-4.4,0-3-3.1-3.1-5.3c-0.1-2.1-1-4.9,3-4.8C104,95,109.5,94.8,115,94.8z"/>
		<path d="M160.3,83.5c-1.2,0-2.1,0-2.9,0c-4.9,0-7.5-4.3-5.4-8.8c0.6-1.2,1.5-1.2,2.5-1.2c2.3,0,4.7,0,7,0c5.7,0,8,2.9,5.9,8.3
			C165.9,85.5,162.3,82.5,160.3,83.5z"/>
		<path d="M159.1,118.5c1.2,0,2.1,0,2.9,0c4.9,0,7.6,4.6,5.3,8.8c-0.6,1.1-1.5,1.1-2.5,1.1c-2.5,0-5-0.2-7.5,0.1
			c-4.3,0.5-5.5-0.9-5.6-5.4C151.5,116,156.5,119.3,159.1,118.5z"/>
		<path d="M159.4,94.8c1.2,0,2.1,0,2.9,0c4.6,0,7.3,4.8,5,8.9c-0.6,1.1-1.6,1-2.5,1c-2.5,0-5-0.2-7.4,0.1c-4.3,0.5-5.5-0.8-5.6-5.3
			C151.4,92,156.8,95.9,159.4,94.8z"/>
	</g>
</g>
</svg>
