<?xml version="1.0" encoding="utf-8"?>
<!-- Generator: Adobe Illustrator 17.1.0, SVG Export Plug-In . SVG Version: 6.00 Build 0)  -->
<!DOCTYPE svg PUBLIC "-//W3C//DTD SVG 1.1//EN" "http://www.w3.org/Graphics/SVG/1.1/DTD/svg11.dtd">
<svg version="1.1" id="图层_1" xmlns="http://www.w3.org/2000/svg" xmlns:xlink="http://www.w3.org/1999/xlink" x="0px" y="0px"
	 viewBox="0 0 200 200" style="enable-background:new 0 0 200 200;" xml:space="preserve">
<g>
	<g>
		<path d="M195.8,66.4c0,2.2,0,3.8,0,5.4c0,27,0,54,0,81c0,13.2-5.7,19-18.8,19c-46.7,0-93.3,0-140,0c-11.2,0-17.9-5.5-18.4-14.8
			c-0.1-1.5-0.6-3.3,1.6-3.5c3.5-0.3,7-0.7,10.3-1.9c1.5-0.6,1.8,0.7,2,1.5c1.2,3.8,4,4.4,7.5,4.4c44.7,0,89.3,0,134,0
			c6.3,0,7.8-1.6,7.8-8.1c0-24.3,0.1-48.7-0.1-73c0-3.5,0.5-5.4,4.5-6.1C189.3,69.9,192.1,68,195.8,66.4z"/>
		<path d="M163.7,35c-1.9,4-4,7.6-4.8,11.7c-0.6,3.1-3.2,1.8-4.9,1.8c-29.8,0.1-59.6,0.1-89.4,0.1c-8.5,0-17,0-25.5,0
			c-4,0-6.5,1.7-6.5,5.9c-0.1,18.6,0,37.3,0,56c0,0.2,0.4,0.5,0.9,1.1c6.9-8.2,13.7-16.2,20.6-24.4c2,2.5,3.4,5.1,5.6,6.7
			c4.3,3,3,5.3,0.1,8.5c-5.5,6-10.6,12.4-15.8,18.7c-1.5,1.9-2.5,2.3-3.9,0c-4.3-7.1-10.7-10.7-19-10.8c-2.3,0-2.7-1.1-2.7-3.1
			c0.1-19.2-0.2-38.3,0.2-57.5c0.2-9,6.2-14.9,14.9-14.9c42.6-0.2,85.3-0.1,127.9-0.1C162.1,34.5,162.7,34.8,163.7,35z"/>
		<path d="M180.7,69c-10.7,0.1-19.5-8.7-19.5-19.3c0-10.6,9-19.6,19.4-19.5c10.4,0.1,19.1,8.8,19.3,19.2C200,60,191.3,68.9,180.7,69
			z M185.8,49.7c-0.5-3.2-2.1-5.3-5.6-5.1c-3.2,0.1-5,2.1-4.9,5.1c0,3.3,2.1,5.3,5.4,5.2C183.8,54.7,185.5,52.7,185.8,49.7z"/>
		<path d="M94,78.6c-0.1,10.7-9,19.4-19.6,19.2c-10.4-0.2-18.9-9-18.9-19.4c0-10.7,8.8-19.5,19.4-19.4C85.5,59.1,94.1,67.9,94,78.6z
			 M80,77.7c-0.7-2.6-2.3-4.7-5.7-4.5c-3.1,0.2-4.8,2.3-4.7,5.3c0.1,3.1,2.1,5.1,5,5C77.8,83.6,79.9,81.7,80,77.7z"/>
		<path d="M21.6,151.1c-10.7,0.1-19.4-8.6-19.4-19.3c0-10.7,8.7-19.3,19.4-19.3c10.4,0.1,19.1,8.6,19.2,19.1
			C41,142.2,32.3,151,21.6,151.1z M21.6,137c3.2-0.4,5.3-2.3,5.1-5.5c-0.1-3-2.1-4.9-5.3-4.8c-3.1,0.1-5.1,1.9-5.1,4.9
			C16.3,134.8,18.2,136.7,21.6,137z"/>
		<path d="M151,123.5c0,10.7-8.8,19.6-19.3,19.4c-10.7-0.2-19.2-8.8-19.2-19.6c-0.1-10.2,8.8-19,19.1-19.2
			C142.2,104,151,112.8,151,123.5z M132,128.9c3.1-0.6,5.2-2.2,5-5.6c-0.2-3.2-2.4-4.9-5.2-4.8c-3.2,0.1-5.2,2.2-5,5.6
			C126.9,127.1,128.9,128.5,132,128.9z"/>
		<path d="M170.2,70.8c-0.4,0.8-0.9,1.6-1.4,2.5c-6.3,10.6-12.7,21.1-18.9,31.7c-1.6,2.8-2.8,3.2-5.1,0.9c-0.8-0.8-1.9-1.4-2.9-1.9
			c-5.9-3.3-5.9-3.3-2.5-9.1c6.2-10.3,12.4-20.5,18.4-30.8c1.4-2.5,2.4-2.5,4.3-0.5c1.8,1.9,4.1,3.4,6.2,5
			C169.1,69.1,170.3,69.3,170.2,70.8z"/>
		<path d="M118.8,106.8c-1,0.4-1.9,0.6-2.5,1.1c-2,1.8-3.9,3.8-4.6,6.4c-1,4-2.4,4.1-5.3,1.4c-5.7-5.5-11.7-10.8-17.6-16.1
			c-1.8-1.6-2.1-2.6,0.1-4c2.5-1.6,3.8-4.1,4.8-6.8c0.7-1.8,1.4-2.5,3.2-1c6.6,5.6,13.2,11.1,19.7,16.7
			C117.1,104.9,117.5,105.4,118.8,106.8z"/>
	</g>
</g>
</svg>
