<?xml version="1.0" encoding="utf-8"?>
<!-- Generator: Adobe Illustrator 17.1.0, SVG Export Plug-In . SVG Version: 6.00 Build 0)  -->
<!DOCTYPE svg PUBLIC "-//W3C//DTD SVG 1.1//EN" "http://www.w3.org/Graphics/SVG/1.1/DTD/svg11.dtd">
<svg version="1.1" id="图层_1" xmlns="http://www.w3.org/2000/svg" xmlns:xlink="http://www.w3.org/1999/xlink" x="0px" y="0px"
	 viewBox="0 0 200 200" style="enable-background:new 0 0 200 200;" xml:space="preserve">
<g>
	<g>
		<path d="M100.5,200c-21.5,0-43,0-64.5,0c-8.1,0-9.1-1-9.1-9.3c0-4-0.1-8,0-12c0.1-2.4-0.3-3.8-3.2-3.7c-4.6,0.2-6.6-2.5-6.6-6.9
			c0.1-5.2,0-10.3,0.5-15.5c0.7-7.2,3.8-9.9,11.1-10.3c13.9-0.7,26.9-4.3,38.9-11.5c11.1-6.7,16.4-16.1,14.7-29.2
			c-0.4-3.2-1.5-5.7-3.9-7.7c-1.7-1.4-3.6-2.6-4.9-4.3c-3.8-5-8.4-7.7-14.9-6.5c-1.6,0.3-2.9-0.2-3.6-1.9
			c-8.5-19.6-12.6-37.1,2.8-58.5c12.9-18,37-25.2,58-17.8c21.6,7.6,35.6,27.8,34.5,50.3c-0.4,9.1-4,17.5-7.3,25.8
			c-0.9,2.3-2.7,2.4-4.5,2c-4.9-0.9-8.3,1.3-11,5c-0.7,0.9-1.6,1.7-2.4,2.6c-8.8,9-9.9,20.2-2.6,30.6c8.1,11.5,19.9,16.8,33.1,19.6
			c5.4,1.1,10.9,1.2,16.4,1.6c7.3,0.5,11.4,4.3,11.9,11.6c0.3,5.1,0.2,10.3,0.1,15.5c-0.1,3.6-2.1,5.6-5.7,5.6c-2.6,0-3.1,1.2-3,3.4
			c0.1,4.5,0,9,0,13.5c0,6.7-1.5,8.1-8.3,8.1C144.8,200,122.6,200,100.5,200z M122.5,84.6c-0.3-0.4-0.7-0.7-1-1.1
			c-14.7,0-29.4,0-44.2,0c2.7,2.9,5.2,5.6,7.7,8.2c2.4,2.4,4.6,5,5,8.4c1.6,12.7-0.7,24.1-11.1,32.9c-13.6,11.5-29.6,16.2-47,16.8
			c-4.9,0.2-6.4,2.5-6.7,6.7c-0.1,1.7,0.2,3.4-0.1,5c-0.6,4.5,0.9,5.8,5.6,5.8c46.3-0.2,92.6-0.1,138.9-0.1c1.2,0,2.3,0,3.5,0
			c1.4,0,2.2-0.5,2.2-2c-0.1-3.7,0.1-7.3-0.3-11c-0.3-2.7-2.1-4.2-5.2-4.3c-11.3-0.5-22-3.6-32.4-7.6c-18.4-7-27.5-20.8-27-40.3
			c0.1-4.2,1.1-7.8,4.5-10.6C117.5,89.3,119.9,86.9,122.5,84.6z M98.5,75.8c10.2,0,20.3-0.4,30.5,0.2c5.7,0.3,8.3-1.9,10.1-7
			c8-21.8-3-46.4-24.7-54.6c-21.8-8.2-46.7,2.3-55,23.7c-4,10.2-4.8,20.7-1.4,31.3c1.4,4.3,3.8,6.8,9.1,6.5
			C77.5,75.5,88,75.8,98.5,75.8z M101,175.1c-18.1,0-36.3,0-54.4,0c-11.4,0-11.2,0-11.5,11.5c-0.1,4.6,1.2,5.8,5.8,5.8
			c37.9-0.2,75.9-0.1,113.8-0.1c12.4,0,12.3,0,12.4-12.5c0-3.7-0.9-4.8-4.7-4.8C141.9,175.2,121.5,175.1,101,175.1z"/>
	</g>
</g>
</svg>
