<?xml version="1.0" encoding="utf-8"?>
<!-- Generator: Adobe Illustrator 17.1.0, SVG Export Plug-In . SVG Version: 6.00 Build 0)  -->
<!DOCTYPE svg PUBLIC "-//W3C//DTD SVG 1.1//EN" "http://www.w3.org/Graphics/SVG/1.1/DTD/svg11.dtd">
<svg version="1.1" id="图层_1" xmlns="http://www.w3.org/2000/svg" xmlns:xlink="http://www.w3.org/1999/xlink" x="0px" y="0px"
	 viewBox="0 0 200 200" style="enable-background:new 0 0 200 200;" xml:space="preserve">
<g>
	<g>
		<path d="M1,83c2.3-8.3,3.6-16.8,7-24.8c14.8-34.9,51-56,89.4-52c37,3.8,68.6,33.1,75.4,69.7c1.6,8.4,1.8,16.9,1,25.4
			c-0.7,7.9-2.6,9.6-10.8,9.6c-22.8,0-45.7,0-68.5,0c-2.9,0-5.1,0.5-7.4,2.8c-6.1,6.3-16,5.6-21.8-0.9c-5.6-6.4-4.7-16.4,2-21.8
			c6.7-5.4,16.5-4,21.7,3.1c2.1,2.9,10.5,4.8,13.8,3.3c1.5-0.7,1.2-1.9,1.2-2.9c0-8,0-16,0.1-24c0-2.3-0.7-3.3-3.1-3.2
			c-8,0.1-16,0.2-24-0.1c-3.4-0.1-3.5,2.4-4.5,4.3c-4,7.6-12.2,11.4-20.6,9.6c-7.7-1.7-13.6-8.8-14-16.8
			c-0.4-8.7,4.6-16.2,12.9-18.6c7.8-2.2,14.6-0.3,19.7,6.1c1.6,1.9,3.1,2.6,5.4,2.6c10.8-0.1,21.7-0.1,32.5,0c6.6,0,8.6,2,8.7,8.6
			c0,10.2,0.1,20.3-0.1,30.5c-0.1,3.3,1.1,4.3,4.3,4.2c12-0.1,24-0.1,36,0c2.7,0,3.7-0.8,3.8-3.7c1.8-38.8-31.4-74.3-70.2-75
			c-44.2-0.9-77.2,31.8-76.8,76c0.3,34.5,28.7,66,63.4,70.3c24.2,2.9,45-4.2,62.4-21.2c5.3-5.2,7.7-5.3,13.1-0.4
			c14.4,13.1,28.8,26.2,43.2,39.4c2.3,2.1,4.4,4.2,3.7,7.7c-1,5.1-7,6.8-11.4,2.9c-6.2-5.3-12.1-11-18.1-16.4
			c-6.8-6.2-13.6-12.2-20.3-18.6c-2.4-2.3-4-2.5-6.5-0.2c-16.6,14.7-36.3,21.1-58.3,20.7C44.2,178.2,7.7,146,2,105.2
			c-0.2-1.1,0.2-2.4-1-3.2C1,95.7,1,89.3,1,83z M56.5,53.2c-5.2-0.2-9.9,4.4-9.9,9.7c0,5.4,4.4,9.9,9.7,9.9c5,0,9.5-4.4,9.7-9.4
			C66.2,58.3,61.6,53.4,56.5,53.2z M83.1,103.6c0.1-4.2-2.7-7.1-6.1-7.3c-3.5-0.2-7,3.1-6.7,6.6c0.3,3.7,2.3,6.3,6.4,6.2
			C80.6,109,82.7,106.8,83.1,103.6z"/>
		<path d="M108.9,145.2c-3,0-6,0-9,0c-5.1-0.1-9.4-0.1-13.5,4.7c-5.5,6.4-15.8,4.9-21.2-1.5c-5.3-6.3-4.5-15.7,1.6-21.1
			c6.3-5.5,16.2-5,21.4,1.7c2.1,2.7,4.1,3.2,7.1,3.1c6.8-0.1,13.6-0.2,20.5,0c2.7,0.1,4-0.7,3.7-3.6c-0.1-1.3,0.1-2.7,0.3-4
			c0.5-3.5,2.7-5.3,6.1-5.5c3.2-0.2,5.6,1.4,6.3,4.5c1.2,5.6,1.2,11.2,0,16.8c-0.8,3.4-3.4,4.7-6.8,4.7
			C119.9,145.2,114.4,145.1,108.9,145.2C108.9,145.1,108.9,145.2,108.9,145.2z M77,145c3.7-0.5,6.1-2.4,6.1-6.4
			c0.1-4-2.3-6.1-6.1-6.4c-3.6-0.3-6.9,3-6.6,6.6C70.8,142.6,73,144.7,77,145z"/>
	</g>
</g>
</svg>
