<?xml version="1.0" encoding="utf-8"?>
<!-- Generator: Adobe Illustrator 17.1.0, SVG Export Plug-In . SVG Version: 6.00 Build 0)  -->
<!DOCTYPE svg PUBLIC "-//W3C//DTD SVG 1.1//EN" "http://www.w3.org/Graphics/SVG/1.1/DTD/svg11.dtd">
<svg version="1.1" id="图层_1" xmlns="http://www.w3.org/2000/svg" xmlns:xlink="http://www.w3.org/1999/xlink" x="0px" y="0px"
	 viewBox="0 0 200 200" style="enable-background:new 0 0 200 200;" xml:space="preserve">
<g>
	<g>
		<path d="M101.1,13.5c48.2,0.1,87.4,39.3,87.4,87.5c0,48.2-39.2,87.4-87.4,87.5c-48.4,0.1-87.7-39.3-87.6-87.8
			C13.6,52.5,52.9,13.4,101.1,13.5z M101.2,26c-41.2-0.2-75,33.4-75.2,74.7c-0.2,41.2,33.4,75,74.7,75.3c41.2,0.2,75-33.4,75.3-74.8
			C176.2,60.1,142.6,26.2,101.2,26z"/>
		<path d="M70.9,111.7c-16.6-4.7-30.3-19.4-32-32.9c-0.2-1.9-0.2-3.5,0.8-5.3c3.6-6.8,8.1-13,13.6-18.4c2.3-2.3,3.6-2.2,5.5,0.1
			c0.9,1.1,2.3,1.9,3.4,2.9c3.6,3.4,7.1,5,10.7-0.1c0.8-1.2,2.6-2.2,3.9-1.8c2.9,1,5.5,0,8.3-0.5c2.2-0.5,5-0.9,5.9,2
			c0.8,2.6-1.1,4.4-3,5.8c-1.5,1.1-3.4,1.3-5.2,1.5c-1.4,0.2-3.6,0.2-3.4,2c0.3,2.6,2.6,4.2,4.7,5.5c1.7,1.1,2.6-0.3,3.5-1.6
			c3.4-4.9,6.4-5.8,12.4-4c3.3,1,4.8,3.4,5.2,6.6c0.4,3.2-1.9,4.3-4.2,5.4c-3.6,1.7-7.4,3.2-10.8,5.1c-4.8,2.8-9.1,6.2-10,12.3
			c-0.3,1.9-1.4,3.6-3.5,3.6c-1.8,0-2.2-1.8-2.5-3.3c-1.2-4.3-3.8-4.4-7.2-2.6c-3.3,1.7-5,4-2.5,7.6c1.3,1.9,2.9,3.6,4.4,5.4
			C69.7,108.5,71.5,109.5,70.9,111.7z"/>
		<path d="M163.5,103.5c-0.3,4.7-0.7,10-2.1,15.2c-0.5,2-1.2,2.9-3.4,1.7c-4-2.1-7.9-4.3-10-8.6c-1.6-3.2-4.3-5.4-6.6-8.1
			C134.7,96.1,131,88,136.8,78c1.2-2.1,2.3-4.9,0.5-7.1c-2-2.4-4.6-0.8-6.9,0c-8.8,3-12.4,0.7-13.2-8.8c-0.2-2.4,0.1-4.7-2.8-5.5
			c-0.4-0.1-0.8-0.7-1-1.1c-1-2.4-1-5.2,1.4-6.2c3.7-1.6,2.7-9.6,9.7-6.5C148,53.2,163.8,77.3,163.5,103.5z"/>
		<path d="M86.3,143.4c0.7-3.4-0.5-6.6-4.3-9.4c-4.6-3.4-6.6-14-4.5-19.4c0.8-1.9,2.1-3.3,4-4.3c6.2-3.1,15.9-1.5,20.8,3.3
			c12,11.9,12,11.9,2.4,26.1c-3.7,5.5-5.7,11.6-6.9,18c-0.3,1.8-0.6,4-2.6,4.5c-2.4,0.7-3.4-1.6-4.6-3.1
			C87.2,154.9,85.9,149.9,86.3,143.4z"/>
		<path d="M146,123.6c-0.3,2.2-1,3.9-3.4,3.5c-3.2-0.5-5.7-2.1-6-5.6c-0.1-2.3,1.1-4,3.7-3.6C143.7,118.2,145.6,120.4,146,123.6z"/>
	</g>
</g>
</svg>
