<?xml version="1.0" encoding="utf-8"?>
<!-- Generator: Adobe Illustrator 17.1.0, SVG Export Plug-In . SVG Version: 6.00 Build 0)  -->
<!DOCTYPE svg PUBLIC "-//W3C//DTD SVG 1.1//EN" "http://www.w3.org/Graphics/SVG/1.1/DTD/svg11.dtd">
<svg version="1.1" id="图层_1" xmlns="http://www.w3.org/2000/svg" xmlns:xlink="http://www.w3.org/1999/xlink" x="0px" y="0px"
	 viewBox="0 0 200 200" style="enable-background:new 0 0 200 200;" xml:space="preserve">
<g>
	<g>
		<path d="M2.5,152.7c0-4.7-0.1-9.3,0-14c0.1-7.3,4-11.8,11.2-12.1c10-0.3,20-0.3,30,0c7.2,0.2,11.3,4.9,11.1,12.6
			c-0.1,4.1,1.1,5.1,5,4.4c18.6-3,30.6-15.8,32.4-34.5c1-9.9,0.6-19.6-3.2-28.9C83.2,66.3,71.9,60,57.6,58.1
			c-2.4-0.3-2.6,0.8-2.8,2.8C54,72.7,51,75.5,39.4,75.5c-7.8,0-15.7,0.1-23.5,0C6.6,75.4,2.5,71.3,2.5,62.1c0-8.8-0.1-17.7,0-26.5
			c0.1-8,4.4-12.4,12.3-12.5c9.2-0.1,18.3-0.1,27.5,0c7.9,0.1,12.7,4.6,12.4,12.4c-0.2,4.7,1.1,6.1,5.9,6.6
			c15.7,1.6,28.6,8.6,37.9,21.4c2.2,2.9,2.9,2.8,5-0.1c9.4-12.8,22.3-19.7,37.9-21.4c4.1-0.4,6-1.4,5.8-6.1
			c-0.4-8.2,4.4-12.7,12.5-12.8c9.2-0.1,18.3-0.1,27.5,0c7.7,0.1,12.1,4.5,12.2,12.1c0.1,9.5,0.1,19,0,28.5
			c-0.1,6.9-4.2,11.5-11,11.7c-10,0.3-20,0.3-30,0c-7.2-0.2-11.5-4.9-11.2-12.5c0.2-4.6-1.3-5.1-5.4-4.4c-18.3,3.2-29.6,15-32,33.3
			c-1,8.2-0.9,16.3,1,24.3c3.7,15.3,17.3,26.5,32.9,27.7c2.7,0.2,3.3-0.6,3.4-3.2c0.4-10.8,4-14.1,14.7-14.2c8.2,0,16.3-0.1,24.5,0
			c8.9,0.1,13,4.3,13.1,13.3c0,8.8,0.1,17.7,0,26.5c-0.1,8.2-4.4,12.6-12.7,12.7c-9,0.1-18,0.1-27,0c-8.1-0.1-12.8-4.6-12.5-12.8
			c0.2-4.6-1.5-5.8-5.8-6.2c-15.6-1.7-28.5-8.7-38-21.3c-2.3-3-3-2.6-5.1,0.1c-9.7,12.8-22.7,19.8-38.6,21.3
			c-4.1,0.4-5.2,1.8-5.1,5.8c0.2,8.8-4.3,13.1-13.2,13.2c-8.8,0-17.7,0.1-26.5,0c-8.3-0.1-12.5-4.4-12.6-12.8
			C2.5,161.7,2.5,157.2,2.5,152.7z M28.9,61c11.6,0,11.6,0,11.6-11.2c0-12.3,0-12.3-12.2-12.3c-11.5,0-11.5,0-11.5,11.4
			C16.8,61,16.8,61,28.9,61z M173.3,61c11.9,0,11.9,0,11.9-11.3c0-12.2,0-12.2-12.2-12.2c-11.5,0-11.5,0-11.5,11.5
			C161.5,61,161.5,61,173.3,61z M28.7,141c-11.9,0-11.9,0-11.9,11.4c0,12.1,0,12.1,12.2,12.1c11.4,0,11.4,0,11.4-11.5
			C40.5,141,40.5,141,28.7,141z M185.2,153c0-12,0-12-12.2-12c-11.4,0-11.4,0-11.4,11.4c0,12.1,0,12.1,12.3,12.1
			C185.2,164.5,185.2,164.5,185.2,153z"/>
	</g>
</g>
</svg>
